<?xml version="1.0" encoding="UTF-8"?>
<!-- Generator: Adobe Illustrator 26.5.0, SVG Export Plug-In . SVG Version: 6.00 Build 0)  -->
<svg xmlns="http://www.w3.org/2000/svg" xmlns:xlink="http://www.w3.org/1999/xlink" version="1.1" id="Capa_1" x="0px" y="0px" viewBox="0 0 512 512" style="enable-background:new 0 0 512 512;" xml:space="preserve" width="512" height="512">
<g>
	<path style="fill:#FFFFFF;" d="M235.605,512c-7.632,0-14.708-3.796-18.93-10.151l-23.391-35.505l-2.364-3.562   c-0.127-0.193-0.25-0.385-0.368-0.583l-4.024-6.109c-3.548-0.303-7.835-0.529-12.74-0.529c-2.978,0-6.003,0.085-8.988,0.254   c-4.515,0.257-8.983,0.65-13.304,1.027c-6.361,0.56-12.369,1.086-17.623,1.086c-21.348,0-26.528-11.225-27.715-17.915   c-0.437-2.46-0.383-4.946,0.128-7.337c-1.022,0.023-2.024,0.036-3.002,0.036c-22.297,0-28.49-10.18-29.76-18.721   c-0.835-5.619,0.777-11.114,4.536-15.475c1.669-1.936,4.088-4.158,8.193-6.025c-8.025-7.496-15.476-16.859-16.199-26.222   c-0.505-6.531,2.036-12.599,6.974-16.646c0.384-0.316,0.775-0.614,1.176-0.899c-42.756-37.152-68.922-91.863-68.922-150.17   C9.283,89.072,98.353,0,207.837,0C269.293,0,327.6,28.818,365.098,77.405l2.44,0.449l7.651-41.558   c1.4-7.601,8.033-12.922,15.499-12.922c0.934,0,1.878,0.082,2.829,0.254c0,0,2.865,0.521,2.964,0.539l0.575,0.115l20.579,3.791   c0.966,0.18,1.906,0.444,2.809,0.794l4.24,0.781c4.115,0.758,7.761,3.12,10.135,6.566c2.373,3.446,3.281,7.694,2.522,11.81   l-7.61,41.289l53.027,9.766c0.995,0.182,1.95,0.455,2.861,0.809l4.181,0.77c8.568,1.579,14.235,9.807,12.654,18.377l-4.436,24.062   c-1.401,7.601-8.035,12.92-15.498,12.92c-0.949,0-1.911-0.085-2.877-0.265l-60.115-11.078l-4.934,26.764   c2.27-1.405,5.009-2.391,8.306-2.861c0.904-0.128,1.823-0.193,2.73-0.193c5.939,0,11.361,2.658,15.268,7.483   c1.344,1.661,2.461,3.562,3.385,5.637c7.938-8.387,17.958-16.148,27.855-16.148c5.93,0,11.435,2.599,15.105,7.131   c13.097,16.173-3.581,32.306-16.981,45.267c-1.284,1.243-2.586,2.501-3.893,3.78c11.306,0.021,17.653,6.903,19.824,13.344   c6.65,19.717-14.603,29.037-31.679,36.522c-3.977,1.744-8.088,3.547-12.178,5.493c-9.149,4.35-16.311,8.842-20.972,12.057   l43.866,69.789c2.256,3.587,2.973,7.933,1.991,12.054c-0.982,4.119-3.58,7.673-7.21,9.859L247.296,508.751   C243.758,510.878,239.719,512,235.605,512z"/>
	<g>
		
			<ellipse transform="matrix(0.7071 -0.7071 0.7071 0.7071 -79.9289 204.1936)" style="fill:#FFC576;" cx="206.519" cy="198.58" rx="182.776" ry="182.776"/>
		<g>
			<g>
				<g>
					
						<rect x="375.136" y="41.043" transform="matrix(0.9834 0.1813 -0.1813 0.9834 34.9612 -67.6144)" style="fill:#D04D20;" width="24.47" height="232.816"/>
					<polygon style="fill:#D04D20;" points="464.846,112.37 474.143,138.697 481.183,140.264 485.618,116.199      "/>
				</g>
				<polygon style="fill:#351009;" points="478.581,114.622 477.017,123.153 476.902,123.705 475.27,132.604 475.155,133.178       474.143,138.697 400.172,125.061 399.574,124.969 398.516,124.762 397.873,128.281 397.505,130.281 388.629,178.384       388.514,178.982 381.593,216.485 381.501,217.06 371.246,272.59 370.188,272.383 369.498,272.268 358.254,270.198       357.679,270.083 347.194,268.152 366.67,162.426 367.038,160.541 374.442,120.325 301.551,106.896 303.322,97.285       303.437,96.71 304.679,89.973 304.771,89.398 305.989,82.822 348.965,90.732 350.988,91.122 378.88,96.25 389.388,39.18       392.055,39.662 392.63,39.777 399.114,40.973 399.712,41.088 413.462,43.617 402.931,100.688 411.002,102.183 411.554,102.275       426.27,104.988 427.65,105.241     "/>
				<g>
					<path style="fill:#D04D20;" d="M392.63,39.777c-1.633,4.277-2.92,9.037-3.817,14.371c-1.725,10.186-1.863,20.74-1.977,30.95       c-0.069,6.99-0.138,14.141-0.759,21.223c0,0.207-0.023,0.414-0.046,0.598c-0.069,0.759-0.138,1.518-0.23,2.254       c-0.023,0.207-0.046,0.391-0.069,0.598c-0.207,1.908-0.46,3.817-0.759,5.702c-0.046,0.207-0.069,0.391-0.115,0.598       c-0.207,1.219-0.437,2.437-0.69,3.656c-3.173,15.13-10.278,29.133-17.498,42.7l0.368-1.886       c6.875-13.014,13.52-26.489,16.578-40.929c0.253-1.219,0.483-2.46,0.69-3.679c0.046-0.207,0.069-0.391,0.115-0.575       c0.299-1.909,0.552-3.794,0.759-5.703c0.023-0.207,0.046-0.391,0.069-0.598c0.092-0.759,0.161-1.541,0.23-2.299       c0.023-0.207,0.023-0.391,0.046-0.575c0.598-7.036,0.667-14.141,0.736-21.085c0.138-10.232,0.253-20.809,1.978-31.042       c0.92-5.335,2.184-10.094,3.817-14.394L392.63,39.777z"/>
					<path style="fill:#D04D20;" d="M399.712,41.088c-2.92,10.37-3.656,21.568-4.323,31.984c-0.736,11.382-1.587,23.04-3.035,34.675       c-0.023,0.184-0.046,0.391-0.069,0.575c-0.092,0.736-0.184,1.449-0.276,2.184c-0.023,0.184-0.046,0.391-0.092,0.575       c-0.253,1.932-0.529,3.84-0.828,5.726c-0.023,0.207-0.046,0.391-0.092,0.598c-2,12.854-4.852,25.569-9.198,37.779       c-1.656,4.668-3.564,9.336-5.404,13.865c-2.414,5.886-4.897,11.98-6.875,18.119c-5.886,18.372-7.381,38.009-8.853,57.002       c-0.667,8.554-1.334,17.36-2.414,26.029l-0.575-0.115c1.081-8.623,1.748-17.429,2.414-25.96       c1.472-19.016,2.989-38.699,8.875-57.117c1.978-6.185,4.484-12.279,6.898-18.188c1.84-4.507,3.748-9.174,5.404-13.819       c4.346-12.164,7.197-24.879,9.151-37.733c0.046-0.184,0.092-0.368,0.092-0.575c0.322-1.885,0.598-3.794,0.828-5.725       c0.046-0.184,0.069-0.368,0.092-0.575c0.092-0.713,0.184-1.449,0.276-2.185c0.023-0.184,0.046-0.368,0.069-0.575       c1.449-11.589,2.299-23.224,3.035-34.583c0.667-10.416,1.38-21.66,4.3-32.076L399.712,41.088z"/>
					<path style="fill:#D04D20;" d="M388.629,178.384l-0.115,0.598c-1.587-1.012-3.702-1.402-5.449-0.414       c-1.449,0.828-2.299,2.414-3.012,3.978c-4.093,9.197-4.967,19.614-2.437,29.34c0.414,1.541,1.012,3.242,2.345,4.093       c0.506,0.322,1.058,0.483,1.632,0.506l-0.092,0.575c-0.644-0.046-1.288-0.23-1.863-0.598c-1.495-0.943-2.138-2.782-2.575-4.438       c-2.552-9.841-1.702-20.396,2.46-29.708c0.759-1.679,1.655-3.334,3.265-4.254C384.651,177.005,386.904,177.372,388.629,178.384       z"/>
					<path style="fill:#D04D20;" d="M383.156,163.645c4.093-11.083,8.715-23.592,14.716-35.365l-0.368,2.001       c-5.565,11.221-9.933,23.04-13.819,33.571c-4.3,11.681-9.197,24.925-12.532,38.515c-3.403,13.773-5.197,27.984-5.358,42.194       c-0.069,7.68,0.276,17.636,3.84,26.558c0.161,0.414,0.345,0.851,0.552,1.265l-0.69-0.115c-0.161-0.322-0.276-0.621-0.414-0.943       c-3.564-9.014-3.932-19.039-3.863-26.788c0.161-14.233,1.955-28.489,5.358-42.309       C373.936,188.616,378.834,175.349,383.156,163.645z"/>
					<path style="fill:#D04D20;" d="M406.495,113.404c-0.092,0.184-0.184,0.368-0.276,0.529c-0.966,1.84-1.955,3.656-2.943,5.45       c-0.115,0.184-0.207,0.345-0.299,0.529c-0.023,0.046-0.069,0.115-0.092,0.161c-0.897,1.633-1.816,3.311-2.713,4.99       l-0.598-0.092c0.92-1.748,1.885-3.472,2.805-5.174c0.092-0.184,0.207-0.368,0.299-0.552c0.989-1.794,2-3.587,2.966-5.427       c0.092-0.184,0.184-0.368,0.276-0.529c0.736-1.426,1.472-2.828,2.161-4.277c0.092-0.184,0.184-0.391,0.276-0.598       c0.943-2.023,1.839-4.07,2.598-6.139c0-0.023,0.023-0.069,0.046-0.092l0.552,0.092c-0.023,0.069-0.046,0.115-0.069,0.184       c-0.736,2.001-1.587,3.955-2.483,5.886c-0.092,0.207-0.184,0.414-0.276,0.621"/>
				</g>
			</g>
			<g>
				<path style="fill:#D04D20;" d="M450.551,367.163L270.28,475.717l-32.444,19.545c-3.173,1.908-7.289,0.966-9.335-2.115      L39.652,206.46c-2.161-3.288-1.15-7.703,2.207-9.727L71.36,179.12L261.128,65.807L450.551,367.163z"/>
				<path style="opacity:0.48;fill:#351009;" d="M270.28,475.717l-32.444,19.545c-3.173,1.908-7.289,0.966-9.335-2.115      l-21.936-33.318l-3.817-5.748v-0.023L72.418,256.195l-3.794-5.771L39.652,206.46c-2.161-3.288-1.15-7.703,2.207-9.727      L71.36,179.12l32.881,49.046l3.863,5.749l132.008,196.827l3.84,5.725L270.28,475.717z"/>
				<g>
					<g>
						<path style="fill:#F8EEE5;" d="M108.124,271.936L108.124,271.936c3.605-2.704,8.737-1.853,11.277,1.869l68.8,100.816        c2.865,4.198,1.083,9.97-3.65,11.822l-2.747,1.075c-3.497,1.368-7.475,0.089-9.518-3.063l-66.053-101.89        C103.971,279.075,104.797,274.431,108.124,271.936z"/>
					</g>
					<g>
						<polygon style="fill:#FFC576;" points="108.104,233.914 72.418,256.195 68.624,250.424 104.242,228.166       "/>
					</g>
					<g>
						<polygon style="fill:#FFC576;" points="243.952,436.467 206.564,459.828 202.747,454.08 202.747,454.057 240.112,430.741               "/>
					</g>
				</g>
				<path style="fill:none;stroke:#FFC576;stroke-width:2.2994;stroke-miterlimit:10;" d="M111.43,195.964l160.596,240.894      c7.362-4.359,16.848-2.197,21.594,4.921l122.215-72.371c-4.926-7.672-2.502-17.901,5.343-22.546L264.814,103.337      c-7.455,4.422-17.072,2.146-21.755-5.147l-126.447,75.003C121.727,180.866,119.362,191.26,111.43,195.964z"/>
				<g>
					<g>
						<path style="fill:#FFC576;" d="M197.043,217.648c0.855-0.542,2.033-0.221,2.627,0.714l16.941,26.674        c0.618,0.973,0.383,2.137-0.473,2.678l-2.893,1.839c-0.856,0.542-1.966,0.236-2.585-0.737l-6.708-10.562l-9.208,5.847        l6.708,10.562c0.618,0.973,0.424,2.111-0.433,2.653l-2.892,1.839c-0.856,0.542-2.008,0.262-2.624-0.711l-16.941-26.674        c-0.596-0.935-0.386-2.139,0.47-2.681l2.892-1.839c0.856-0.542,1.993-0.195,2.587,0.74l6.248,9.838l9.208-5.847l-6.248-9.838        c-0.593-0.935-0.426-2.114,0.43-2.655L197.043,217.648z"/>
						<path style="fill:#FFC576;" d="M238.416,218.508c3.798,5.981,2.763,14.075-3.145,17.827        c-5.909,3.752-13.676,1.251-17.473-4.73l-5.334-8.397c-3.798-5.978-2.696-14.06,3.172-17.786        c5.867-3.726,13.648-1.289,17.446,4.689L238.416,218.508z M227.133,213.891c-1.59-2.501-4.958-3.754-7.483-2.149        c-2.486,1.579-2.826,5.185-1.236,7.686l5.334,8.397c1.561,2.46,5.026,3.775,7.512,2.196c2.526-1.605,2.797-5.229,1.208-7.732        L227.133,213.891z"/>
						<path style="fill:#FFC576;" d="M236.875,192.587c0.855-0.542,2.007-0.262,2.626,0.714l13.898,21.88l7.58-4.812        c0.855-0.544,1.991-0.193,2.585,0.74l1.859,2.928c0.618,0.973,0.424,2.108-0.433,2.653l-11.204,7.116        c-1.346,0.855-3.076,0.288-3.938-1.068l-16.295-25.655c-0.619-0.976-0.385-2.139,0.471-2.681L236.875,192.587z"/>
						<path style="fill:#FFC576;" d="M267.191,173.334c0.896-0.57,2.115-0.27,2.734,0.701c0.216,0.339,0.351,0.734,0.334,1.158        l1.217,18.392l7.515,11.831c0.618,0.973,0.383,2.137-0.473,2.678l-2.853,1.813c-0.855,0.542-2.006,0.262-2.625-0.711        l-7.514-11.831l-16.131-8.921c-0.392-0.167-0.688-0.457-0.904-0.796c-0.619-0.973-0.371-2.203,0.525-2.773l3.016-1.913        c0.611-0.39,1.288-0.406,1.925-0.031l10.367,5.968l-0.996-11.921c-0.064-0.734,0.236-1.34,0.848-1.731L267.191,173.334z"/>
						<path style="fill:#FFC576;" d="M232.865,308.533l-7.456,4.735c-1.346,0.855-3.079,0.288-3.939-1.068l-15.757-24.807        c-0.431-0.68-0.589-1.471-0.438-2.221c0.083-0.768,0.533-1.41,1.144-1.8l6.357-4.037c4.604-2.925,10.709-1.145,13.698,3.559        c1.158,1.823,1.583,3.755,1.333,5.881c3.292,0.051,5.913,2.016,7.69,4.818C238.701,298.636,237.836,305.377,232.865,308.533z         M216.355,285.69l-2.486,1.579l3.34,5.259l2.486-1.579c1.305-0.829,1.854-2.843,0.964-4.245        C219.718,285.223,217.782,284.784,216.355,285.69z M220.979,298.464l4.041,6.363l3.708-2.355        c1.875-1.192,2.046-3.264,0.86-5.128c-1.131-1.782-3.189-2.324-4.901-1.235L220.979,298.464z"/>
						<path style="fill:#FFC576;" d="M238.541,262.732c0.856-0.542,2.034-0.221,2.627,0.714l1.723,2.712        c0.62,0.976,0.384,2.139-0.471,2.681l-2.282,1.451l11.339,17.853l2.282-1.451c0.856-0.542,2.034-0.221,2.626,0.711        l1.723,2.714c0.62,0.976,0.385,2.139-0.47,2.681l-10.553,6.703c-0.855,0.544-2.007,0.262-2.627-0.714l-1.723-2.714        c-0.592-0.932-0.384-2.134,0.471-2.678l2.282-1.448l-11.339-17.853l-2.282,1.448c-0.855,0.544-2.006,0.262-2.626-0.714        l-1.723-2.712c-0.593-0.935-0.385-2.137,0.47-2.681L238.541,262.732z"/>
						<path style="fill:#FFC576;" d="M274.507,282.085l-7.457,4.736c-1.344,0.855-3.077,0.288-3.939-1.068l-15.755-24.807        c-0.431-0.681-0.591-1.471-0.439-2.221c0.083-0.768,0.533-1.412,1.145-1.8l6.356-4.037c4.604-2.925,10.709-1.145,13.698,3.559        c1.158,1.823,1.584,3.754,1.333,5.881c3.292,0.049,5.912,2.016,7.69,4.818C280.343,272.188,279.477,278.929,274.507,282.085z         M257.997,259.242l-2.486,1.579l3.34,5.259l2.486-1.579c1.303-0.829,1.854-2.843,0.964-4.245        C261.36,258.775,259.422,258.336,257.997,259.242z M262.621,272.016l4.041,6.364l3.708-2.357        c1.875-1.189,2.045-3.261,0.86-5.126c-1.131-1.782-3.19-2.324-4.901-1.238L262.621,272.016z"/>
						<path style="fill:#FFC576;" d="M274.055,240.413c0.856-0.544,2.008-0.262,2.627,0.711l13.898,21.882l7.578-4.812        c0.855-0.544,1.992-0.195,2.586,0.74l1.857,2.925c0.62,0.976,0.426,2.111-0.429,2.655l-11.206,7.116        c-1.344,0.855-3.078,0.288-3.939-1.068l-16.295-25.66c-0.619-0.971-0.384-2.134,0.471-2.676L274.055,240.413z"/>
						<path style="fill:#FFC576;" d="M299.624,233.041l3.178,5.005l6.235-3.96c0.855-0.542,2.004-0.262,2.599,0.67l1.803,2.84        c0.593,0.935,0.358,2.096-0.498,2.637l-6.234,3.96l3.879,6.107l8.639-5.485c0.855-0.545,2.031-0.221,2.627,0.714l1.857,2.925        c0.619,0.976,0.385,2.137-0.47,2.681l-12.265,7.789c-1.346,0.855-3.078,0.288-3.939-1.068l-15.756-24.807        c-0.431-0.683-0.591-1.471-0.439-2.221c0.085-0.768,0.534-1.412,1.145-1.8l12.265-7.789c0.855-0.544,2.007-0.262,2.626,0.711        l1.859,2.928c0.591,0.932,0.384,2.134-0.471,2.678L299.624,233.041z"/>
					</g>
					<g>
						
							<line style="fill:none;stroke:#FFC576;stroke-width:4.5988;stroke-miterlimit:10;" x1="302.381" y1="305.184" x2="337.162" y2="354.648"/>
						
							<line style="fill:none;stroke:#FFC576;stroke-width:4.5988;stroke-miterlimit:10;" x1="298.247" y1="328.903" x2="325.62" y2="309.655"/>
					</g>
				</g>
			</g>
			<g>
				
					<path style="fill:none;stroke:#C8BD8A;stroke-width:1.1497;stroke-linecap:round;stroke-linejoin:round;stroke-miterlimit:10;" d="      M382.929,307.205c0,0,31.26-32.449,55.934-89.771"/>
				<path style="fill:#C8BD8A;" d="M392.781,294.911c0,0,3.233-14.62,2.152-36.094c-1.081-21.473-4.983-40.819,3.077-42.195      s9.714,24.702,6.422,42.604C401.139,277.128,392.781,294.911,392.781,294.911z"/>
				<path style="fill:#C8BD8A;" d="M403.484,281.69c0,0,11.337-9.782,30.752-19.018c19.416-9.236,38.297-14.978,35.685-22.726      c-2.612-7.749-26.354,3.168-40.551,14.559C415.174,265.896,403.484,281.69,403.484,281.69z"/>
				<path style="fill:#C8BD8A;" d="M416.373,262.335c0,0,3.642-14.524,3.165-36.019c-0.477-21.495-3.835-40.942,4.261-42.092      c8.096-1.15,9.016,24.965,5.222,42.768C425.228,244.794,416.373,262.335,416.373,262.335z"/>
				<path style="fill:#C8BD8A;" d="M425.915,244.708c0,0,7.222-13.117,22.208-28.534s30.687-27.374,25.541-33.728      c-5.146-6.355-23.602,12.145-32.946,27.765C431.375,225.832,425.915,244.708,425.915,244.708z"/>
			</g>
			<g>
				
					<path style="fill:none;stroke:#C8BD8A;stroke-width:1.1497;stroke-linecap:round;stroke-linejoin:round;stroke-miterlimit:10;" d="      M211.052,451.783c0,0-32.648-31.052-90.126-55.36"/>
				<path style="fill:#C8BD8A;" d="M198.695,442.01c0,0-14.64-3.139-36.106-1.922c-21.466,1.218-40.786,5.244-42.214-2.808      c-1.428-8.051,24.64-9.871,42.562-6.693C180.859,433.766,198.695,442.01,198.695,442.01z"/>
				<path style="fill:#C8BD8A;" d="M185.406,431.391c0,0-9.854-11.274-19.213-30.63c-9.36-19.356-15.222-38.201-22.954-35.539      c-7.732,2.661,3.336,26.333,14.817,40.457S185.406,431.391,185.406,431.391z"/>
				<path style="fill:#C8BD8A;" d="M165.97,418.626c0,0-14.547-3.549-36.038-2.935c-21.492,0.614-40.917,4.096-42.118-3.992      c-1.201-8.088,24.908-9.175,42.733-5.495C148.372,409.884,165.97,418.626,165.97,418.626z"/>
				<path style="fill:#C8BD8A;" d="M148.282,409.197c0,0-13.162-7.138-28.675-22.025c-15.513-14.887-27.569-30.512-33.89-25.325      c-6.322,5.187,12.295,23.524,27.975,32.768C129.372,403.858,148.282,409.197,148.282,409.197z"/>
			</g>
		</g>
	</g>
</g>















</svg>
