<?xml version="1.0" encoding="UTF-8"?>
<!-- Generator: Adobe Illustrator 26.5.0, SVG Export Plug-In . SVG Version: 6.00 Build 0)  -->
<svg xmlns="http://www.w3.org/2000/svg" xmlns:xlink="http://www.w3.org/1999/xlink" version="1.1" id="Capa_1" x="0px" y="0px" viewBox="0 0 512 512" style="enable-background:new 0 0 512 512;" xml:space="preserve" width="512" height="512">
<g>
	<path style="fill:#FFFFFF;" d="M198.71,512c-1.742,0-3.5-0.262-5.22-0.802c-6.779-2.131-11.586-8.165-12.145-15.249l-1.029-13.037   c-2.916,0.126-5.54,0.189-7.897,0.189c-3.254,0-5.973-0.12-8.313-0.367c-15.369-1.616-27.658-5.444-37.564-11.702   c-9.018-5.701-15.478-14.965-18.001-25.689c-0.245-0.808-0.435-1.643-0.564-2.502c-0.055-0.37-0.099-0.733-0.135-1.094   c-0.104-0.611-0.183-1.15-0.242-1.693l-0.044-0.41c-0.096-0.42-0.177-0.845-0.241-1.276l-7.2-48.171l-4.812-32.339   c-11.573-26.917-17.439-55.451-17.439-84.853c0-7.541,0.442-15.395,1.314-23.379l-6.391-42.816c-3.034,0.52-6.2,0.784-9.433,0.784   c-13.587,0-26.535-4.443-35.523-12.189c-3.602-3.105-5.78-7.548-6.025-12.297c-0.245-4.751,1.463-9.394,4.727-12.853   c3.496-3.707,7.201-6.989,11.065-9.822c-3.598-2.567-7.01-5.411-10.206-8.515C10.094,135.114,0.319,111.636,0.569,87.499   c0.008-1.358,0.048-2.81,0.143-4.264c0.157-3.171,0.57-6.703,1.212-10.243c0.21-1.25,0.491-2.682,0.828-4.117   c3.502-15.71,11.404-30.32,22.805-42.056C42.356,9.526,64.859,0,88.92,0c0.805,0,1.613,0.011,2.417,0.034   c1.201,0.033,2.368,0.089,3.533,0.146c0.126,0.006,0.254,0.013,0.381,0.023c20.791,1.473,40.474,10.283,55.422,24.804   c2.504,2.433,4.846,4.99,7.022,7.666c1.611-2.251,3.385-4.32,5.304-6.157c3.249-3.112,7.569-4.839,12.049-4.839   c0.255,0,0.512,0.006,0.768,0.017c4.751,0.21,9.211,2.353,12.343,5.932c6.265,7.161,10.99,14.897,14.032,22.897l134.165-24.005   c1.019-0.183,2.047-0.272,3.068-0.272c3.669,0,7.273,1.16,10.277,3.354c3.841,2.806,6.367,7.062,6.992,11.777l3.611,27.23   c17.7,5.842,34.704,14.051,50.382,24.294c4.498-13.644,11.587-23.352,25.89-23.352c0.764,0,1.541,0.037,2.331,0.113   c6.923,0.675,13.05,4.527,16.814,10.569c7.468,11.987,4.222,31.905,0.03,46.861c4.198-1.344,8.051-2.007,11.611-2.007   c9.482,0,17.414,4.791,21.217,12.816c6.025,12.715-0.003,23.033-7.561,30.384c17.839,31.935,27.197,67.816,27.197,104.72   c0,19.322-2.566,38.44-7.636,56.945c7.086,12.871,10.855,27.509,10.855,42.462c0,24.672-10.395,48.382-28.519,65.049   c-0.886,0.814-1.766,1.591-2.647,2.366c-0.092,0.081-0.184,0.16-0.278,0.238c-15.938,13.431-36.194,20.829-57.039,20.829   c-2.241,0-4.476-0.085-6.7-0.252c0.038,1.029,0.04,2.053,0.003,3.065c-0.172,4.754-2.28,9.229-5.834,12.391   c-3.2,2.845-7.324,4.402-11.576,4.402c-0.469,0-0.94-0.018-1.412-0.057c-9.562-0.778-18.534-3.123-26.427-6.869   c-24.874,9.697-51.062,14.608-77.968,14.608c-12.334,0-24.633-1.062-36.771-3.168c0.119,6.204-3.077,12.029-8.424,15.253   c-2.766,1.667-5.881,2.501-8.994,2.501c-3.149,0-6.296-0.852-9.085-2.556l-8.746-5.346l-8.848,10.772   C208.807,509.733,203.834,512,198.71,512z"/>
	<g>
		<circle style="fill:#5F75CB;" cx="293.033" cy="274.116" r="197.756"/>
		<g>
			<g>
				
					<path style="fill:none;stroke:#C8BD8A;stroke-width:1.5754;stroke-linecap:round;stroke-linejoin:round;stroke-miterlimit:10;" d="      M363.067,286.068c0,0,13.5-60.247,60.414-131.745"/>
				<path style="fill:#C8BD8A;" d="M369.686,265.52c0,0,14.277-14.736,39.647-29.715c25.37-14.979,50.438-25.123,45.925-35.38      c-4.512-10.256-35.581,7.546-53.565,24.828C383.709,242.535,369.686,265.52,369.686,265.52z"/>
				<path style="fill:#C8BD8A;" d="M376.721,243.297c0,0,2.624-20.349-1.476-49.524c-4.1-29.176-11.792-55.101-0.959-57.965      c10.833-2.864,16.278,32.527,13.973,57.362C385.955,218.005,376.721,243.297,376.721,243.297z"/>
				<path style="fill:#C8BD8A;" d="M389.12,213.945c0,0,13.857-15.131,38.796-30.816c24.94-15.686,49.712-26.53,44.914-36.656      c-4.798-10.126-35.355,8.542-52.847,26.322C402.492,190.574,389.12,213.945,389.12,213.945z"/>
				<path style="fill:#C8BD8A;" d="M402.071,189.723c0,0,9.545-18.162,15.859-46.94c6.314-28.777,8.129-55.759,19.281-54.672      c11.152,1.086,3.935,36.159-6.872,58.638C419.533,169.228,402.071,189.723,402.071,189.723z"/>
			</g>
			<g>
				<path style="fill:#F8EEE5;" d="M372.495,431.745l-196.927,25.689l-22.387-4.213l-4.622-0.881l-15.816-2.956      c0,0-2.452-0.251-4.874-4.748c-0.22-0.409-0.472-0.88-0.692-1.415c-1.069-2.358-2.107-5.691-2.83-10.282      c-0.095-0.472-0.189-0.943-0.252-1.446c-0.44-2.987-0.755-6.477-0.912-10.565c0-0.503-0.031-1.006-0.031-1.509      c-0.063-2.17-0.063-4.465-0.032-6.949l52.981-38.014l191.047-6.414l1.352,16.004l0.126,1.509l0.88,10.565l0.126,1.478      l0.88,10.565l0.126,1.509l0.88,10.565l0.126,1.509L372.495,431.745z"/>
				<g>
					<g>
						<path style="fill:#351009;" d="M368.628,385.556l-245.443,35.373c0-0.503-0.031-1.006-0.031-1.509l245.349-35.373        L368.628,385.556z"/>
					</g>
					<g>
						<path style="fill:#351009;" d="M369.634,397.598L124.348,432.94c-0.095-0.472-0.189-0.943-0.252-1.446l245.411-35.373        L369.634,397.598z"/>
					</g>
					<g>
						<path style="fill:#351009;" d="M370.64,409.672l-242.77,34.965c-0.22-0.409-0.472-0.88-0.692-1.415l243.336-35.059        L370.64,409.672z"/>
					</g>
					<g>
						<polygon style="fill:#351009;" points="371.646,421.746 153.181,453.221 148.559,452.34 371.52,420.237       "/>
					</g>
				</g>
				<path style="fill:#D04D20;" d="M383.217,375.148l-230.225,30.845l-0.44,0.063c0,0-26.003,11.697-27.513,30.405      c-0.157,1.572-0.094,3.207,0.157,4.905l-2.089-48.704L94.026,129.46c-16.968-10.854-1.639-10.351,2.857-14.565l10.486-28.612      l0.252-0.032l231.797-41.473L383.217,375.148z"/>
				<path style="fill:#D04D20;" d="M124.312,433.739c0,0,15.922,25.823,79.075,17.795c63.153-8.028,177.15-25.689,177.15-25.689      l2.141,14.45L263.33,457.421c0,0-77.068,11.239-97.406,9.098c-13.125-1.382-22.824-4.52-30.084-9.106      c-6.26-3.955-10.134-10.783-10.93-18.145L124.312,433.739z"/>
				<polygon style="fill:#FFC576;" points="193.888,434.675 235.232,429.056 238.844,486.456 217.169,473.21 198.705,495.688           "/>
				<g>
					<g>
						<path style="fill:#351009;" d="M152.993,405.993l-0.44,0.063c0,0-26.003,11.697-27.513,30.405l-0.503,0.44l-7.2-48.171        l7.109-12.125l-9.09-1.238l-13.992-93.794l8.9-14.683l-10.975,0.628l-14.055-94.171l6.566-14.299l-8.892-1.202l-4.937-33.204        c-0.912-6.037,1.258-12.137,5.754-16.35l23.645-22.01l0.252-0.032l7.295,51.378l1.824,12.829l14.055,99.202l1.855,12.954        l14.307,100.806l1.761,12.451L152.993,405.993z"/>
						<g>
							<path style="fill:#FFC576;" d="M116.739,150.457c-11.98,5.219-22.859,13.08-31.506,22.89l-2.327-15.501         c9.307-8.647,20.249-15.533,32.009-20.218L116.739,150.457z"/>
						</g>
						<g>
							<path style="fill:#FFC576;" d="M148.716,375.871c-11.036,2.484-21.696,6.886-31.38,12.86l-1.981-13.363         c9.873-5.503,20.564-9.559,31.6-11.948L148.716,375.871z"/>
						</g>
						<g>
							<path style="fill:#FFC576;" d="M132.649,262.614c-11.099,5.062-21.633,11.477-31.286,18.96l-2.075-14.055         c9.842-7.075,20.407-13.049,31.506-17.859L132.649,262.614z"/>
						</g>
					</g>
					<g>
						<path style="fill:none;stroke:#FFC576;stroke-width:3.1443;stroke-miterlimit:10;" d="M131.687,111.883l35.756,264.008        c6.891-0.948,13.244,3.878,14.177,10.772l177.339-24.396c-0.959-6.888,3.853-13.246,10.743-14.194L332.028,77.504        c-7.017,1.238-13.66-3.594-14.643-10.651L141.965,97.809C142.871,104.499,138.335,110.71,131.687,111.883z"/>
						<g>
							<g>
								<path style="fill:#FFC576;" d="M194.509,126.461c1.187-0.239,2.364,0.623,2.629,1.921l7.513,37.029          c0.274,1.351-0.486,2.549-1.673,2.789l-4.016,0.817c-1.188,0.239-2.296-0.577-2.571-1.928l-2.974-14.662l-12.782,2.593          l2.975,14.662c0.273,1.351-0.43,2.538-1.617,2.777l-4.015,0.817c-1.188,0.239-2.354-0.566-2.626-1.916l-7.514-37.028          c-0.266-1.299,0.483-2.554,1.671-2.793l4.015-0.817c1.188-0.239,2.309,0.634,2.573,1.932l2.771,13.657l12.782-2.593          l-2.771-13.657c-0.263-1.297,0.427-2.542,1.615-2.781L194.509,126.461z"/>
								<path style="fill:#FFC576;" d="M240.341,145.11c1.684,8.302-2.932,16.899-11.133,18.562          c-8.202,1.663-15.806-4.45-17.489-12.752l-2.366-11.658c-1.686-8.299,3-16.853,11.145-18.505          c8.144-1.653,15.791,4.396,17.476,12.695L240.341,145.11z M229.716,135.13c-0.706-3.472-3.931-6.312-7.437-5.599          c-3.451,0.701-5.372,4.581-4.667,8.054l2.366,11.657c0.692,3.415,3.998,6.364,7.449,5.663          c3.507-0.712,5.358-4.643,4.655-8.118L229.716,135.13z"/>
								<path style="fill:#FFC576;" d="M249.703,115.506c1.187-0.24,2.353,0.566,2.627,1.92l6.166,30.374l10.521-2.134          c1.188-0.242,2.306,0.636,2.57,1.931l0.824,4.064c0.274,1.351-0.428,2.536-1.617,2.777l-15.553,3.156          c-1.868,0.38-3.559-0.994-3.941-2.877l-7.229-35.614c-0.274-1.354,0.484-2.554,1.672-2.793L249.703,115.506z"/>
								<path style="fill:#FFC576;" d="M291.785,106.968c1.245-0.253,2.477,0.603,2.753,1.952c0.096,0.471,0.077,0.97-0.122,1.436          l-6.504,21.058l3.334,16.424c0.274,1.351-0.486,2.549-1.673,2.789l-3.961,0.805c-1.186,0.239-2.352-0.565-2.627-1.916          l-3.332-16.423l-14.199-16.859c-0.366-0.354-0.573-0.805-0.669-1.276c-0.275-1.351,0.527-2.619,1.772-2.872l4.186-0.847          c0.849-0.174,1.612,0.098,2.163,0.789l9.025,11.096l3.984-13.737c0.242-0.848,0.837-1.396,1.686-1.571L291.785,106.968z"/>
								<g>
									<path style="fill:#FFC576;" d="M212.427,353.721l-10.429,1.668c-1.882,0.301-3.517-1.143-3.819-3.039l-5.553-34.699           c-0.151-0.952,0.05-1.895,0.571-2.646c0.455-0.804,1.253-1.296,2.109-1.435l8.891-1.422           c6.441-1.031,12.3,3.814,13.354,10.395c0.408,2.55-0.04,4.872-1.321,7.088c3.59,1.615,5.537,5.014,6.161,8.931           C223.522,345.618,219.379,352.609,212.427,353.721z M205.119,320.823l-3.477,0.557l1.176,7.356l3.477-0.557           c1.825-0.293,3.382-2.243,3.069-4.204C209.032,321.902,207.114,320.503,205.119,320.823z M204.146,337.037l1.423,8.9           l5.186-0.829c2.623-0.42,3.792-2.615,3.373-5.223c-0.398-2.492-2.401-4.062-4.796-3.677L204.146,337.037z"/>
									<path style="fill:#FFC576;" d="M240.348,306.123c1.197-0.189,2.337,0.721,2.546,2.028l0.608,3.793           c0.219,1.365-0.592,2.53-1.787,2.72l-3.192,0.513l3.995,24.971l3.192-0.512c1.197-0.189,2.338,0.721,2.546,2.024           l0.607,3.796c0.219,1.365-0.59,2.531-1.786,2.721l-14.761,2.361c-1.197,0.193-2.328-0.663-2.546-2.028l-0.607-3.796           c-0.208-1.304,0.589-2.525,1.786-2.718l3.191-0.509l-3.995-24.971l-3.191,0.51c-1.197,0.193-2.326-0.662-2.545-2.027           l-0.608-3.794c-0.209-1.307,0.589-2.528,1.786-2.721L240.348,306.123z"/>
									<path style="fill:#FFC576;" d="M270.672,344.403l-10.43,1.667c-1.881,0.302-3.514-1.141-3.819-3.038l-5.55-34.697           c-0.151-0.952,0.048-1.895,0.57-2.647c0.455-0.803,1.254-1.298,2.11-1.434l8.89-1.422           c6.441-1.031,12.3,3.814,13.354,10.395c0.408,2.55-0.038,4.872-1.322,7.088c3.592,1.613,5.536,5.013,6.162,8.931           C281.766,336.3,277.624,343.292,270.672,344.403z M263.363,311.505l-3.477,0.557l1.176,7.356l3.477-0.557           c1.824-0.293,3.382-2.243,3.069-4.204C267.276,312.584,265.357,311.185,263.363,311.505z M262.39,327.719l1.423,8.9           l5.188-0.832c2.621-0.418,3.79-2.612,3.372-5.22c-0.398-2.492-2.401-4.062-4.795-3.68L262.39,327.719z"/>
									<path style="fill:#FFC576;" d="M289.91,298.437c1.198-0.193,2.329,0.663,2.547,2.025l4.896,30.607l10.6-1.695           c1.197-0.193,2.279,0.729,2.489,2.037l0.653,4.09c0.219,1.365-0.532,2.52-1.728,2.712l-15.673,2.506           c-1.881,0.302-3.515-1.142-3.819-3.039l-5.74-35.889c-0.22-1.359,0.589-2.525,1.785-2.715L289.91,298.437z"/>
									<path style="fill:#FFC576;" d="M321.474,302.451l1.119,7l8.721-1.395c1.195-0.19,2.325,0.662,2.536,1.967l0.634,3.972           c0.209,1.307-0.599,2.471-1.796,2.66l-8.72,1.396l1.367,8.542l12.082-1.931c1.197-0.193,2.335,0.72,2.546,2.028           l0.654,4.091c0.217,1.365-0.589,2.528-1.785,2.721l-17.155,2.743c-1.882,0.302-3.515-1.142-3.819-3.038l-5.551-34.698           c-0.15-0.954,0.048-1.895,0.57-2.647c0.457-0.803,1.255-1.298,2.11-1.434l17.155-2.743           c1.197-0.193,2.327,0.663,2.546,2.024l0.655,4.095c0.207,1.303-0.589,2.525-1.786,2.717L321.474,302.451z"/>
								</g>
							</g>
							<g>
								<g>
									<path style="fill:#FFC576;" d="M260.91,283.706c-3.432-0.329-6.334-2.947-6.877-6.51l-13.39-87.602           c-0.644-4.207,2.245-8.14,6.454-8.784c4.206-0.627,8.142,2.249,8.782,6.456l13.39,87.602           c0.644,4.207-2.245,8.14-6.454,8.784C262.171,283.749,261.532,283.765,260.91,283.706z"/>
								</g>
								<g>
									<path style="fill:#FFC576;" d="M226.626,224.539c-3.432-0.329-6.334-2.947-6.877-6.51c-0.644-4.207,2.245-8.14,6.454-8.784           l48.48-7.408c4.205-0.639,8.14,2.247,8.783,6.454c0.644,4.207-2.245,8.14-6.454,8.783l-48.48,7.412           C227.886,224.583,227.248,224.599,226.626,224.539z"/>
								</g>
							</g>
						</g>
					</g>
				</g>
			</g>
			<g>
				<g>
					<g>
						<g>
							<path style="fill:#FFA7BE;" d="M494.008,373.522c0,20.658-8.804,39.272-22.89,52.227c-0.786,0.723-1.572,1.415-2.358,2.107         c-12.388,10.439-28.361,16.728-45.812,16.728c-39.241,0-71.029-31.82-71.029-71.061c0-7.201,1.069-14.118,3.081-20.658         c0.283-1.006,0.597-1.981,0.943-2.956c9.716-27.638,36.034-47.416,67.005-47.416c20.249,0,38.549,8.49,51.503,22.104         c0.755,0.786,1.509,1.604,2.233,2.452c1.824,2.075,3.522,4.308,5.062,6.603c0.629,0.912,1.226,1.824,1.792,2.767         C490.172,347.204,494.008,359.907,494.008,373.522z"/>
						</g>
						<g>
							<path style="fill:#5F75CB;" d="M471.117,425.748c-0.786,0.723-1.572,1.415-2.358,2.107c-3.27-2.987-7.075-5.345-11.225-6.76         c-11.382-3.962-24.871-1.006-33.581,7.295c-0.503,0.471-1.226,0.566-1.824,0.251c-0.566-0.283-0.912-0.943-0.817-1.603         c1.006-7.452,1.163-14.998,0.409-22.482c-1.006-9.873-3.522-16.696-7.955-21.507c-5.408-5.817-14.369-8.552-22.859-7.012         c-7.829,1.415-15.438,6.32-20.847,13.458c-0.44,0.566-1.258,0.786-1.949,0.44c-0.66-0.314-1.006-1.069-0.818-1.792         c2.767-10.753,1.478-21.004-3.49-28.11c-2.107-3.018-5.251-5.565-8.804-7.169c0.283-1.006,0.597-1.981,0.943-2.956         c2.327,0.975,4.465,2.327,6.352,3.899c1.447,1.195,2.673,2.484,3.71,3.93h0.031v0.031c0.126,0.157,0.252,0.283,0.346,0.44         c4.591,6.571,6.351,15.407,5.094,24.934c5.377-5.345,12.043-8.961,18.866-10.187c9.527-1.761,19.62,1.384,25.72,7.955         c3.459,3.71,5.88,8.615,7.389,14.873c0.377,1.603,0.692,3.27,0.943,5.031v0.031c0.189,1.1,0.314,2.232,0.44,3.396         c0.66,6.414,0.66,12.86,0.063,19.243c9.433-7.043,22.482-9.244,33.644-5.377         C463.194,419.743,467.502,422.384,471.117,425.748z"/>
						</g>
						<g>
							<path style="fill:#5F75CB;" d="M483.537,336.419c-7.735,1.603-15.187,6.257-20.092,13.175         c-7.169,10.156-9.15,24.62-5.282,38.675c0.157,0.629-0.063,1.289-0.566,1.666c-0.503,0.409-1.195,0.44-1.761,0.126         c-5.439-3.207-12.231-3.93-18.205-1.887c-5.974,2.044-10.911,6.76-13.237,12.64v0.031c-0.252,0.597-0.849,0.975-1.478,0.975         c-0.189,0-0.377-0.031-0.566-0.094c-0.817-0.314-1.195-1.226-0.88-2.044c0.535-1.352,1.195-2.673,1.981-3.899         c2.987-4.905,7.703-8.71,13.143-10.565c5.723-1.981,12.137-1.729,17.734,0.566c-2.956-13.898-0.597-27.89,6.572-38.014         c5.094-7.2,12.766-12.168,20.847-14.118C482.374,334.564,482.971,335.476,483.537,336.419z"/>
						</g>
						<g>
							<path style="fill:#5F75CB;" d="M476.683,327.049c-5.345,8.427-13.269,15.187-22.639,18.897         c-13.3,5.314-28.676,4.213-41.127-2.893c-1.446-0.818-3.05-1.824-4.496-3.207c-1.918,8.678-9.842,15.281-17.671,17.702         c-3.805,1.163-7.704,1.635-11.571,1.635c-4.465,0-8.93-0.597-13.143-1.415v-0.031c-1.352-0.252-2.704-0.535-4.025-0.849         c-0.849-0.189-1.383-1.006-1.195-1.855c0.189-0.692,0.786-1.195,1.478-1.226c0.126,0,0.283,0,0.409,0.032         c8.427,1.887,18.205,3.459,27.135,0.692c7.892-2.421,15.879-9.621,15.879-18.646c0-0.723,0.472-1.352,1.195-1.541         c0.692-0.157,1.415,0.157,1.761,0.786c1.289,2.421,3.773,4.056,5.785,5.188c11.477,6.54,26.192,7.578,38.423,2.704         c8.867-3.522,16.57-10.219,21.57-18.425C475.205,325.383,475.959,326.2,476.683,327.049z"/>
						</g>
					</g>
					
						<path style="fill:none;stroke:#5F75CB;stroke-width:3.1443;stroke-linecap:round;stroke-linejoin:round;stroke-miterlimit:10;" d="       M386.236,374.225c3.629-6.187,10.029-10.676,17.082-11.982c7.053-1.306,14.636,0.595,20.239,5.073       c7.506-9.362,21.196-13.196,32.473-9.094"/>
				</g>
				<path style="fill:#C8BD8A;" d="M398.84,464.188c-10.95-0.89-21.956-4.415-30.254-11.614c-8.298-7.2-13.491-18.416-11.838-29.278      c10.296,2.118,19.872,4.926,27.95,11.651C392.776,441.673,399.219,453.683,398.84,464.188z"/>
				<path style="fill:#C8BD8A;" d="M393.368,271.575c0.16,10.985-2.297,22.278-8.671,31.225      c-6.374,8.948-17.044,15.188-28.013,14.58c1.125-10.451,3.005-20.251,8.928-28.935      C371.535,279.762,382.875,272.201,393.368,271.575z"/>
			</g>
			<g>
				<g>
					<g>
						<g>
							<path style="fill:#FFA7BE;" d="M38.044,40.069c14.394-14.817,33.679-22.034,52.81-21.511c1.068,0.029,2.114,0.08,3.159,0.132         c16.16,1.145,31.999,7.764,44.516,19.923c28.146,27.342,28.776,72.316,1.433,100.463c-5.017,5.165-10.604,9.382-16.604,12.67         c-0.904,0.525-1.809,1.005-2.736,1.463c-26.227,13.054-58.885,8.903-81.1-12.678c-14.524-14.109-21.735-32.95-21.54-51.742         c0.006-1.09,0.035-2.202,0.108-3.315c0.138-2.759,0.476-5.543,0.97-8.263c0.184-1.092,0.391-2.162,0.642-3.234         C22.458,61.619,28.557,49.835,38.044,40.069z"/>
						</g>
						<g>
							<path style="fill:#5F75CB;" d="M90.854,18.559c1.068,0.029,2.114,0.08,3.159,0.132c0.264,4.421,1.35,8.764,3.341,12.67         c5.404,10.773,17.138,18.052,29.17,18.167c0.689,0.012,1.274,0.449,1.483,1.09c0.209,0.597-0.003,1.312-0.531,1.72         c-5.914,4.644-11.285,9.947-15.958,15.841c-6.158,7.783-9.108,14.43-9.28,20.969c-0.174,7.941,4.348,16.147,11.51,20.957         c6.602,4.44,15.477,6.224,24.33,4.873c0.71-0.099,1.45,0.312,1.705,1.043c0.254,0.686-0.023,1.468-0.663,1.855         c-9.477,5.785-15.695,14.036-17.083,22.595c-0.592,3.633-0.111,7.651,1.32,11.276c-0.904,0.525-1.809,1.005-2.736,1.463         c-0.99-2.32-1.581-4.78-1.839-7.222c-0.205-1.865-0.186-3.644,0.077-5.404l-0.023-0.022l0.022-0.023         c0.019-0.2,0.017-0.378,0.059-0.557c1.286-7.912,6.18-15.477,13.72-21.434c-7.581,0.088-14.882-1.964-20.63-5.838         c-8.061-5.376-13.109-14.664-12.906-23.628c0.104-5.071,1.786-10.276,5.063-15.816c0.847-1.413,1.782-2.827,2.829-4.266         l0.022-0.022c0.632-0.921,1.33-1.82,2.051-2.743c3.996-5.061,8.487-9.684,13.363-13.846         c-11.674-1.521-22.567-9.034-27.878-19.586C92.352,28.387,91.103,23.491,90.854,18.559z"/>
						</g>
						<g>
							<path style="fill:#5F75CB;" d="M19.702,73.978c6.665,4.24,15.253,6.094,23.591,4.55c12.219-2.289,23.718-11.284,30.737-24.06         c0.325-0.561,0.943-0.881,1.567-0.801c0.646,0.057,1.164,0.517,1.351,1.137c1.667,6.091,6.035,11.342,11.744,14.038         c5.709,2.697,12.536,2.754,18.302,0.157l0.022-0.022c0.597-0.253,1.288-0.108,1.739,0.331         c0.135,0.132,0.249,0.285,0.34,0.462c0.367,0.795,0.003,1.712-0.793,2.079c-1.325,0.597-2.719,1.085-4.137,1.416         c-5.56,1.437-11.594,0.88-16.789-1.58c-5.485-2.567-9.91-7.216-12.326-12.763c-7.564,12.028-19.005,20.421-31.202,22.688         c-8.671,1.615-17.635-0.167-24.79-4.399C19.243,76.119,19.45,75.049,19.702,73.978z"/>
						</g>
						<g>
							<path style="fill:#5F75CB;" d="M18.089,85.475c9.706-2.32,20.1-1.647,29.406,2.22c13.243,5.456,23.504,16.959,27.484,30.732         c0.468,1.594,0.917,3.433,0.99,5.433c7.423-4.888,17.707-4.103,25.01-0.385c3.54,1.817,6.665,4.195,9.439,6.89         c3.202,3.111,5.989,6.651,8.441,10.173l-0.022,0.023c0.794,1.123,1.567,2.268,2.295,3.413         c0.477,0.727,0.291,1.686-0.435,2.163c-0.617,0.365-1.396,0.309-1.915-0.15c-0.09-0.088-0.203-0.197-0.271-0.307         c-4.73-7.225-10.648-15.166-18.981-19.404c-7.348-3.763-18.093-4.163-24.381,2.31c-0.504,0.519-1.28,0.641-1.93,0.273         c-0.606-0.369-0.905-1.099-0.715-1.791c0.762-2.635,0.12-5.539-0.535-7.753c-3.675-12.688-13.507-23.686-25.676-28.712         c-8.814-3.652-19.006-4.216-28.31-1.813C17.988,87.7,18.016,86.588,18.089,85.475z"/>
						</g>
					</g>
					
						<path style="fill:none;stroke:#5F75CB;stroke-width:3.1443;stroke-linecap:round;stroke-linejoin:round;stroke-miterlimit:10;" d="       M115.836,114.659c-6.914,1.909-14.633,0.669-20.601-3.309c-5.969-3.978-10.083-10.625-10.982-17.741       c-11.907,1.485-24.399-5.304-29.629-16.104"/>
				</g>
				<path style="fill:#C8BD8A;" d="M175.042,40.208c7.234,8.269,12.673,18.465,13.608,29.412      c0.935,10.946-3.156,22.61-11.909,29.249c-5.91-8.693-10.821-17.379-11.929-27.832C163.703,60.583,167.45,47.478,175.042,40.208      z"/>
				<path style="fill:#C8BD8A;" d="M39.195,183.318c7.54-7.991,17.17-14.379,27.977-16.355c10.807-1.977,22.808,0.982,30.252,9.061      c-8.089,6.713-16.266,12.432-26.566,14.533C60.56,192.658,47.158,190.18,39.195,183.318z"/>
			</g>
		</g>
	</g>
</g>















</svg>
