<?xml version="1.0" encoding="UTF-8"?>
<!-- Generator: Adobe Illustrator 26.5.0, SVG Export Plug-In . SVG Version: 6.00 Build 0)  -->
<svg xmlns="http://www.w3.org/2000/svg" xmlns:xlink="http://www.w3.org/1999/xlink" version="1.1" id="Capa_1" x="0px" y="0px" viewBox="0 0 512 512" style="enable-background:new 0 0 512 512;" xml:space="preserve" width="512" height="512">
<g>
	<path style="fill:#FFFFFF;" d="M37.419,512c-9.616,0-17.412-7.797-17.412-17.412V481.99c0-7.204,4.374-13.385,10.611-16.035V353.14   c-0.03-0.082-2.555-7.662-2.555-7.662c-2.836-8.512,1.26-17.784,9.46-21.421l21.994-9.755c-0.581-6.017-1.712-13.97-3.9-23.123   c-1.161-4.862-2.46-9.641-3.717-14.265c-4.325-15.915-9.497-34.95-0.288-45.973c-0.815-7.495-1.226-14.977-1.226-22.362   C50.386,93.568,143.954,0,258.964,0c115.012,0,208.579,93.568,208.579,208.579c0,9.69-0.706,19.547-2.1,29.371   c2.745,10.047-0.602,22.386-4.587,37.081c-1.246,4.592-2.534,9.342-3.687,14.173c-1.304,5.454-2.229,10.493-2.885,14.926   l27.111,12.025c8.202,3.637,12.297,12.912,9.459,21.424l-2.47,7.41c-1.494,4.479-4.741,8.158-8.99,10.195v110.069   c7.276,2.086,12.6,8.791,12.6,16.738v12.597c0,9.616-7.797,17.412-17.412,17.412H37.419z"/>
	<g>
		
			<ellipse transform="matrix(0.7071 -0.7071 0.7071 0.7071 -69.7551 244.2346)" style="fill:#F8EEE5;" cx="259.94" cy="206.319" rx="191.166" ry="191.166"/>
		<g>
			
				<path style="fill:none;stroke:#C8BD8A;stroke-width:1.2688;stroke-linecap:round;stroke-linejoin:round;stroke-miterlimit:10;" d="     M70.29,339.796c0,0,27.353-41.525,42.531-108.704"/>
			<path style="fill:#C8BD8A;" d="M78.492,324.466c0,0,0.551-16.515-4.963-39.594c-5.515-23.078-13.66-43.277-5.194-46.4     c8.466-3.124,15.533,24.836,15.581,44.923C83.964,303.482,78.492,324.466,78.492,324.466z"/>
			<path style="fill:#C8BD8A;" d="M87.431,307.957c0,0,10.321-12.904,29.518-26.85c19.197-13.946,38.52-23.993,34.12-31.872     c-4.401-7.879-27.951,8.766-41.05,23.994C96.92,288.458,87.431,307.957,87.431,307.957z"/>
			<path style="fill:#C8BD8A;" d="M97.501,284.353c0,0,1.015-16.493-3.85-39.717c-4.864-23.224-12.439-43.643-3.889-46.528     c8.551-2.885,14.83,25.262,14.313,45.343C103.56,263.532,97.501,284.353,97.501,284.353z"/>
			<path style="fill:#C8BD8A;" d="M104.289,263.3c0,0,5.183-15.69,18.324-35.447c13.141-19.757,27.757-35.903,20.889-41.756     c-6.868-5.854-23.151,17.948-30.129,36.785C106.395,241.717,104.289,263.3,104.289,263.3z"/>
		</g>
		<g>
			
				<path style="fill:none;stroke:#C8BD8A;stroke-width:1.2688;stroke-linecap:round;stroke-linejoin:round;stroke-miterlimit:10;" d="     M444.446,337.82c0,0-27.353-41.525-42.531-108.704"/>
			<path style="fill:#C8BD8A;" d="M436.244,322.49c0,0-0.551-16.515,4.963-39.593c5.514-23.078,13.66-43.277,5.194-46.4     c-8.466-3.124-15.533,24.835-15.581,44.923C430.772,301.506,436.244,322.49,436.244,322.49z"/>
			<path style="fill:#C8BD8A;" d="M427.305,305.982c0,0-10.321-12.904-29.518-26.85c-19.197-13.946-38.52-23.993-34.12-31.872     c4.401-7.879,27.951,8.766,41.05,23.994C417.817,286.483,427.305,305.982,427.305,305.982z"/>
			<path style="fill:#C8BD8A;" d="M417.235,282.378c0,0-1.015-16.493,3.85-39.717c4.864-23.224,12.439-43.643,3.889-46.528     c-8.551-2.885-14.83,25.262-14.314,45.343C411.176,261.556,417.235,282.378,417.235,282.378z"/>
			<path style="fill:#C8BD8A;" d="M410.448,261.324c0,0-5.183-15.691-18.324-35.448c-13.141-19.757-27.757-35.903-20.889-41.756     c6.868-5.854,23.15,17.949,30.128,36.785C408.341,239.742,410.448,261.324,410.448,261.324z"/>
		</g>
		<g>
			<g>
				<path style="fill:#FFC576;" d="M462.956,331.3v152.126c0,0-63.729,0.145-141.157,0.406c-0.725,0-1.451,0-2.177,0.029      c-8.445,0.029-17.064,0.058-25.77,0.087c-22.897,0.058-46.462,0.145-69.476,0.232c-7.778,0.029-15.526,0.058-23.13,0.087h-2.176      c-3.395,0.029-6.762,0.029-10.099,0.058c-12.508,0.319-20.431,0.667-20.431,1.074v-0.987h-0.987      c-6.094,0.029-12.073,0.058-17.877,0.087c-57.954,0.261-100.673,0.581-100.673,0.9v-142.26l117.998-54.675l0.551-0.232      l0.987-0.464V156.421l94.869-52.353l89.877,52.353v127.082L462.956,331.3z"/>
				<polygon style="opacity:0.37;fill:#351009;" points="353.287,156.421 353.287,168.436 262.916,115.909 168.541,170.235       168.541,156.421 263.41,104.068     "/>
				<polygon style="fill:#351009;" points="145.833,157.416 152.254,165.32 262.903,106.043 368.613,164.826 377.998,158.898       261.422,93.694     "/>
				<g>
					
						<line style="fill:none;stroke:#351009;stroke-width:5.8041;stroke-miterlimit:10;" x1="261.422" y1="32.565" x2="261.422" y2="97.152"/>
					
						<line style="fill:none;stroke:#351009;stroke-width:5.8041;stroke-miterlimit:10;" x1="247.59" y1="47.261" x2="276.735" y2="47.261"/>
				</g>
				<path style="opacity:0.37;fill:#351009;" d="M167.554,288.233v196.18c-6.094,0.029-12.073,0.058-17.877,0.087l17.326-196.035      L167.554,288.233z"/>
				<path style="opacity:0.37;fill:#351009;" d="M354.181,283.749v200.663c6.095,0.03,12.073,0.059,17.877,0.089l-17.325-200.514      L354.181,283.749z"/>
				<g>
					<g>
						<g>
							<path style="fill:#D04D20;" d="M266.437,169.157c-0.989-0.265-1.994-0.492-3.028-0.637c-1.132-0.145-2.293-0.232-3.482-0.232         c-13.901,0-25.19,11.289-25.19,25.19v55.313h31.7V169.157z"/>
							<g>
								<path style="fill:#351009;" d="M285.146,193.478v55.313h-43.473v-55.313c0-12.74,9.432-23.275,21.736-24.958          c5.572,0.783,10.564,3.366,14.336,7.139C282.331,180.215,285.146,186.542,285.146,193.478z"/>
								<rect x="224.868" y="245.343" style="fill:#F8EEE5;" width="69.156" height="8.398"/>
							</g>
						</g>
						<g>
							<path style="fill:#D04D20;" d="M113.927,348.133c-0.393-0.089-0.781-0.192-1.18-0.259c-1.132-0.175-2.293-0.279-3.482-0.279         c-13.901,0-25.19,13.576-25.19,30.293v66.519h29.852V348.133z"/>
							<path style="fill:#351009;" d="M134.484,377.887v66.519H91.01v-66.519c0-15.321,9.432-27.989,21.736-30.013         c5.572,0.942,10.564,4.048,14.336,8.585C131.668,361.938,134.484,369.546,134.484,377.887z"/>
							<rect x="77.171" y="441.943" style="fill:#F8EEE5;" width="61.252" height="8.398"/>
						</g>
						<g>
							<path style="fill:#D04D20;" d="M414.182,348.224c-0.528-0.131-1.057-0.26-1.596-0.351c-1.132-0.175-2.292-0.279-3.482-0.279         c-13.901,0-25.19,13.576-25.19,30.293v66.519h30.268V348.224z"/>
							<path style="fill:#351009;" d="M434.323,377.887v66.519H390.85v-66.519c0-15.321,9.432-27.989,21.736-30.013         c5.572,0.942,10.564,4.048,14.336,8.585C431.508,361.938,434.323,369.546,434.323,377.887z"/>
							<rect x="377.01" y="441.943" style="fill:#F8EEE5;" width="61.252" height="8.398"/>
						</g>
					</g>
					<g>
						<g>
							<g>
								<path style="fill:#351009;" d="M323.205,378.53l-60.276-71.449c-0.203-0.261-0.493-0.406-0.812-0.406          c-0.29-0.029-0.639,0.145-0.842,0.377l-60.247,68.895c-0.174,0.203-0.29,0.464-0.29,0.725v109.263h2.177V377.079          l59.173-67.647l59.202,70.201v105.897c0.725-0.029,1.451-0.029,2.177-0.029V379.226          C323.466,378.965,323.35,378.704,323.205,378.53z"/>
							</g>
							<polygon style="fill:#351009;" points="188.499,382.851 197.391,382.851 262.101,307.768 326.317,383.345 335.208,383.345          261.113,299.371        "/>
						</g>
						<g>
							<path style="fill:#D04D20;" d="M293.853,400.834v83.115c-10.999,0.029-22.143,0.058-33.316,0.116h-2.176         c-11.376,0.029-22.752,0.087-33.983,0.116v-83.348c0-20.111,14.685-36.769,33.983-39.787         c0.261-0.058,0.493-0.087,0.754-0.116c0.493,0.058,0.958,0.145,1.422,0.232c8.329,1.451,15.787,5.456,21.505,11.173         C289.354,379.62,293.853,389.748,293.853,400.834z"/>
							<g>
								<path style="fill:#351009;" d="M260.537,361.162v122.903h-2.176V361.046c0.261-0.058,0.493-0.087,0.754-0.116          C259.608,360.988,260.072,361.076,260.537,361.162z"/>
							</g>
						</g>
					</g>
				</g>
				<g>
					<path style="fill:#351009;" d="M352.806,275.475l122.504,54.337l-2.47,7.41L353.3,286.836       C353.3,286.836,352.806,274.487,352.806,275.475z"/>
					<path style="fill:#351009;" d="M168.061,283.378L45.557,337.715l2.47,7.41l119.541-50.385       C167.567,294.74,168.061,282.39,168.061,283.378z"/>
				</g>
			</g>
			<rect x="38.394" y="479.731" style="fill:#351009;" width="437.163" height="12.596"/>
		</g>
	</g>
</g>















</svg>
