<?xml version="1.0" encoding="UTF-8"?>
<!-- Generator: Adobe Illustrator 26.5.0, SVG Export Plug-In . SVG Version: 6.00 Build 0)  -->
<svg xmlns="http://www.w3.org/2000/svg" xmlns:xlink="http://www.w3.org/1999/xlink" version="1.1" id="Capa_1" x="0px" y="0px" viewBox="0 0 512 512" style="enable-background:new 0 0 512 512;" xml:space="preserve" width="512" height="512">
<g>
	<path style="fill:#FFFFFF;" d="M259.051,512c-35.608,0-86.545-5.759-126.99-33.194c-4.173-2.831-6.446-7.731-5.917-12.746   c0.051-0.478,5.004-48.21,0.639-80.451c-1.005-7.387-2.168-15.107-3.292-22.572c-3.378-22.431-6.591-43.772-6.075-58.768   c-1.157-2.965-1.372-6.322-0.392-9.599l9.798-32.633c-21.782-28.358-33.697-63.282-33.697-99.163   C93.125,73.065,166.191,0,256.001,0c89.809,0,162.874,73.065,162.874,162.874c0,49.227-21.618,94.766-59.529,125.861   c-0.163,1.045-0.345,2.067-0.538,3.059c10.897,5.867,20.019,16.104,19.757,31.254c0.052,3.275-0.347,6.637-1.19,9.997   c-0.975,3.951-3.064,10.422-6.763,20.932c-0.371,1.055-0.867,2.052-1.472,2.971c-17.081,47.663-54.707,142.532-55.093,143.506   c-1.763,4.443-5.717,7.64-10.429,8.434C302.864,509.014,284.847,512,259.051,512z"/>
	<g>
		<circle style="fill:#5F75CB;" cx="254.45" cy="161.9" r="149.213"/>
		<g>
			<path style="fill:#FF9181;" d="M362.573,327.586c-0.933,3.78-3.233,10.724-6.398,19.718     c-16.394,46.382-56.377,147.137-56.377,147.137s-96.497,16.257-161.618-27.915c0,0,5.237-49.41,0.592-83.723     c-4.668-34.291-12.227-72.658-8.152-87.776c3.529-13.047,32.196-109.886,39.938-135.957c1.161-3.916,5.465-5.966,9.199-4.349     c7.878,3.393,19.263,11.977,18.876,33.334c-0.569,32.561-8.129,68.035-4.053,86.638l5.214,4.053l93.4-159.068     c1.73-2.914,5.328-4.19,8.47-2.869c6.057,2.55,13.912,9.632,8.584,29.395c-7.992,29.76-24.454,60.635-24.955,61.592     c0.751-0.342,19.377-9.062,30.784,1.184c11.612,10.474,6.398,44.196,6.398,44.196s11.043-3.484,19.172,9.29     c8.152,12.796-1.161,36.636-1.161,36.636S368.402,304.338,362.573,327.586z"/>
			<path style="opacity:0.5;fill:#D04D20;" d="M362.573,327.586c-0.933,3.78-3.233,10.724-6.398,19.718     c-16.394,46.382-56.377,147.137-56.377,147.137s-96.497,16.257-161.618-27.915c0,0,5.237-49.41,0.592-83.723     c-4.668-34.291-12.227-72.658-8.152-87.776c3.529-13.047,32.196-109.886,39.938-135.957c1.161-3.916,5.465-5.966,9.199-4.349     c7.878,3.393,19.263,11.977,18.876,33.334c-0.569,32.561-8.129,68.035-4.053,86.638l5.214,4.053l93.4-159.068     c1.73-2.914,5.328-4.19,8.47-2.869c6.057,2.55,13.912,9.632,8.584,29.395c-7.992,29.76-24.454,60.635-24.955,61.592     c0.751-0.342,19.377-9.062,30.784,1.184c11.612,10.474,6.398,44.196,6.398,44.196s11.043-3.484,19.172,9.29     c8.152,12.796-1.161,36.636-1.161,36.636S368.402,304.338,362.573,327.586z"/>
			<g>
				<path style="fill:#351009;" d="M272.142,284.878c-0.331,0-0.66-0.145-0.885-0.42c-5.348-6.593-14.399-9.332-21.672-11.536      c-5.618-1.701-11.427-3.46-17.323-3.927c-0.626-0.049-1.094-0.596-1.045-1.223c0.051-0.627,0.584-1.096,1.225-1.045      c6.14,0.485,12.07,2.279,17.803,4.016c7.57,2.292,16.992,5.145,22.779,12.279c0.396,0.489,0.321,1.205-0.167,1.603      C272.647,284.796,272.393,284.878,272.142,284.878z"/>
			</g>
			<g>
				<g>
					
						<rect x="236.669" y="51.906" transform="matrix(-0.9806 0.1961 -0.1961 -0.9806 530.874 308.2255)" style="fill:#D04D20;" width="27.011" height="256.987"/>
					<path style="fill:#D04D20;" d="M325.687,126.852l-61.819,12.364l-0.205,0.319l-1.435,0.273l-6.148,1.229c0,0,0,0,0,0.023       l-1.434,0.273l-6.239,1.252l-1.412,0.273l-9.609,1.936l-0.228,0.023l-1.412,0.296l-6.416,0.962l-83.245,16.645l-5.3-26.476       l7.787-1.548l20.528-3.79l1.594-0.319l21.836-4.372l1.435-0.296l12.728-2.527l1.412-0.296l16.189-3.233l0.478-0.091       l1.389-0.273l0.569-0.114l1.457-0.296l13.958-2.801l1.434-0.273l3.711-0.751l1.412-0.273l2.072-0.433l5.078-1.002l1.412-0.296       l12.569-2.505l1.435-0.296l15.392-3.074l1.389-0.273l15.893-3.165l1.89-0.387l13.32-2.664l3.757,14.869l0.546,2.163       L325.687,126.852z"/>
				</g>
				<g>
					<polygon style="fill:#351009;" points="323.456,117.926 325.687,126.852 320.04,127.967 318.537,128.286 306.697,130.631        305.126,130.973 293.4,133.295 291.988,133.591 280.626,135.868 279.146,136.141 263.822,139.215 263.868,139.489        264.3,141.606 266.509,152.649 272.657,183.456 273.112,185.551 278.6,212.966 280.512,222.529 296.36,301.903        288.664,303.429 288.55,303.452 287.207,303.725 284.816,304.203 284.201,304.34 274.433,306.298 272.884,306.617        271.04,306.958 269.879,307.209 257.652,246.095 257.538,245.458 249.295,204.199 249.136,203.539 239.846,157.089        238.548,150.6 238.115,148.369 237.728,146.502 237.387,144.794 237.318,144.498 237.068,144.543 236.157,144.748        235.656,144.839 235.497,144.862 229.531,146.069 227.459,146.502 225.911,146.775 219.217,148.118 217.805,148.414        207.741,150.418 205.623,150.851 185.176,154.926 183.081,155.359 165.367,158.911 162.498,159.48 154.096,161.165        152.867,155.063 152.73,154.38 152.434,152.968 150.794,144.657 150.658,144.065 148.836,134.958 148.791,134.661        169.169,130.586 170.763,130.267 192.554,125.872 193.965,125.622 204.849,123.436 206.58,123.117 207.991,122.821        222.564,119.907 223.179,119.793 224.226,119.588 224.681,119.497 226.07,119.224 226.64,119.087 228.097,118.814        232.059,118.017 219.536,55.492 219.467,55.196 232.173,52.646 233.607,52.35 233.994,52.282 235.451,52.008 242.419,50.619        243.034,50.483 245.675,49.936 245.971,49.891 246.631,53.238 250.889,74.391 254.418,92.196 258.517,112.712 269.788,110.457        271.222,110.207 286.569,107.11 287.981,106.86 289.233,106.587 291.442,106.108 303.646,103.695 305.513,103.308        319.084,100.598 319.152,100.894 322.909,115.763      "/>
					<g>
						<path style="fill:#D04D20;" d="M271.268,110.457c-0.023-0.091-0.023-0.159-0.046-0.25l-1.434,0.25        c0.023,0.091,0.023,0.205,0.046,0.296c1.343,8.698,5.26,17.123,9.313,25.388l1.48-0.273        C276.528,127.58,272.566,119.087,271.268,110.457z M291.897,125.827c-0.205-1.207-0.41-2.413-0.592-3.643        c-0.774-4.964-1.639-10.223-3.256-15.073c-0.023-0.091-0.046-0.159-0.068-0.25l-1.412,0.25        c0.023,0.091,0.068,0.182,0.091,0.273c1.548,4.69,2.391,9.905,3.21,15.028c0.182,1.207,0.387,2.436,0.592,3.643        c0.41,2.527,0.934,5.032,1.526,7.537l1.412-0.296C292.831,130.814,292.284,128.309,291.897,125.827z M245.971,49.891        l-0.296,0.046c0.341,1.093,0.66,2.186,0.956,3.302L245.971,49.891z M264.3,141.606c-0.228-0.683-0.433-1.366-0.638-2.072        c-2.641-8.607-4.85-17.35-6.398-26.276c-0.137-0.729-0.273-1.457-0.387-2.186c-1.047-6.239-1.776-12.637-2.459-18.876        l-3.529-17.806c0.683,5.146,1.252,10.292,1.799,15.347c0.774,7.104,1.571,14.436,2.755,21.586        c0.114,0.751,0.25,1.503,0.41,2.231c1.571,8.926,3.757,17.669,6.375,26.253c1.321,4.326,2.755,8.607,4.281,12.842        L264.3,141.606z M288.277,301.995c0-0.046-0.023-0.068-0.023-0.114c0-0.046-0.023-0.068-0.023-0.114        c-2.345-8.448-4.645-16.941-6.899-25.206c-11.84-43.763-23.976-88.596-32.925-133.976c-1.753-8.835-3.37-17.692-4.827-26.572        c-1.662-9.973-3.142-19.969-4.394-29.965l-0.364-3.074c2.459,10.884,5.465,21.608,8.425,32.128        c0.023,0.046,0.023,0.114,0.045,0.159c2.414,8.652,4.85,17.35,7.355,26.071c1.548,5.465,3.142,10.952,4.782,16.44        c0,0.023,0,0.023,0,0.045c0,0.023,0.023,0.068,0.023,0.091c6.353,21.654,13.184,43.353,21.062,64.62l-1.913-9.563        c-8.402-23.726-15.665-47.907-22.519-71.906c0-0.023,0-0.023,0-0.023c-0.023-0.046-0.023-0.091-0.046-0.137        c-2.482-8.675-4.895-17.327-7.332-25.912c-0.023-0.091-0.045-0.182-0.068-0.273c-4.622-16.553-9.427-33.676-12.091-50.958        c-0.547-3.78-1.048-7.628-1.093-11.453v-0.296l-1.457,0.273V52.6c0,0.455,0.023,0.911,0.046,1.389        c-0.114-0.433-0.228-0.888-0.342-1.321c-0.046-0.114-0.068-0.205-0.091-0.319l-1.434,0.296        c0.023,0.091,0.045,0.205,0.068,0.296c2.573,9.563,3.825,19.627,5.055,29.486l0.478,3.78        c1.252,10.041,2.732,20.083,4.372,30.078c1.48,8.88,3.097,17.737,4.85,26.572c8.948,45.448,21.107,90.281,32.97,134.089        c2.391,8.789,4.804,17.783,7.241,26.777l1.343-0.273l0.114-0.023C288.527,302.951,288.39,302.473,288.277,301.995z         M169.169,130.586c-0.023,0.091-0.045,0.205-0.068,0.296v0.023c-0.546,2.641-1.116,5.374-2.095,7.901        c-2.55,6.603-8.06,11.635-14.572,14.162l0.296,1.412c6.99-2.664,12.887-8.015,15.62-15.051        c1.002-2.641,1.617-5.442,2.209-8.151c0.023-0.182,0.068-0.387,0.137-0.592c0-0.114,0.045-0.205,0.068-0.319L169.169,130.586z         M192.554,125.872c0,0.114,0,0.228-0.023,0.341c-0.023,0.911-0.159,1.799-0.387,2.641        c-1.822,6.694-7.673,11.703-12.364,15.757l-17.282,14.868l2.869-0.569l15.369-13.206c4.827-4.167,10.861-9.335,12.797-16.462        c0.296-1.07,0.433-2.186,0.433-3.324v-0.296L192.554,125.872z M211.931,138.305c-0.683-2.072-2.345-3.643-4.622-4.463        c-3.074-1.07-6.831-0.66-9.563,1.093c-4.053,2.527-6.398,6.763-8.698,10.884l-0.865,1.526        c-1.571,2.778-3.256,5.442-5.101,8.015l2.095-0.433c1.525-2.231,2.96-4.531,4.303-6.876l0.865-1.526        c2.186-3.939,4.463-8.038,8.151-10.383c2.345-1.48,5.692-1.867,8.334-0.933c1.298,0.455,3.006,1.48,3.734,3.552        c1.252,3.711-1.457,7.377-4.076,10.929c-0.296,0.41-0.592,0.774-0.865,1.161l2.118-0.433        C210.428,146.775,213.411,142.676,211.931,138.305z M217.851,142.699c-1.366-3.871-3.484-7.696-5.533-11.385        c-1.525-2.778-3.028-5.533-4.212-8.22c-0.046-0.091-0.068-0.182-0.114-0.273l-1.412,0.296        c0.046,0.091,0.068,0.182,0.114,0.273c1.207,2.914,2.778,5.783,4.372,8.63c2.026,3.643,4.076,7.423,5.396,11.18        c0.615,1.685,1.07,3.438,1.343,5.214l1.412-0.296C218.943,146.297,218.488,144.475,217.851,142.699z M226.161,119.497        c-0.023-0.091-0.068-0.182-0.091-0.273l-1.389,0.273c0.023,0.091,0.068,0.182,0.091,0.273        c1.525,4.713,2.095,9.472,2.209,13.525v0.023c0.046,2.027,0,3.871-0.114,5.442c-0.182,2.687-0.524,5.351-0.956,8.015        l1.548-0.273c0.341-2.3,0.615-4.622,0.774-6.922c0.023-0.251,0.046-0.478,0.068-0.706        C228.598,134.07,228.507,126.715,226.161,119.497z M273.021,273.328c-7.468-42.829-20.265-83.382-35.293-126.826        c-0.182-0.592-0.387-1.138-0.569-1.685c-0.023-0.091-0.068-0.182-0.091-0.273c-1.867-5.351-3.757-10.747-5.67-16.212        c-1.093-3.074-2.14-6.125-3.21-9.244c-0.023-0.091-0.068-0.182-0.091-0.273l-1.457,0.273c0.046,0.091,0.068,0.205,0.091,0.296        c1.116,3.165,2.231,6.284,3.324,9.404c1.89,5.419,3.78,10.747,5.601,16.053c0.023,0.091,0.068,0.182,0.091,0.273        c1.389,4.03,2.755,8.015,4.099,11.977c13.502,39.642,24.887,77.143,31.741,116.489c1.822,10.337,3.484,22.064,1.298,33.038        l1.548-0.319C276.482,295.232,274.843,283.62,273.021,273.328z M312.822,118.336c-2.527-2.414-6.558-4.486-9.54-2.277        c-2.231,1.639-2.459,4.782-1.935,7.173c0.638,2.892,2.072,5.396,3.78,7.742l1.571-0.342c-1.799-2.368-3.302-4.827-3.917-7.696        c-0.433-1.958-0.319-4.508,1.344-5.692c2.14-1.571,5.396-0.068,7.673,2.14c2.687,2.573,4.827,5.647,6.74,8.903l1.503-0.319        C318.013,124.483,315.737,121.159,312.822,118.336z M322.909,115.763c-1.617-1.116-3.233-2.231-4.827-3.324        c-4.144-2.846-8.334-5.67-12.25-8.88c-0.114-0.068-0.205-0.159-0.319-0.25l-1.867,0.387c0.091,0.091,0.205,0.159,0.296,0.251        c4.235,3.506,8.812,6.603,13.343,9.722c2.026,1.389,4.121,2.801,6.171,4.258L322.909,115.763z"/>
					</g>
				</g>
			</g>
			<path style="fill:#FF9181;" d="M362.573,328.749c-0.933,3.78-3.233,10.725-6.398,19.718c-8.789-3.484-27.756-10.815-30.42-10.223     c-3.484,0.774-24.409,11.248-32.947,6.967c0,0-13.889-8.038-13.707-21.654c0,0-23.658,0.501-20.675-24.386l3.393-3.415     l37.202-30.763l-13.954-22.449c-17.054-0.751-17.829-12.819-17.829-12.819c-3.484-13.184,19.126-21.039,19.126-21.039     l0.478-0.387c4.805-1.935,19.605-6.808,29.236,1.844c11.612,10.474,6.398,44.196,6.398,44.196s11.043-3.484,19.172,9.29     c8.152,12.797-1.161,36.636-1.161,36.636S368.402,305.501,362.573,328.749z"/>
			<path style="opacity:0.5;fill:#D04D20;" d="M362.573,328.749c-0.933,3.78-3.233,10.725-6.398,19.718     c-8.789-3.484-27.756-10.815-30.42-10.223c-3.484,0.774-24.409,11.248-32.947,6.967c0,0-13.889-8.038-13.707-21.654     c0,0-23.658,0.501-20.675-24.386l3.393-3.415l37.202-30.763l-13.954-22.449c-17.054-0.751-17.829-12.819-17.829-12.819     c-3.484-13.184,19.126-21.039,19.126-21.039l0.478-0.387c4.805-1.935,19.605-6.808,29.236,1.844     c11.612,10.474,6.398,44.196,6.398,44.196s11.043-3.484,19.172,9.29c8.152,12.797-1.161,36.636-1.161,36.636     S368.402,305.501,362.573,328.749z"/>
			<g>
				<g>
					<path style="fill:#351009;" d="M240.884,375.038c-0.57,0-1.063-0.429-1.13-1.009c-0.015-0.133-1.692-13.924-13.129-48.997       c-11.345-34.79-32.438-48.087-32.65-48.218c-0.335-0.204-0.54-0.569-0.542-0.963c-0.002-0.302-0.186-30.45,0.582-46.955       c0.179-3.849,0.772-8.576,1.4-13.584c2.155-17.184,4.836-38.57-4.986-49.553c-6.625-7.402-11.249-8.992-13.961-9.021       c-1.955-0.013-3.16,0.785-3.566,1.127l-42.158,140.397c-0.18,0.603-0.808,0.945-1.419,0.763       c-0.601-0.18-0.943-0.814-0.763-1.416l42.245-140.686c0.048-0.16,0.13-0.305,0.24-0.429c0.073-0.082,1.841-2.028,5.327-2.032       c0.006,0,0.011,0,0.016,0c4.634,0,9.927,3.291,15.735,9.782c10.515,11.752,7.761,33.71,5.549,51.354       c-0.622,4.961-1.21,9.646-1.384,13.406c-0.705,15.138-0.606,41.837-0.584,46.219c3.503,2.341,22.344,16.165,33.085,49.103       c11.528,35.359,13.161,48.888,13.225,49.446c0.072,0.625-0.377,1.187-1.001,1.261       C240.971,375.035,240.928,375.038,240.884,375.038z"/>
				</g>
				<g>
					<path style="fill:#351009;" d="M198.641,279.697c-0.269,0-0.539-0.096-0.756-0.287c-6.772-6.019-20.894-12.541-21.036-12.608       c-0.57-0.262-0.822-0.938-0.558-1.51c0.261-0.572,0.935-0.823,1.51-0.558c0.591,0.271,14.574,6.731,21.596,12.972       c0.47,0.418,0.513,1.139,0.095,1.608C199.266,279.568,198.954,279.697,198.641,279.697z"/>
				</g>
				<g>
					<path style="fill:#351009;" d="M288.027,244.673c-2.251,0-4.613-0.193-7.047-0.654c-12.122-2.292-14.628-12.792-15.143-17.202       c-0.143-1.234-0.016-2.395,0.382-3.449c4.295-11.42,18.153-15.318,18.741-15.478c0.602-0.156,1.232,0.191,1.396,0.798       c0.166,0.607-0.191,1.232-0.797,1.399c-0.132,0.035-13.328,3.762-17.211,14.082c-0.268,0.714-0.352,1.514-0.251,2.386       c0.457,3.907,2.667,13.215,13.304,15.227c13.778,2.604,25.454-4.058,25.571-4.129c0.548-0.313,1.243-0.131,1.556,0.414       c0.316,0.543,0.13,1.241-0.414,1.557C307.696,239.868,299.264,244.671,288.027,244.673z"/>
				</g>
				<g>
					<path style="fill:#351009;" d="M277.511,324.518c-1.985,0-4.163-0.209-6.603-0.658c-11.345-2.09-14.699-12.977-15.688-19.283       c-0.388-2.475,0.377-4.932,2.1-6.74c3.372-3.54,10.327-10.177,24.312-21.709c22.037-18.171,39.817-22.714,40.563-22.899       c0.61-0.149,1.226,0.22,1.379,0.832c0.151,0.609-0.221,1.227-0.832,1.379c-0.178,0.044-18.058,4.632-39.662,22.445       c-14.629,12.063-21.385,18.663-24.111,21.522c-1.23,1.292-1.776,3.048-1.498,4.819c0.895,5.708,3.886,15.558,13.851,17.393       c12.193,2.248,17.165-1.861,25.402-8.668c1.34-1.107,2.758-2.281,4.303-3.504c23.263-18.449,28.364-17.264,30.031-16.884       c0.613,0.142,0.995,0.754,0.854,1.365c-0.141,0.614-0.755,0.996-1.365,0.854c-2.13-0.48-8.614,0.992-28.105,16.448       c-1.53,1.214-2.939,2.377-4.266,3.475C291.283,320.4,286.297,324.518,277.511,324.518z"/>
				</g>
				<g>
					<path style="fill:#351009;" d="M314.524,301.788c-0.356,0-0.707-0.167-0.929-0.478c-0.364-0.514-0.243-1.225,0.269-1.588       c15.292-10.871,27.268-0.416,27.387-0.309c0.467,0.418,0.506,1.136,0.088,1.605c-0.419,0.467-1.138,0.509-1.607,0.091       c-0.432-0.382-10.77-9.321-24.549,0.467C314.982,301.719,314.751,301.788,314.524,301.788z"/>
				</g>
				<g>
					<path style="fill:#351009;" d="M300.274,346.689c-4.052,0-7.694-1.15-10.864-3.438c-8.768-6.326-10.811-19.025-10.893-19.563       c-0.096-0.623,0.33-1.203,0.952-1.299c0.629-0.087,1.203,0.331,1.299,0.952c0.019,0.122,1.992,12.31,9.983,18.069       c3.663,2.637,8.077,3.54,13.119,2.686c11.214-1.903,17.643-6.849,22.81-10.822c4.248-3.267,7.594-5.844,11.973-5.468       c0.626,0.053,1.09,0.607,1.035,1.232c-0.053,0.627-0.586,1.094-1.233,1.036c-3.459-0.287-6.379,1.926-10.388,5.005       c-5.365,4.127-12.044,9.263-23.817,11.262C302.884,346.573,301.558,346.689,300.274,346.689z"/>
				</g>
				<g>
					<path style="fill:#351009;" d="M342.791,341.739c-0.231,0-0.465-0.071-0.666-0.216c-4.638-3.358-10.56-4.912-16.251-4.249       c-0.607,0.067-1.19-0.376-1.261-1.001c-0.072-0.625,0.376-1.19,1.001-1.263c6.246-0.723,12.751,0.981,17.845,4.667       c0.51,0.369,0.624,1.081,0.256,1.59C343.491,341.577,343.143,341.739,342.791,341.739z"/>
				</g>
				<g>
					<path style="fill:#351009;" d="M290.373,237.471c-0.214,0-0.425-0.06-0.608-0.176c-0.276-0.176-0.464-0.458-0.516-0.78       c-1.475-9.119-9.161-16.833-18.275-18.342c-0.437-0.071-0.793-0.391-0.911-0.818c-0.119-0.425,0.02-0.883,0.357-1.17       c5.772-4.936,14.498-7.696,22.21-7.024c3.34,0.289,6.122,1.174,8.267,2.628c4.404,2.989,6.477,8.854,4.932,13.946       c-0.936,3.082-3.167,5.959-6.286,8.096c-2.612,1.79-5.305,2.568-8.158,3.393l-0.695,0.202       C290.587,237.456,290.48,237.471,290.373,237.471z M273.783,216.472c8.546,2.408,15.552,9.735,17.473,18.42       c2.576-0.747,4.832-1.452,7.001-2.937c2.693-1.848,4.608-4.292,5.394-6.882c1.243-4.096-0.49-8.997-4.031-11.398       c-1.82-1.234-4.237-1.99-7.184-2.246C286.19,210.902,278.997,212.878,273.783,216.472z"/>
				</g>
				<g>
					<path style="fill:#351009;" d="M275.824,316.406c-0.187,0-0.374-0.047-0.543-0.138c-7.151-3.876-13.594-9.299-18.634-15.683       c-0.389-0.494-0.305-1.21,0.188-1.599c0.495-0.389,1.211-0.305,1.6,0.189c4.733,5.995,10.752,11.109,17.435,14.82       c4.204-1.977,7.406-4.936,10.045-9.27c2.71-4.449,3.456-9.782,1.996-14.262c-1.566-4.81-5.739-8.472-10.384-9.117       c-0.623-0.087-1.057-0.66-0.971-1.283c0.087-0.625,0.658-1.047,1.284-0.972c5.488,0.76,10.405,5.048,12.236,10.664       c1.662,5.105,0.834,11.145-2.216,16.152c-2.957,4.856-6.744,8.258-11.576,10.4       C276.139,316.373,275.981,316.406,275.824,316.406z"/>
				</g>
				<g>
					<path style="fill:#351009;" d="M294.977,339.069c-0.437,0-0.849-0.253-1.038-0.671c-2.754-6.11-7.926-10.984-14.19-13.373       c-0.587-0.222-0.882-0.881-0.658-1.468c0.224-0.591,0.882-0.887,1.47-0.658c6.496,2.477,11.914,7.409,15.008,13.622       c3.962-1.456,7.546-3.756,10.17-6.544c3.094-3.284,4.618-7.538,4.078-11.378c-0.488-3.46-2.769-6.651-5.812-8.132       c-0.565-0.273-0.801-0.956-0.526-1.521c0.275-0.562,0.954-0.807,1.522-0.525c3.762,1.828,6.472,5.606,7.071,9.862       c0.636,4.516-1.112,9.472-4.675,13.255c-3.087,3.28-7.371,5.935-12.064,7.473C295.215,339.051,295.095,339.069,294.977,339.069       z"/>
				</g>
			</g>
		</g>
	</g>
</g>















</svg>
