<?xml version="1.0" encoding="UTF-8"?>
<!-- Generator: Adobe Illustrator 26.5.0, SVG Export Plug-In . SVG Version: 6.00 Build 0)  -->
<svg xmlns="http://www.w3.org/2000/svg" xmlns:xlink="http://www.w3.org/1999/xlink" version="1.1" id="Capa_1" x="0px" y="0px" viewBox="0 0 512 512" style="enable-background:new 0 0 512 512;" xml:space="preserve" width="512" height="512">
<g>
	<path style="fill:#FFFFFF;" d="M227.789,506.664c-8.085-0.275-14.767-6.396-15.75-14.427l-4.254-34.767   c-3.086-0.392-6.103-1.003-9.03-1.831c-7.851-2.221-15.079-5.893-22.183-11.326l-9.631,26.127   c-2.42,6.563-8.653,10.75-15.41,10.751c-1.135,0-2.285-0.119-3.435-0.364c-7.99-1.704-13.515-9.02-12.967-17.171l2.477-36.91   c-4.079-3.314-7.807-7.236-11.258-11.84c-7.529-3.398-13.812-7.664-19.104-12.954c-2.51-2.511-4.793-5.25-6.861-8.244   l-34.319,19.78c-2.572,1.483-5.398,2.197-8.196,2.197c-4.902,0-9.716-2.192-12.93-6.281c-5.048-6.424-4.609-15.581,1.03-21.493   l28.01-29.367c-0.57-0.897-1.111-1.807-1.625-2.725c-4.714-8.434-7.311-17.82-8.029-29.18c-7.126-9.07-11.518-18.007-13.688-27.754   c-1.642-7.379-1.922-14.964-0.838-23.058c-2.816-7.665-4.192-15.129-4.192-22.686c0-9.308,2.134-18.613,6.504-28.293   c-0.1-0.673-0.192-1.34-0.277-2.003l-36.136-1.618c-8.161-0.366-14.815-6.671-15.617-14.802   c-0.801-8.132,4.492-15.616,12.424-17.57l50.361-12.4c1.757-2.533,3.727-5.037,5.925-7.538c1.36-11.304,4.482-20.528,9.665-28.681   c4.014-6.314,9.22-11.844,15.833-16.8c3.401-7.531,7.666-13.815,12.955-19.104c2.431-2.431,5.076-4.647,7.959-6.665L97.185,67.25   c-4.124-6.96-2.566-15.888,3.671-21.04c3.041-2.514,6.756-3.766,10.465-3.766c3.897,0,7.787,1.379,10.89,4.125l28.003,24.777   c1.039-0.671,2.094-1.306,3.164-1.904c8.43-4.712,17.815-7.309,29.174-8.027c9.072-7.126,18.008-11.517,27.756-13.688   c4.409-0.983,8.999-1.48,13.641-1.48c3.096,0,6.209,0.211,9.418,0.641c7.665-2.816,15.129-4.192,22.685-4.192   c9.304,0,18.607,2.133,28.29,6.504c3.98-0.598,7.78-0.891,11.504-0.893l23.317-35.558c3.121-4.761,8.354-7.423,13.749-7.423   c2.273,0,4.575,0.472,6.761,1.46c7.372,3.332,11.221,11.535,9.073,19.335l-10.476,38.047c0.669,0.555,1.337,1.126,2.006,1.714   c11.3,1.359,20.525,4.482,28.678,9.665c6.316,4.016,11.845,9.221,16.801,15.833c7.531,3.4,13.815,7.666,19.104,12.955   c6.502,6.5,11.52,14.628,15.25,24.727c7.172,5.225,12.817,10.928,17.092,17.265c0,0,38.34-0.433,38.402-0.433   c8.01,0,14.865,5.782,16.201,13.699c1.345,7.977-3.315,15.747-10.988,18.316l-27.726,9.28c4.078,6.55,6.807,13.169,8.375,20.209   c1.642,7.382,1.922,14.968,0.837,23.061c0.503,1.371,0.959,2.737,1.369,4.1c0,0,31.834-0.36,31.897-0.36   c8.01,0,14.865,5.782,16.201,13.699c1.345,7.977-3.315,15.747-10.988,18.316L460.8,279.595c-0.259,0.614-0.53,1.229-0.808,1.847   c1.57,10.507,1.09,20.04-1.444,28.995c-2.719,9.608-7.609,18.283-15.238,26.937c-1.36,11.3-4.482,20.522-9.664,28.674   c-3.798,5.972-8.66,11.242-14.77,15.988l16.496,39.668c3.106,7.47,0.313,16.09-6.585,20.318c-2.664,1.633-5.635,2.423-8.58,2.424   c-4.679,0-9.294-1.995-12.514-5.774l-20.736-24.331c-2.168,1.027-4.442,1.979-6.829,2.862c-3.66,5.025-7.555,9.3-11.74,12.88   l9.544,45.521c1.676,7.995-2.777,16.009-10.452,18.808c-1.851,0.675-3.752,0.998-5.627,0.998c-5.905,0-11.547-3.197-14.481-8.66   l-21.151-39.384c-7.944,5.672-15.876,9.288-24.428,11.193c-4.409,0.983-8.999,1.48-13.641,1.48c-3.096,0-6.209-0.211-9.418-0.641   c-7.665,2.816-15.128,4.192-22.683,4.192c-1.936,0-3.866-0.091-5.793-0.273l-5.773,30.027c-1.491,7.759-8.282,13.329-16.13,13.329   C228.168,506.674,227.979,506.671,227.789,506.664z"/>
	<g>
		<circle style="fill:#FFC576;" cx="254.44" cy="248.069" r="132.073"/>
		<g>
			<g>
				<g>
					<g>
						<path style="fill:#D04D20;" d="M255.976,446.691c-17.087,0-31.259-9.797-44.965-19.273        c-7.578-5.239-14.736-10.189-21.953-13.181c-7.669-3.18-16.527-4.855-25.905-6.629c-16.142-3.053-32.834-6.211-44.366-17.742        c-11.533-11.533-14.69-28.226-17.743-44.369c-1.774-9.377-3.449-18.235-6.629-25.903c-2.991-7.216-7.941-14.375-13.18-21.953        c-9.475-13.706-19.273-27.878-19.273-44.965c0-17.087,9.797-31.259,19.273-44.965c5.239-7.578,10.189-14.737,13.18-21.953        c3.181-7.668,4.856-16.527,6.63-25.906c3.053-16.142,6.211-32.833,17.743-44.366c11.531-11.532,28.222-14.688,44.364-17.742        c9.378-1.774,18.236-3.449,25.905-6.629c7.216-2.993,14.375-7.942,21.953-13.181c13.706-9.475,27.878-19.273,44.965-19.273        c17.087,0,31.259,9.797,44.965,19.273c7.578,5.239,14.737,10.189,21.953,13.18c7.669,3.18,16.527,4.856,25.906,6.63        c16.142,3.053,32.833,6.211,44.366,17.743c11.533,11.532,14.69,28.225,17.743,44.367c1.774,9.378,3.449,18.235,6.629,25.903        c2.992,7.217,7.941,14.376,13.18,21.954c9.475,13.706,19.273,27.877,19.273,44.964c0,17.087-9.798,31.259-19.273,44.965        c-5.239,7.578-10.188,14.737-13.18,21.954c-3.181,7.668-4.856,16.526-6.63,25.904c-3.053,16.143-6.211,32.835-17.743,44.367        c-11.531,11.531-28.222,14.689-44.364,17.742c-9.379,1.774-18.237,3.449-25.906,6.629        c-7.216,2.992-14.375,7.942-21.953,13.181C287.235,436.894,273.063,446.691,255.976,446.691z M255.976,70.656        c-13.345,0-25.391,8.328-38.145,17.145c-7.761,5.366-15.785,10.914-24.179,14.393c-8.815,3.656-18.705,5.527-28.27,7.336        c-15.015,2.84-29.198,5.524-38.114,14.438c-8.916,8.917-11.598,23.099-14.439,38.116c-1.808,9.564-3.68,19.455-7.336,28.269        c-3.48,8.394-9.028,16.419-14.393,24.179c-8.817,12.754-17.145,24.8-17.145,38.145c0,13.345,8.328,25.391,17.145,38.145        c5.365,7.761,10.914,15.785,14.393,24.179c3.655,8.814,5.526,18.704,7.334,28.268c2.84,15.017,5.524,29.2,14.439,38.117        c8.917,8.914,23.099,11.598,38.115,14.438c9.566,1.81,19.456,3.681,28.27,7.335c8.394,3.481,16.419,9.029,24.179,14.395        c12.754,8.817,24.8,17.145,38.145,17.145c13.345,0,25.391-8.328,38.145-17.145c7.761-5.366,15.785-10.914,24.179-14.393        c8.814-3.656,18.705-5.527,28.269-7.336c15.017-2.84,29.199-5.524,38.113-14.439c8.917-8.915,11.6-23.098,14.44-38.115        c1.808-9.564,3.68-19.455,7.335-28.269c3.48-8.396,9.028-16.42,14.393-24.18c8.817-12.754,17.145-24.8,17.145-38.145        c0-13.344-8.328-25.39-17.145-38.144c-5.366-7.761-10.913-15.785-14.395-24.18c-3.654-8.814-5.525-18.704-7.333-28.268        c-2.84-15.015-5.524-29.199-14.439-38.116c-8.917-8.916-23.099-11.599-38.115-14.439c-9.566-1.808-19.455-3.68-28.27-7.336        c-8.394-3.48-16.418-9.028-24.179-14.393C281.367,78.983,269.321,70.656,255.976,70.656z"/>
					</g>
					<g>
						<path style="fill:#351009;" d="M298.147,442.053c-16.679,3.714-32.642-2.769-48.079-9.038        c-8.536-3.467-16.599-6.742-24.293-8.094c-8.177-1.437-17.188-1.146-26.727-0.84c-16.42,0.528-33.399,1.074-47.161-7.674        c-13.764-8.751-20.474-24.358-26.963-39.452c-3.77-8.767-7.33-17.049-12.101-23.843c-4.488-6.393-10.876-12.305-17.636-18.563        C82.958,323.23,70.315,311.526,66.6,294.848c-3.714-16.679,2.769-32.641,9.038-48.079c3.467-8.536,6.742-16.599,8.093-24.293        c1.438-8.176,1.147-17.188,0.841-26.727c-0.528-16.42-1.074-33.398,7.676-47.161c8.749-13.763,24.355-20.472,39.447-26.961        c8.768-3.771,17.05-7.331,23.845-12.102c6.393-4.489,12.305-10.877,18.563-17.638c11.319-12.228,23.022-24.872,39.701-28.586        c16.679-3.714,32.642,2.769,48.079,9.038c8.535,3.466,16.599,6.742,24.292,8.093c8.177,1.437,17.188,1.147,26.727,0.841        c16.42-0.528,33.399-1.074,47.161,7.675c13.764,8.749,20.473,24.357,26.962,39.449c3.771,8.768,7.331,17.049,12.101,23.843        c4.49,6.394,10.876,12.306,17.637,18.564c12.228,11.319,24.871,23.021,28.585,39.7c3.714,16.679-2.769,32.641-9.038,48.079        c-3.467,8.536-6.741,16.599-8.093,24.294c-1.438,8.176-1.148,17.187-0.841,26.726c0.529,16.421,1.074,33.4-7.675,47.163        c-8.749,13.762-24.355,20.472-39.447,26.961c-8.769,3.771-17.052,7.331-23.845,12.102        c-6.393,4.49-12.305,10.877-18.563,17.638C326.53,425.695,314.826,438.339,298.147,442.053z M216.411,75.008        c-13.026,2.901-22.974,13.647-33.506,25.026c-6.409,6.924-13.035,14.084-20.473,19.305c-7.809,5.484-17.056,9.461-26,13.305        c-14.039,6.036-27.299,11.738-34.064,22.377c-6.764,10.641-6.299,25.068-5.809,40.343c0.314,9.729,0.637,19.79-1.015,29.188        c-1.572,8.95-5.243,17.988-8.794,26.73c-5.834,14.365-11.344,27.934-8.444,40.96c2.901,13.026,13.648,22.974,25.026,33.506        c6.924,6.409,14.084,13.035,19.305,20.472c5.484,7.808,9.459,17.055,13.303,25.998c6.036,14.04,11.738,27.301,22.379,34.067        c10.641,6.763,25.068,6.299,40.342,5.808c9.73-0.313,19.79-0.636,29.189,1.015c8.95,1.573,17.988,5.244,26.73,8.795        c14.365,5.834,27.934,11.344,40.96,8.443c13.026-2.901,22.974-13.648,33.507-25.026c6.409-6.924,13.035-14.084,20.472-19.305        c7.808-5.484,17.056-9.461,25.999-13.305c14.04-6.036,27.3-11.738,34.064-22.378c6.766-10.64,6.302-25.067,5.81-40.342        c-0.314-9.729-0.637-19.79,1.015-29.188c1.572-8.951,5.243-17.989,8.793-26.731c5.834-14.365,11.344-27.934,8.443-40.96        c-2.9-13.025-13.647-22.973-25.026-33.505c-6.924-6.409-14.083-13.035-19.306-20.473c-5.483-7.809-9.458-17.056-13.302-25.998        c-6.036-14.039-11.738-27.3-22.379-34.066c-10.641-6.764-25.068-6.301-40.342-5.809c-9.73,0.314-19.79,0.637-29.189-1.015        c-8.95-1.572-17.988-5.243-26.73-8.794C243.006,77.617,229.438,72.107,216.411,75.008z"/>
					</g>
					<g>
						<path style="fill:#D04D20;" d="M203.156,439.363c-16.442-4.652-27.411-17.938-38.02-30.786        c-5.865-7.104-11.406-13.816-17.535-18.66c-6.514-5.148-14.581-9.171-23.122-13.432c-14.701-7.333-29.902-14.915-37.859-29.15        c-7.958-14.237-6.45-31.159-4.993-47.524c0.845-9.506,1.646-18.485,0.673-26.73c-0.914-7.758-3.728-15.994-6.706-24.712        c-5.386-15.768-10.955-32.072-6.303-48.514s17.938-27.411,30.786-38.02c7.104-5.865,13.816-11.406,18.659-17.535        c5.149-6.512,9.172-14.581,13.433-23.122c7.333-14.701,14.915-29.902,29.151-37.859c14.235-7.957,31.155-6.45,47.519-4.994        c9.507,0.846,18.486,1.646,26.732,0.674c7.758-0.915,15.994-3.729,24.712-6.707c15.768-5.386,32.072-10.955,48.514-6.303        c16.442,4.652,27.411,17.938,38.02,30.786c5.865,7.104,11.406,13.816,17.535,18.659c6.514,5.148,14.581,9.172,23.122,13.433        c14.701,7.333,29.902,14.915,37.859,29.151c7.958,14.236,6.451,31.158,4.994,47.521c-0.846,9.507-1.645,18.485-0.673,26.729        c0.915,7.759,3.727,15.995,6.705,24.713c5.386,15.768,10.955,32.071,6.303,48.513c-4.652,16.442-17.938,27.411-30.787,38.02        c-7.104,5.865-13.815,11.406-18.659,17.536c-5.149,6.512-9.172,14.58-13.432,23.121c-7.333,14.702-14.916,29.903-29.152,37.86        c-14.235,7.956-31.155,6.45-47.519,4.994c-9.508-0.846-18.488-1.646-26.732-0.674c-7.758,0.915-15.994,3.729-24.712,6.707        C235.902,438.446,219.597,444.015,203.156,439.363z M305.531,77.531c-12.841-3.633-26.699,1.1-41.372,6.112        c-8.928,3.05-18.16,6.204-27.184,7.267c-9.477,1.118-19.503,0.226-29.199-0.638c-15.221-1.355-29.599-2.634-40.604,3.516        c-11.006,6.153-17.448,19.069-24.271,32.745c-4.344,8.711-8.838,17.719-14.755,25.204c-5.634,7.13-13.157,13.34-20.432,19.347        c-11.956,9.871-23.249,19.195-26.882,32.036c-3.633,12.841,1.1,26.699,6.112,41.372c3.05,8.928,6.204,18.16,7.267,27.184        c1.118,9.476,0.225,19.502-0.639,29.197c-1.355,15.223-2.635,29.601,3.516,40.608c6.153,11.005,19.069,17.448,32.744,24.269        c8.712,4.345,17.718,8.839,25.205,14.755c7.13,5.635,13.34,13.158,19.347,20.434c9.871,11.956,19.196,23.249,32.037,26.882        c12.841,3.633,26.699-1.1,41.372-6.112c8.928-3.05,18.16-6.204,27.184-7.267c9.476-1.118,19.503-0.226,29.198,0.638        c15.223,1.355,29.6,2.634,40.605-3.517c11.007-6.151,17.45-19.068,24.271-32.744c4.344-8.711,8.838-17.719,14.755-25.204        c5.634-7.131,13.157-13.342,20.433-19.348c11.956-9.871,23.249-19.195,26.882-32.037c3.633-12.84-1.1-26.698-6.112-41.371        c-3.05-8.928-6.203-18.16-7.268-27.186c-1.117-9.476-0.224-19.501,0.64-29.197c1.355-15.221,2.635-29.6-3.517-40.607        c-6.153-11.006-19.069-17.45-32.744-24.27c-8.712-4.344-17.719-8.838-25.205-14.755c-7.13-5.634-13.341-13.157-19.347-20.432        C327.696,92.457,318.372,81.164,305.531,77.531z"/>
					</g>
				</g>
				<polygon style="fill:#D04D20;" points="302.56,67.454 332.829,21.293 318.451,73.508     "/>
				<polygon style="fill:#D04D20;" points="139.379,105.905 111.248,58.411 151.809,94.299     "/>
				<polygon style="fill:#D04D20;" points="370.244,125.863 332.736,166.363 355.577,117.257     "/>
				<polygon style="fill:#D04D20;" points="423.737,248.561 368.657,244.926 421.188,231.748     "/>
				<polygon style="fill:#D04D20;" points="399.431,346.054 361.634,305.824 409.035,332.021     "/>
				<polygon style="fill:#D04D20;" points="293.852,421.395 272.256,370.595 307.709,411.537     "/>
				<polygon style="fill:#D04D20;" points="93.649,309.021 145.574,290.29 102.719,323.405     "/>
				<polygon style="fill:#D04D20;" points="112.166,160.795 160.177,188.037 107.146,177.043     "/>
				<polygon style="fill:#D04D20;" points="237.054,86.651 235.103,141.817 220.327,89.713     "/>
				<polygon style="fill:#D04D20;" points="420.33,162.484 475.527,161.86 424.169,179.05     "/>
				<polygon style="fill:#D04D20;" points="398.93,376.578 420.125,427.547 384.996,386.327     "/>
				<polygon style="fill:#D04D20;" points="238.697,435.568 228.275,489.775 221.697,436.018     "/>
				<polygon style="fill:#D04D20;" points="440.295,250.788 495.491,250.165 444.134,267.355     "/>
				<polygon style="fill:#D04D20;" points="349.372,419.352 361.775,478.508 332.961,424.857     "/>
				<polygon style="fill:#D04D20;" points="172.354,407.579 151.448,464.291 155.526,403.528     "/>
				<polygon style="fill:#D04D20;" points="110.15,368.604 57.784,398.787 99.816,354.718     "/>
			</g>
			<polygon style="fill:#D04D20;" points="76.74,207.05 16.358,204.346 75.491,189.786    "/>
		</g>
		<g>
			<g>
				
					<rect x="247.561" y="130.063" transform="matrix(0.9999 0.0125 -0.0125 0.9999 3.314 -3.2523)" style="fill:#D04D20;" width="27.986" height="266.266"/>
				<polygon style="fill:#D04D20;" points="348.659,197.515 348.659,225.503 363.98,225.695 364.33,197.711     "/>
			</g>
			<g>
				<polygon style="fill:#351009;" points="356.101,197.301 355.981,207.225 355.951,207.857 355.861,216.639 355.83,218.143       355.83,218.864 355.74,225.3 346.868,225.18 343.831,225.15 325.124,224.909 322.899,224.879 301.305,224.609 299.049,224.578       288.433,224.458 286.929,224.428 279.862,224.338 278.238,224.338 269.727,224.218 269.035,224.218 268.072,224.188       267.802,224.188 267.772,226.293 267.742,228.278 267.712,230.624 267.621,237.481 267.02,286.563 266.99,287.254       266.448,330.863 266.448,331.524 265.636,396.095 264.403,396.065 262.479,396.065 260.824,396.035 250.509,395.914       249.847,395.884 247.321,395.854 245.787,395.824 237.667,395.734 238.689,311.886 238.81,301.78 239.171,272.818       239.231,270.593 239.622,238.052 239.772,226.383 239.802,223.857 223.622,223.646 222.058,223.646 210.058,223.496       208.554,223.466 196.164,223.315 194.51,223.285 181.999,223.135 180.405,223.105 166.901,222.955 165.066,222.924       155.052,222.804 155.172,211.616 155.202,210.955 155.232,209.24 155.262,206.534 155.292,203.105 155.292,202.444       155.382,194.805 162.871,194.895 164.675,194.925 190.51,195.226 192.495,195.256 205.366,195.406 207.712,195.466       209.036,195.496 210.539,195.496 226.75,195.707 228.254,195.707 240.163,195.857 240.434,174.173 240.644,155.376       240.945,133.001 240.975,129.482 241.276,129.482 244.073,129.512 244.734,129.542 252.103,129.633 254.028,129.633       255.561,129.663 268.975,129.843 268.133,196.218 272.313,196.278 273.847,196.278 274.448,196.308 275.922,196.308       277.516,196.338 278.147,196.338 293.546,196.519 295.049,196.549 296.854,196.549 308.372,196.699 309.846,196.699       332.883,197 334.568,197.03     "/>
				<g>
					<path style="fill:#D04D20;" d="M162.871,194.895c-0.271,0.451-0.541,0.872-0.812,1.293c-2.225,3.428-4.451,6.917-6.797,10.346       l-0.03,2.707c2.797-4.03,5.474-8.15,8.09-12.24c0.451-0.692,0.872-1.383,1.353-2.075L162.871,194.895z M190.51,195.226       c-3.459,4.12-7.278,7.91-11.068,11.699c-2.466,2.466-5.022,4.993-7.398,7.579c-2.346,2.496-4.752,5.323-6.977,8.421l1.834,0.03       c2.015-2.707,4.15-5.203,6.225-7.429c2.376-2.556,4.932-5.082,7.368-7.519c4.12-4.12,8.271-8.24,12-12.752L190.51,195.226z        M195.201,207.797c-3.459-1.684-7.158,1.173-9.263,4.12c-2.436,3.428-4.12,7.248-5.534,11.188l1.594,0.03       c1.323-3.669,2.917-7.218,5.173-10.346c1.895-2.677,4.932-4.842,7.398-3.639c1.925,0.902,2.526,3.459,2.466,5.534       c-0.09,3.038-1.143,5.835-2.526,8.601l1.654,0.03c1.293-2.707,2.286-5.534,2.376-8.601       C198.63,212.188,197.788,209.03,195.201,207.797z M272.313,196.278c-0.511,3.458-1.022,6.887-1.564,10.316       c-0.902,5.925-1.805,11.789-2.677,17.594c-0.09,0.692-0.211,1.383-0.301,2.105c-7.037,47.127-12.33,90.856-11.789,135.908       c0.12,10.827,0.662,22.947,4.842,33.834l1.654,0.03c-4.331-10.767-4.872-23.007-4.992-33.894       c-0.511-41.383,3.94-81.743,10.135-124.69c0.632-4.391,1.293-8.812,1.955-13.263c0.842-5.744,1.744-11.549,2.647-17.413       c0.541-3.489,1.083-7.007,1.624-10.526H272.313z M277.365,216.338c-1.233-4.812-2.496-12.301-1.444-20.03h-1.474       c-1.083,7.91,0.241,15.518,1.474,20.421c0.662,2.556,1.444,5.113,2.316,7.609h1.624       C278.899,221.691,278.057,219.045,277.365,216.338z M293.546,196.519c-0.692,3.068-1.744,6.255-2.797,9.473       c-1.383,4.15-2.797,8.451-3.458,12.661c-0.301,1.925-0.421,3.85-0.361,5.774l1.504,0.03c-0.06-1.865,0.06-3.729,0.361-5.564       c0.632-4.09,2.015-8.331,3.368-12.421c1.113-3.308,2.195-6.617,2.887-9.925L293.546,196.519z M318.387,217.722l-1.173-1.383       c-3.128-3.759-6.316-7.639-10.917-9.443c-3.128-1.263-7.037-0.962-9.955,0.722c-2.165,1.263-3.549,3.188-3.85,5.413       c-0.692,4.752,3.128,8.361,6.556,11.549l2.256,0.03c-0.361-0.331-0.722-0.661-1.113-1.022       c-3.338-3.098-6.797-6.316-6.226-10.346c0.331-2.256,1.895-3.609,3.128-4.331c2.496-1.444,5.985-1.684,8.661-0.632       c4.211,1.684,7.308,5.413,10.286,9.022l1.173,1.383c1.805,2.135,3.699,4.21,5.684,6.195l2.225,0.03       C322.748,222.654,320.523,220.248,318.387,217.722z M326.417,213.331c-5.534-3.218-12.451-7.218-15.579-13.684       c-0.451-0.932-0.782-1.925-0.992-2.947h-1.474c0.211,1.263,0.571,2.496,1.113,3.609c3.338,6.887,10.466,11.008,16.18,14.316       l18.165,10.526l3.038,0.03L326.417,213.331z M338.327,205c-1.474-2.406-2.586-5.083-3.639-7.669       c-0.03-0.09-0.09-0.211-0.12-0.301l-1.684-0.03c0.15,0.301,0.271,0.602,0.391,0.902c1.113,2.647,2.256,5.383,3.789,7.88       c4.12,6.647,11.158,10.977,18.767,12.361l0.03-1.504C348.763,215.316,342.177,211.225,338.327,205z M256.253,164.91       l-0.241-3.94c-0.632-10.376-1.293-20.992-0.451-31.308l-1.534-0.03c-0.03,0.571-0.09,1.173-0.12,1.744       c-0.09-0.602-0.18-1.173-0.271-1.744h-1.534c0.722,4,0.962,8.12,1.113,12.18c0.571,18.105-1.053,36.451-2.617,54.195       c-3.098,34.827-6.256,70.525-11.789,105.773l-0.12,10.105c6.586-38.496,10.045-77.623,13.413-115.758       c0.992-11.278,2.015-22.767,2.466-34.315l0.211,3.188c4.09,67.428-1.383,135.878-6.647,202.072       c-0.752,9.444-1.534,19.098-2.346,28.751l1.534,0.03c0.782-9.624,1.534-19.248,2.286-28.661       C254.9,300.938,260.373,232.458,256.253,164.91z M241.727,171.346c-0.421-5.263-0.812-10.617-1.083-15.97l-0.21,18.797       c0.481,6.496,0.962,13.143,1.083,19.699c0.241,10.917-0.451,21.744-1.744,32.511l-0.15,11.669       c2.376-14.586,3.699-29.323,3.399-44.21C242.87,186.354,242.298,178.715,241.727,171.346z M240.975,129.482l-0.03,3.519       c0.09-1.173,0.211-2.346,0.331-3.519H240.975z M210.088,211.707c-0.15-5.474-0.301-11.067,0.451-16.21h-1.504       c-0.752,5.323-0.602,10.947-0.451,16.24c0.03,1.293,0.06,2.556,0.09,3.819c0.06,2.617,0,5.263-0.12,7.91l1.504,0.03       c0.12-2.677,0.181-5.323,0.12-7.97C210.148,214.263,210.118,212.97,210.088,211.707z M228.254,195.707h-1.504       c0.361,9.143-2.075,18.616-4.692,27.939h1.564C226.208,214.353,228.614,204.91,228.254,195.707z"/>
				</g>
			</g>
		</g>
	</g>
</g>















</svg>
