<?xml version="1.0" encoding="UTF-8"?>
<!-- Generator: Adobe Illustrator 26.5.0, SVG Export Plug-In . SVG Version: 6.00 Build 0)  -->
<svg xmlns="http://www.w3.org/2000/svg" xmlns:xlink="http://www.w3.org/1999/xlink" version="1.1" id="Capa_1" x="0px" y="0px" viewBox="0 0 512 512" style="enable-background:new 0 0 512 512;" xml:space="preserve" width="512" height="512">
<g>
	<path style="fill:#FFFFFF;" d="M208.243,512c-7.09,0-12.839-5.749-12.839-12.839V317.789c-8.947-3.93-17.558-8.675-25.712-14.172   c-8.909-2.311-16.945-6.745-23.37-12.919c-2.737-2.63-4.166-6.33-3.916-10.105c-7.812-8.205-14.745-17.184-20.719-26.835H99.365   c-7.09,0-12.839-5.748-12.839-12.839v-59.746c0-6.333,4.586-11.594,10.617-12.647c-0.003-0.37-0.004-0.74-0.004-1.11   c0-35.106,10.889-68.5,31.517-96.726c3.109-9.235,8.31-17.767,15.136-24.793c8.487-8.738,19.11-14.887,30.845-17.879   c19.307-12.037,40.415-19.767,62.844-23.017c0.446-0.468,0.901-0.928,1.361-1.375C241.254,1.286,244.469,0,247.785,0   c0.556,0,1.115,0.036,1.673,0.11c2.626,0.345,5.047,1.487,6.964,3.228c1.684-0.06,3.297-0.088,4.884-0.088   c90.522,0,164.167,73.645,164.167,164.167c0,22.153-4.364,43.657-12.976,63.965v9.534c0,6.648-5.053,12.115-11.526,12.773   c-21.902,35.43-56.249,61.133-96.176,72.067v173.401c0,7.09-5.749,12.839-12.839,12.839L272.312,512H208.243z"/>
	<g>
		
			<ellipse transform="matrix(0.7071 -0.7071 0.7071 0.7071 -42.6315 234.0002)" style="fill:#5F75CB;" cx="261.147" cy="168.461" rx="151.328" ry="151.328"/>
		<g>
			<path style="fill:#F8EEE5;" d="M405.943,168.163c-3.957-12.979-18.215-20.917-31.781-20.703     c-13.567,0.214-26.24,7.115-36.636,15.835c-14.701-8.434-34.863-5.882-46.999,5.948L405.943,168.163z"/>
			<path style="fill:#F8EEE5;" d="M233.853,177.45c-3.957-12.979-18.214-20.917-31.781-20.703     c-13.567,0.214-26.24,7.115-36.635,15.835c-14.701-8.434-34.863-5.882-46.999,5.948L233.853,177.45z"/>
			<path style="fill:#F8EEE5;" d="M310.064,287.534c-3.957-12.979-18.214-20.917-31.781-20.703     c-13.567,0.214-26.24,7.115-36.635,15.835c-14.701-8.434-34.863-5.882-46.999,5.948L310.064,287.534z"/>
			<path style="fill:#F8EEE5;" d="M349.399,65.182c-3.957-12.979-18.214-20.917-31.781-20.703     c-13.567,0.214-26.24,7.115-36.635,15.835c-14.701-8.434-34.863-5.882-46.999,5.948L349.399,65.182z"/>
		</g>
		<g>
			<path style="fill:#C8BD8A;" d="M251.113,82.328c-3.745-9.135-10.273-16.985-13.499-26.316     c-4.979-14.4-0.912-31.512,10.013-42.131c6.737,11.262,13.317,22.773,12.885,35.888     C260.154,60.629,254.056,71.869,251.113,82.328z"/>
			<g>
				<g>
					<polygon style="fill:#D04D20;" points="379.852,182.218 272.153,182.218 272.153,63.907 208.084,63.907 208.084,182.218        99.206,182.218 99.206,241.963 208.084,241.963 208.084,500.204 272.153,500.204 272.153,241.963 379.852,241.963      "/>
					<polygon style="fill:#351009;" points="399.5,182.219 399.5,241.959 291.797,241.959 291.797,500.201 227.739,500.201        227.739,241.959 118.859,241.959 118.859,182.219 227.739,182.219 227.739,63.917 291.797,63.917 291.797,182.219      "/>
					<g>
						<path style="fill:#D04D20;" d="M127.657,182.219c-3.002,3.071-5.912,6.212-8.798,9.375v-1.709        c2.355-2.586,4.734-5.15,7.182-7.667H127.657z"/>
						<path style="fill:#D04D20;" d="M154.19,182.219c-6.096,4.341-12.632,8.29-19.12,12.17c-5.45,3.256-10.946,6.581-16.211,10.137        v-1.385c5.08-3.418,10.392-6.604,15.634-9.745c5.958-3.579,11.985-7.205,17.666-11.177H154.19z"/>
						<path style="fill:#D04D20;" d="M140.612,221.384c-0.693,3.995-0.924,8.152-1.132,12.146c-0.162,2.771-0.323,5.612-0.623,8.429        h-1.155c0.323-2.84,0.485-5.704,0.623-8.498c0.231-4.018,0.462-8.198,1.155-12.262c2.91-16.788,14.871-31.567,30.205-38.98        h2.771C156.384,189.055,143.614,204.134,140.612,221.384z"/>
						<path style="fill:#D04D20;" d="M191.507,191.71c-4.965,7.667-10.969,15.056-16.765,22.192        c-7.343,8.983-14.802,18.151-20.252,28.057h-1.339c5.542-10.207,13.186-19.582,20.691-28.796        c5.796-7.112,11.777-14.456,16.696-22.076c1.524-2.355,3.094-6.05,2.563-8.867h1.178        C194.74,185.337,193.193,189.124,191.507,191.71z"/>
						<path style="fill:#D04D20;" d="M202.684,182.219H204c-4.942,9.191-6.096,19.698-7.297,30.782        c-0.739,6.882-1.524,14.017-3.302,20.714c-0.739,2.794-1.686,5.565-2.84,8.244h-1.247c1.201-2.771,2.194-5.635,2.979-8.544        c1.755-6.628,2.517-13.694,3.256-20.529C196.68,202.379,197.858,191.549,202.684,182.219z"/>
						<path style="fill:#D04D20;" d="M213.191,232.561c-0.831,3.118-1.686,6.235-2.471,9.399h-1.201        c0.831-3.256,1.709-6.489,2.563-9.699c4.272-15.911,8.683-32.375,7.505-48.817c-0.023-0.369-0.069-0.785-0.115-1.224h1.155        c0.069,0.393,0.092,0.785,0.115,1.132C221.943,200.001,217.486,216.558,213.191,232.561z"/>
						<path style="fill:#D04D20;" d="M233.512,68.744c-2.979,26.51-2.148,53.898-1.339,80.361        c1.039,33.184,2.078,67.314-4.434,100.059v-6.443c5.219-30.713,4.249-62.557,3.302-93.57        c-0.831-26.533-1.663-53.944,1.316-80.546c0.162-1.547,0.369-3.094,0.577-4.688h1.178        C233.882,65.557,233.697,67.15,233.512,68.744z"/>
						<path style="fill:#D04D20;" d="M244.042,250.065c-3.879,14.34-8.082,28.888-12.147,42.952        c-1.385,4.803-2.771,9.63-4.157,14.479v-4.203c1.016-3.533,2.032-7.066,3.048-10.6c4.064-14.063,8.267-28.611,12.124-42.928        c15.356-56.83,28.75-122.343,16.488-185.847h1.155C272.838,127.583,259.399,193.188,244.042,250.065z"/>
						<path style="fill:#D04D20;" d="M262.447,238.518c-8.891,39.742-18.058,80.823-16.881,121.766        c0.393,13.74,1.963,27.665,3.487,41.104c1.732,15.356,3.51,31.244,3.579,46.97c0.069,17.458-2.009,34.893-6.143,51.842h-1.178        c4.157-16.95,6.235-34.361,6.166-51.842c-0.069-15.657-1.847-31.498-3.579-46.831c-1.524-13.486-3.094-27.411-3.487-41.22        c-1.178-41.058,8.013-82.232,16.904-122.043c10.276-45.977,20.899-93.547,15.333-140.725        c-0.393-3.302-0.878-6.697-1.339-9.976c-1.085-7.828-2.217-15.795-2.355-23.647h1.155c0.161,7.805,1.27,15.726,2.355,23.508        c0.462,3.279,0.924,6.674,1.316,9.976C283.392,144.787,272.746,192.449,262.447,238.518z"/>
						<path style="fill:#D04D20;" d="M343.593,182.219c-12.955,9.052-23.716,21.522-30.667,35.655        c-4.365,8.844-6.304,16.904-5.842,24.085h-1.178c-0.439-7.367,1.57-15.611,5.981-24.593        c6.789-13.809,17.181-26.071,29.697-35.146H343.593z"/>
						<path style="fill:#D04D20;" d="M366.94,182.219c-15.38,16.326-25.702,37.548-28.173,59.74h-1.155        c2.471-22.169,12.608-43.344,27.803-59.74H366.94z"/>
						<path style="fill:#D04D20;" d="M294.707,188.039c0.831-1.963,1.732-3.903,2.702-5.819h1.316        c-1.085,2.078-2.055,4.157-2.956,6.281c-8.29,19.513-9.653,40.827-3.972,59.463v3.695        C284.777,231.983,285.793,209.007,294.707,188.039z"/>
						<path style="fill:#D04D20;" d="M286.671,179.148c-18.474,27.549-19.097,63.596-18.243,95.233        c0.346,12.424,1.016,23.508,5.958,33.299c4.041,7.99,10.599,14.294,17.412,20.183v1.57        c-7.136-6.189-14.156-12.77-18.428-21.245c-5.057-9.999-5.75-21.222-6.097-33.784c-0.877-31.821-0.231-68.076,18.451-95.902        c1.87-2.794,3.926-5.496,6.073-8.105v1.824C289.996,174.46,288.264,176.77,286.671,179.148z"/>
						<path style="fill:#D04D20;" d="M291.797,406.631v1.709c-18.635,20.783-27.503,50.48-22.861,77.983        c0.808,4.711,2.194,9.422,4.087,13.879h-1.316c-1.824-4.434-3.141-9.075-3.926-13.671        C263.024,458.265,272.354,427.691,291.797,406.631z"/>
						<path style="fill:#D04D20;" d="M399.5,204.734v1.178c-8.429-0.554-17.481,2.748-24.201,9.122        c-6.858,6.466-11.523,15.934-13.347,26.926h-1.178c1.87-11.315,6.651-21.083,13.717-27.78        C381.419,207.621,390.771,204.203,399.5,204.734z"/>
						<path style="fill:#D04D20;" d="M399.5,218.497v1.224c-1.801-0.739-3.926-0.878-6.143-0.393        c-4.318,0.97-8.013,4.064-9.399,7.874c-1.847,5.011-0.716,10.322,1.547,14.756h-1.27c-2.24-4.595-3.256-9.999-1.363-15.172        c1.524-4.157,5.542-7.528,10.23-8.567C395.389,217.712,397.56,217.828,399.5,218.497z"/>
					</g>
				</g>
				
					<rect x="210.836" y="121.687" transform="matrix(0.9756 -0.2196 0.2196 0.9756 -23.7316 60.5135)" style="fill:#F8EEE5;" width="99.051" height="30.659"/>
			</g>
			<g>
				<g>
					<g>
						<g>
							<g>
								<path style="fill:#FFA7BE;" d="M152.843,55.887c10.718-11.033,25.077-16.406,39.321-16.016          c0.795,0.021,1.574,0.06,2.353,0.098c12.032,0.852,23.825,5.781,33.145,14.834c20.957,20.358,21.426,53.845,1.067,74.802          c-3.736,3.846-7.895,6.985-12.363,9.434c-0.673,0.391-1.347,0.748-2.037,1.089c-19.528,9.72-43.844,6.629-60.385-9.44          c-10.814-10.506-16.183-24.534-16.038-38.526c0.005-0.811,0.026-1.639,0.08-2.468c0.103-2.054,0.354-4.128,0.722-6.153          c0.137-0.813,0.291-1.61,0.478-2.408C141.238,71.932,145.78,63.158,152.843,55.887z"/>
							</g>
							<g>
								<path style="fill:#D04D20;" d="M192.164,39.87c0.795,0.021,1.574,0.06,2.353,0.098c0.197,3.292,1.005,6.525,2.488,9.434          c4.023,8.021,12.761,13.441,21.719,13.526c0.513,0.009,0.949,0.334,1.104,0.812c0.156,0.445-0.002,0.977-0.395,1.281          c-4.404,3.458-8.403,7.406-11.882,11.795c-4.585,5.795-6.781,10.744-6.91,15.613c-0.129,5.912,3.237,12.023,8.571,15.604          c4.915,3.306,11.524,4.634,18.116,3.628c0.529-0.074,1.079,0.233,1.269,0.776c0.19,0.51-0.017,1.093-0.493,1.381          c-7.057,4.307-11.686,10.451-12.72,16.823c-0.441,2.705-0.083,5.696,0.983,8.396c-0.673,0.391-1.347,0.748-2.037,1.089          c-0.737-1.728-1.178-3.559-1.369-5.378c-0.153-1.389-0.139-2.713,0.058-4.024L213,130.71l0.016-0.017          c0.014-0.149,0.012-0.282,0.044-0.414c0.958-5.891,4.601-11.524,10.216-15.959c-5.645,0.065-11.081-1.462-15.361-4.347          c-6.002-4.002-9.761-10.918-9.609-17.592c0.078-3.776,1.33-7.652,3.77-11.777c0.63-1.052,1.327-2.105,2.106-3.176          l0.016-0.017c0.47-0.685,0.99-1.355,1.527-2.042c2.975-3.768,6.319-7.211,9.95-10.31          c-8.692-1.132-16.803-6.727-20.758-14.583C193.28,47.188,192.35,43.543,192.164,39.87z"/>
							</g>
							<g>
								<path style="fill:#D04D20;" d="M139.186,81.134c4.963,3.157,11.357,4.537,17.566,3.388          c9.098-1.705,17.66-8.401,22.886-17.914c0.242-0.418,0.702-0.656,1.167-0.596c0.481,0.043,0.867,0.385,1.006,0.846          c1.241,4.535,4.493,8.445,8.744,10.453c4.251,2.008,9.335,2.05,13.628,0.117l0.016-0.017          c0.444-0.188,0.959-0.08,1.295,0.246c0.101,0.098,0.185,0.212,0.253,0.344c0.274,0.592,0.002,1.275-0.59,1.548          c-0.987,0.445-2.025,0.808-3.081,1.055c-4.14,1.07-8.633,0.655-12.501-1.176c-4.084-1.911-7.379-5.373-9.177-9.503          c-5.632,8.956-14.151,15.205-23.232,16.893c-6.456,1.203-13.131-0.124-18.458-3.276          C138.845,82.729,138.999,81.932,139.186,81.134z"/>
							</g>
							<g>
								<path style="fill:#D04D20;" d="M137.985,89.695c7.227-1.727,14.966-1.227,21.895,1.653          c9.86,4.062,17.501,12.627,20.464,22.882c0.348,1.187,0.683,2.556,0.737,4.045c5.527-3.64,13.184-3.055,18.622-0.286          c2.635,1.353,4.962,3.124,7.028,5.13c2.384,2.316,4.459,4.952,6.285,7.575L213,130.71c0.592,0.836,1.167,1.688,1.709,2.542          c0.355,0.541,0.217,1.255-0.324,1.611c-0.46,0.272-1.04,0.23-1.426-0.112c-0.067-0.065-0.151-0.147-0.202-0.229          c-3.522-5.379-7.929-11.292-14.133-14.447c-5.471-2.802-13.472-3.1-18.154,1.72c-0.375,0.386-0.953,0.477-1.437,0.203          c-0.451-0.275-0.674-0.818-0.533-1.333c0.568-1.962,0.089-4.124-0.398-5.772c-2.736-9.447-10.057-17.636-19.118-21.379          c-6.562-2.719-14.151-3.139-21.079-1.35C137.91,91.352,137.931,90.523,137.985,89.695z"/>
							</g>
						</g>
						<g>
							<path style="fill:#D04D20;" d="M205.869,113.251c-3.913,0-7.827-1.14-11.093-3.315c-4.412-2.941-7.535-7.708-8.512-12.914         c-9.005,0.625-18.182-4.599-22.129-12.75c-0.282-0.583-0.04-1.282,0.543-1.564c0.576-0.284,1.281-0.039,1.563,0.542         c3.689,7.619,12.472,12.384,20.862,11.34c0.646-0.094,1.226,0.373,1.307,1.015c0.629,4.974,3.494,9.602,7.665,12.383         c4.171,2.779,9.545,3.645,14.379,2.308c0.617-0.169,1.267,0.193,1.44,0.817c0.171,0.622-0.194,1.267-0.818,1.44         C209.38,113.021,207.625,113.251,205.869,113.251z"/>
						</g>
					</g>
				</g>
				<path style="fill:#C8BD8A;" d="M239.796,166.885c0.373-9.865-2.318-19.714-1.392-29.543      c1.43-15.169,12.216-29.062,26.558-34.205c1.469,13.04,2.693,26.243-3.13,38.003      C257.01,150.876,246.805,158.583,239.796,166.885z"/>
				<path style="fill:#C8BD8A;" d="M216.43,161.556c-9.312,3.279-17.483,9.401-26.964,12.152      c-14.633,4.245-31.518-0.681-41.572-12.129c11.588-6.159,23.417-12.149,36.494-11.055      C195.215,151.43,206.132,158.089,216.43,161.556z"/>
			</g>
			<g>
				<g>
					<g>
						<g>
							<g>
								<path style="fill:#FFA7BE;" d="M151.618,229.579c-5.519-14.357-4.373-29.646,1.956-42.413          c0.353-0.713,0.714-1.404,1.076-2.094c5.821-10.565,15.242-19.203,27.37-23.865c27.272-10.484,57.866,3.138,68.35,30.41          c1.924,5.005,3.029,10.097,3.378,15.18c0.072,0.775,0.114,1.536,0.134,2.306c0.631,21.804-12.375,42.581-33.9,50.855          c-14.073,5.41-29.06,4.399-41.7-1.603c-0.734-0.345-1.477-0.711-2.207-1.108c-1.822-0.955-3.598-2.053-5.282-3.237          c-0.681-0.465-1.339-0.94-1.985-1.444C161.315,246.845,155.256,239.042,151.618,229.579z"/>
							</g>
							<g>
								<path style="fill:#D04D20;" d="M153.574,187.167c0.353-0.713,0.714-1.404,1.076-2.094c3.071,1.202,6.345,1.825,9.607,1.699          c8.969-0.287,17.554-5.945,21.39-14.041c0.224-0.462,0.701-0.721,1.2-0.662c0.469,0.045,0.886,0.412,0.996,0.896          c1.292,5.448,3.198,10.735,5.722,15.734c3.337,6.593,6.908,10.663,11.275,12.822c5.313,2.598,12.272,2.105,17.76-1.234          c5.063-3.075,9.041-8.517,10.893-14.923c0.155-0.511,0.664-0.882,1.237-0.827c0.543,0.042,0.985,0.474,1.047,1.027          c0.95,8.213,4.584,14.992,9.936,18.604c2.27,1.535,5.136,2.465,8.034,2.63c0.072,0.775,0.114,1.536,0.134,2.306          c-1.878-0.056-3.725-0.424-5.456-1.013c-1.325-0.444-2.521-1.012-3.629-1.74l-0.022,0.008l-0.008-0.022          c-0.129-0.076-0.25-0.13-0.358-0.214c-4.946-3.341-8.53-9.011-10.202-15.968c-2.309,5.151-5.975,9.445-10.39,12.12          c-6.151,3.769-14.006,4.28-20.001,1.343c-3.395-1.654-6.388-4.417-9.109-8.362c-0.691-1.014-1.354-2.088-1.999-3.244          l-0.009-0.022c-0.425-0.714-0.815-1.467-1.213-2.242c-2.173-4.281-3.895-8.761-5.185-13.357          c-4.674,7.415-13.155,12.431-21.946,12.725C160.685,189.224,156.986,188.539,153.574,187.167z"/>
							</g>
							<g>
								<path style="fill:#D04D20;" d="M168.808,252.568c4.947-3.181,8.883-8.406,10.444-14.524          c2.269-8.974-0.218-19.555-6.661-28.29c-0.277-0.395-0.301-0.913-0.052-1.309c0.24-0.418,0.713-0.625,1.19-0.558          c4.637,0.776,9.551-0.536,13.157-3.552c3.606-3.017,5.777-7.614,5.823-12.322l-0.009-0.022          c0.015-0.482,0.33-0.904,0.767-1.072c0.131-0.05,0.27-0.079,0.419-0.086c0.652,0,1.158,0.533,1.158,1.185          c-0.01,1.083-0.116,2.177-0.335,3.239c-0.765,4.207-3.027,8.111-6.312,10.854c-3.448,2.906-7.973,4.444-12.476,4.344          c5.767,8.869,7.866,19.224,5.589,28.176c-1.617,6.365-5.621,11.867-10.717,15.381          C170.112,253.547,169.453,253.073,168.808,252.568z"/>
							</g>
							<g>
								<path style="fill:#D04D20;" d="M176.075,257.249c1.464-7.285,5.165-14.1,10.685-19.182          c7.824-7.247,18.804-10.59,29.356-8.977c1.223,0.182,2.607,0.453,3.982,1.028c-0.986-6.544,2.757-13.25,7.552-17.024          c2.333-1.825,4.917-3.194,7.605-4.228c3.103-1.193,6.366-1.971,9.512-2.528l0.008,0.022          c1.007-0.186,2.022-0.351,3.024-0.485c0.64-0.096,1.23,0.33,1.326,0.97c0.054,0.531-0.227,1.041-0.699,1.247          c-0.087,0.034-0.197,0.076-0.293,0.087c-6.361,0.94-13.577,2.46-19.044,6.769c-4.838,3.791-8.465,10.929-6.054,17.201          c0.193,0.503,0.033,1.066-0.419,1.39c-0.439,0.294-1.025,0.269-1.434-0.076c-1.543-1.338-3.706-1.811-5.407-2.06          c-9.724-1.479-20.228,1.731-27.426,8.386c-5.222,4.816-8.786,11.529-10.068,18.568          C177.547,258.012,176.804,257.646,176.075,257.249z"/>
							</g>
						</g>
						<g>
							<path style="fill:#D04D20;" d="M225.935,205.509c-1.641,3.552-4.318,6.627-7.663,8.679         c-4.52,2.772-10.158,3.607-15.293,2.309c-3.21,8.436-11.802,14.575-20.857,14.739c-0.647,0.011-1.18-0.502-1.192-1.149         c-0.016-0.642,0.501-1.179,1.148-1.191c8.464-0.153,16.473-6.126,19.045-14.181c0.186-0.626,0.853-0.956,1.469-0.761         c4.779,1.515,10.182,0.856,14.456-1.764c4.273-2.62,7.313-7.135,8.127-12.084c0.105-0.631,0.707-1.07,1.346-0.964         c0.637,0.105,1.069,0.708,0.964,1.346C227.199,202.225,226.671,203.915,225.935,205.509z"/>
						</g>
					</g>
				</g>
				<path style="fill:#C8BD8A;" d="M224.438,279.935c-9.001,4.056-16.624,10.848-25.838,14.392      c-14.221,5.469-31.462,1.99-42.449-8.565c11.024-7.118,22.303-14.089,35.426-14.106      C202.441,271.642,213.883,277.352,224.438,279.935z"/>
			</g>
		</g>
	</g>
</g>















</svg>
