<?xml version="1.0" encoding="UTF-8"?>
<!-- Generator: Adobe Illustrator 26.5.0, SVG Export Plug-In . SVG Version: 6.00 Build 0)  -->
<svg xmlns="http://www.w3.org/2000/svg" xmlns:xlink="http://www.w3.org/1999/xlink" version="1.1" id="Capa_1" x="0px" y="0px" viewBox="0 0 512 512" style="enable-background:new 0 0 512 512;" xml:space="preserve" width="512" height="512">
<g>
	<path style="fill:#FFFFFF;" d="M255.999,512c-50.185,0-99.302-17.358-138.302-48.878c-51.985-42.018-81.799-104.426-81.799-171.224   c0-101.933,69.837-189.937,167.746-213.775V27.969c0-6.516,4.273-12.26,10.514-14.134L258.214,0.61   C259.593,0.201,261.006,0,262.41,0c0.608,0,1.214,0.037,1.816,0.112c0,0,6.921-0.106,6.997-0.106c3.872,0,7.591,1.522,10.354,4.242   c2.816,2.774,4.403,6.562,4.403,10.515v59.124c5.912,0.804,11.776,1.844,17.553,3.114c1.374-0.526,2.829-0.861,4.327-0.985   l17.936-4.995c1.786-0.894,3.743-1.446,5.78-1.609l9.963-2.775c2.757-2.829,6.568-4.461,10.568-4.461   c0.857,0,1.723,0.076,2.589,0.229c1.378,0.245,2.685,0.677,3.898,1.271l16.938-5.237c1.43-0.442,2.899-0.658,4.358-0.658   c0.112,0,8.814,0.004,8.814,0.004c4.052,0,7.926,1.667,10.714,4.609c2.787,2.941,4.242,6.901,4.022,10.946l-2.476,45.672   c-0.114,2.111-0.676,4.126-1.606,5.937c48.408,41.615,76.745,102.538,76.745,166.949c0,49.769-16.192,96.718-46.828,135.773   C387.209,481.263,324.054,512,255.999,512z"/>
	<g>
		<path style="fill:#FFC576;" d="M460.303,291.156c0,47.788-16.307,91.764-43.681,126.665    c-37.606,47.911-96.044,78.68-161.664,78.68c-48.87,0-93.757-17.094-129.026-45.599c-46.559-37.631-76.319-95.208-76.319-159.745    c0-113.408,91.937-205.345,205.345-205.345C368.366,85.811,460.303,177.748,460.303,291.156z"/>
		<g>
			<g>
				<g>
					<g>
						<g>
							<path style="fill:#F8EEE5;" d="M203.588,227.531l-0.905,14.612l-0.151,2.198l-0.948,15.345l-0.021,0.323l-0.129,1.854         l-6.078,97.178c0,0-1.121,15.41-20.927,28.599c-2.047,1.379-4.267,2.608-6.573,3.729c-0.69,0.345-1.401,0.668-2.134,0.991         c-15.216,6.703-34.677,8.642-50.108,8.923c-0.798,0.021-1.573,0.021-2.349,0.021c-13.642,0.129-23.578-0.991-23.578-0.991         s37.975-90.26,53.384-150.239c0.625-2.435,1.228-4.871,1.767-7.263c1.53-6.573,2.802-12.974,3.858-19.16l0.453-2.715v-0.022         c2.177-13.405,3.319-25.776,3.858-36.531c0.086-1.487,0.151-2.953,0.194-4.375c0.28-7.349,0.28-13.858,0.151-19.311         c-0.021-0.604-0.043-1.207-0.043-1.789c-0.022-0.474-0.043-0.905-0.043-1.358c-0.366-9.957-1.121-15.69-1.121-15.69         l2.091-0.237l12.824-1.444l1.315-0.151l0.905,3.75l1.423,5.819l5.582,22.802l0.733,2.974l0.517,2.09l2.953,12.091         l15.388,25.281l2.241,3.664l0.215,0.366L203.588,227.531z"/>
						</g>
						<g>
							<path style="fill:#351009;" d="M198.329,218.867c-0.69,0.496-1.379,0.992-2.069,1.487         c-15.41,10.841-33.018,19.375-51.423,22.457c7.953-34.182,8.944-63.923,8.513-82.113c1.487-1.336,3.017-2.586,4.612-3.772         c3.966-2.931,8.255-5.366,12.737-7.328l9.785,39.957L198.329,218.867z"/>
						</g>
					</g>
					<g>
						<path style="fill:#351009;" d="M154.04,236.496c-0.022,0.129-0.259,1.724-0.69,4.483        c-3.578,22.242-20.065,120.972-37.737,160.304c-0.798,0.021-1.573,0.021-2.349,0.021        c17.457-37.867,33.923-135.713,37.781-159.744c0.539-3.319,0.84-5.237,0.862-5.388c0.086-0.603,0.647-0.991,1.229-0.905        C153.717,235.354,154.126,235.893,154.04,236.496z"/>
					</g>
					<g>
						<path style="fill:#351009;" d="M167.855,391.369l7.543-139.355l0.108-1.875c0-0.151,0-0.28-0.065-0.41        c-0.043-0.151-0.108-0.28-0.216-0.388c-0.021-0.021-0.021-0.021-0.021-0.021c-0.108-0.108-0.237-0.172-0.366-0.237        c-0.108-0.043-0.216-0.065-0.345-0.065c-0.086,0-0.151,0-0.237,0.021c-0.474,0.065-0.862,0.474-0.905,0.991l-0.043,0.668        l-7.651,141.295c0,0.129,0,0.237,0.065,0.366L167.855,391.369z"/>
					</g>
				</g>
				<g>
					<g>
						<g>
							<path style="fill:#F8EEE5;" d="M386.285,380.507c0.56,1.638-99.053,0-99.053,0v-177.74l16.983-33.686l39.828-78.967         l7.026-13.923c0,0,0.539,4.634,1.466,12.759c1.207,10.561,3.103,27.005,5.366,46.854         C368.03,224.061,385.897,379.322,386.285,380.507z"/>
						</g>
						<g>
							<path style="fill:#351009;" d="M357.901,135.805c-16.035,13.793-34.203,25.086-53.686,33.276l39.828-78.967         c2.565-0.56,5.151-0.948,7.759-1.121c0.237-0.022,0.496-0.022,0.733-0.043C353.741,99.511,355.638,115.956,357.901,135.805z"/>
						</g>
					</g>
					<g>
						<path style="fill:#351009;" d="M301.547,382.125c-0.02,0-0.039,0-0.059-0.002c-0.593-0.032-1.05-0.539-1.019-1.132        l9.354-174.984c0.033-0.596,0.527-1.076,1.134-1.019c0.594,0.032,1.05,0.539,1.019,1.132l-9.354,174.984        C302.591,381.679,302.115,382.125,301.547,382.125z"/>
					</g>
					<g>
						<path style="fill:#351009;" d="M354.371,383.226c-0.572,0-1.048-0.45-1.076-1.027l-11.556-243.767        c-0.029-0.594,0.431-1.099,1.026-1.126c0.54-0.078,1.099,0.429,1.127,1.025l11.556,243.767        c0.028,0.594-0.431,1.099-1.026,1.126C354.405,383.226,354.389,383.226,354.371,383.226z"/>
					</g>
					<g>
						<path style="fill:#351009;" d="M369.228,381.576c-0.551,0-1.022-0.421-1.072-0.981l-22.011-244.319        c-0.054-0.593,0.384-1.118,0.977-1.17c0.589-0.025,1.117,0.383,1.17,0.977l22.011,244.319c0.054,0.594-0.384,1.118-0.977,1.17        C369.293,381.573,369.26,381.576,369.228,381.576z"/>
					</g>
				</g>
				<g>
					<g>
						<polygon style="fill:#351009;" points="378.858,71.799 387.662,71.799 385.186,117.471 374.181,121.873       "/>
					</g>
					<g>
						<polygon style="fill:#351009;" points="226.16,27.227 226.16,488.349 270.181,488.349 270.181,14.021 261.285,14.159               "/>
					</g>
					<g>
						<g>
							<polygon style="fill:#D04D20;" points="378.849,71.796 377.535,90.093 377.405,91.882 375.272,121.883 372.772,122.594          371.716,122.874 350.983,128.714 349.797,129.038 317.792,138.047 316.779,138.327 303.482,142.077 302.167,142.443          279.365,148.844 278.223,149.167 262.08,153.715 261.369,153.909 261.369,488.353 217.36,488.353 217.36,166.28          215.894,166.689 214.817,166.991 194.687,172.659 193.394,173.025 176.713,177.702 175.592,178.026 161.475,181.991          160.376,182.314 146.971,186.086 145.893,186.388 118.63,194.06 118.307,194.146 118.307,152.314 125.225,150.18          126.928,149.642 149.449,142.68 152.143,141.861 181.002,132.939 182.187,132.572 208.071,124.577 209.17,124.232          213.998,122.745 215.054,122.421 217.36,121.71 217.36,27.226 228.632,23.842 229.688,23.519 237.468,21.191 238.524,20.868          258.697,14.812 259.774,14.489 261.369,14.015 261.369,108.111 268.115,106.02 269.343,105.654 305.551,94.447          306.973,94.016 324.861,88.477 326.241,88.067 346.672,81.753 348.073,81.322 352.621,79.899 353.892,79.511        "/>
						</g>
						<g>
							<g>
								<g>
									<path style="fill:#351009;" d="M125.677,151.387c-2.565,3.729-5,7.651-7.371,11.444v-2.004           c2.069-3.362,4.224-6.767,6.487-10.043c0.151-0.194,0.28-0.41,0.431-0.603l1.703-0.539           C126.496,150.223,126.087,150.805,125.677,151.387z"/>
								</g>
								<g>
									<path style="fill:#351009;" d="M152.143,141.861c-2.586,2.241-5.388,4.354-8.168,6.444           c-2.974,2.22-6.013,4.504-8.686,6.918c-8.836,7.91-14.914,19.181-16.681,30.906c-0.388,2.586-0.366,5.302,0.022,7.931           l-0.323,0.086v-12.069c2.435-10.539,8.211-20.474,16.25-27.673c2.715-2.414,5.798-4.741,8.772-6.961           c2.069-1.552,4.138-3.125,6.121-4.763L152.143,141.861z"/>
								</g>
								<g>
									<path style="fill:#351009;" d="M162.618,155.094l0.452,0.086l-1.595,26.811l-1.099,0.323l1.573-26.25           c-2.5-0.366-5.022,0.28-7.371,1.853c-3.621,2.479-6.552,7.134-7.436,11.897c-0.797,4.31-0.56,8.793-0.323,13.147           c0.065,1.035,0.108,2.069,0.151,3.125l-1.078,0.302c-0.043-1.142-0.086-2.263-0.151-3.362           c-0.237-4.418-0.474-8.987,0.345-13.427c0.948-5.086,3.966-9.914,7.888-12.565           C156.712,155.18,159.687,154.512,162.618,155.094z"/>
								</g>
								<g>
									<path style="fill:#351009;" d="M182.187,132.572c-2.371,8.858-3.082,18.384-3.836,28.233           c-0.41,5.582-0.84,11.272-1.638,16.897l-1.121,0.323c0.819-5.733,1.272-11.573,1.703-17.306           c0.69-9.311,1.401-18.837,3.707-27.781L182.187,132.572z"/>
								</g>
								<g>
									<path style="fill:#351009;" d="M208.071,124.577l1.099-0.345c-0.474,13.837-5.819,26.962-10.992,39.699           c-1.185,2.866-2.371,5.798-3.491,8.729l-1.293,0.366c1.229-3.211,2.521-6.379,3.793-9.504           C202.273,150.999,207.532,138.09,208.071,124.577z"/>
								</g>
								<g>
									<path style="fill:#351009;" d="M215.894,166.689l-1.078,0.302c0.259-14.763-0.021-29.526-0.819-44.246l1.056-0.323           C215.873,137.163,216.131,151.926,215.894,166.689z"/>
								</g>
								<g>
									<path style="fill:#351009;" d="M217.36,304.579v-6.401c14.483-85.562,25.647-181.813,11.272-274.336l1.056-0.323           C244.472,118.477,232.382,217.358,217.36,304.579z"/>
								</g>
								<g>
									<path style="fill:#351009;" d="M242.252,233.522c-1.746,13.039-4.504,26.1-7.198,38.729           c-2.716,12.845-5.539,26.121-7.263,39.354c-3.987,30.669-2.22,62.221-0.517,92.717c1.552,27.63,3.125,56.079,0.452,84.031           h-1.078c2.694-27.91,1.099-56.358-0.452-83.967c-1.703-30.561-3.47-62.156,0.539-92.932           c1.724-13.255,4.547-26.552,7.263-39.419c2.694-12.63,5.453-25.668,7.177-38.643c3.901-29.354,2.651-59.419,1.423-88.493           l-4.914-117.89c-0.086-1.94-0.151-3.879-0.215-5.819l1.056-0.323c0.065,2.047,0.151,4.073,0.237,6.078l4.914,117.911           C244.903,173.974,246.153,204.082,242.252,233.522z"/>
								</g>
								<g>
									<path style="fill:#351009;" d="M243.201,327.36c-6.272,49.182-12.78,100.045-6.983,149.916           c0.41,3.405,1.013,7.328,2.22,11.078h-1.121c-1.164-3.707-1.789-7.586-2.155-10.948           c-5.819-50.022,0.69-100.95,6.983-150.196c4.634-36.208,9.418-73.665,9.289-110.605           c-0.043-16.768-1.121-33.858-2.134-50.389c-1.94-30.906-3.923-62.867,0.646-93.988c0.97-6.681,2.285-13.492,3.535-20.086           c2.349-12.306,4.742-24.85,5.216-37.328l1.078-0.323c-0.431,12.651-2.866,25.367-5.237,37.845           c-1.25,6.595-2.543,13.384-3.535,20.065c-4.548,30.992-2.543,62.91-0.625,93.751c1.013,16.552,2.091,33.643,2.134,50.453           C252.641,253.609,247.835,291.109,243.201,327.36z"/>
								</g>
								<g>
									<path style="fill:#351009;" d="M261.369,455.961v4.935c-2.155,9.267-4.806,18.427-7.974,27.457h-1.142           C256.003,477.728,258.998,466.931,261.369,455.961z"/>
								</g>
								<g>
									<path style="fill:#351009;" d="M264.58,123.607c0.862-5.28,1.983-11.272,3.534-17.586l1.229-0.367           c-1.66,6.509-2.823,12.694-3.707,18.125c-1.616,9.936-2.78,19.914-3.556,29.936c-0.28,3.642-0.517,7.306-0.711,10.97           c-0.948,18.168-0.776,36.444,0,54.656v20.324C258.955,200.979,258.33,161.862,264.58,123.607z"/>
								</g>
								<g>
									<path style="fill:#351009;" d="M306.973,94.016c-3.298,6.573-7.306,12.974-11.25,19.268l-1.508,2.414           c-6.336,10.151-12.543,21.509-14.849,33.147l-1.142,0.323c2.22-11.961,8.578-23.621,15.065-34.031l1.53-2.435           c3.75-5.97,7.543-12.026,10.733-18.255L306.973,94.016z"/>
								</g>
								<g>
									<path style="fill:#351009;" d="M326.241,88.067c-1.789,3.75-3.47,7.673-5.151,11.724l-17.608,42.285l-1.315,0.366           l17.931-43.061c1.573-3.75,3.125-7.392,4.763-10.905L326.241,88.067z"/>
								</g>
								<g>
									<path style="fill:#351009;" d="M346.672,81.753l1.401-0.431c-2.414,5.259-5.69,10.151-8.879,14.224           c-1.487,1.875-3.017,3.772-4.569,5.647c-7.177,8.793-14.612,17.888-16.746,28.923c-0.582,2.996-0.604,5.668-0.086,7.931           l-1.013,0.28c-0.603-2.435-0.56-5.259,0.043-8.427c2.177-11.293,9.698-20.496,16.961-29.375           c1.552-1.896,3.082-3.772,4.548-5.647C341.306,91.085,344.344,86.602,346.672,81.753z"/>
								</g>
								<g>
									<path style="fill:#351009;" d="M351.651,107.788c0.28,4.655,0.582,9.461,0.28,14.203c-0.108,1.875-0.388,4.203-0.948,6.724           l-1.185,0.323c0.646-2.651,0.927-5.151,1.056-7.112c0.302-4.677,0-9.44-0.28-14.073c-0.259-4.009-0.517-8.168-0.388-12.263           c0.172-5.28,1.013-10.582,2.435-15.69l1.272-0.388c-1.552,5.237-2.457,10.668-2.629,16.099           C351.155,99.662,351.392,103.8,351.651,107.788z"/>
								</g>
								<g>
									<path style="fill:#351009;" d="M377.405,91.882c-4.72,5.41-8.492,11.207-8.341,18.104           c0.086,4.354,1.832,8.556,3.707,12.608l-1.056,0.28c-1.897-4.117-3.642-8.362-3.729-12.867           c-0.172-7.737,4.246-14.052,9.548-19.914L377.405,91.882z"/>
								</g>
							</g>
							<g>
								<g>
									<path style="fill:#351009;" d="M249.3,343.028c3.082-8.685,7.112-15.905,12.069-21.552v1.659           c-4.483,5.388-8.19,12.177-11.056,20.259c-6.595,18.513-6.638,37.285-0.129,52.867c1.746,4.181,5.28,10.884,11.185,14.957           v1.293c-4.957-3.19-9.181-8.664-12.177-15.841C242.576,380.852,242.619,361.8,249.3,343.028z"/>
								</g>
							</g>
							<g>
								<g>
									<path style="fill:#351009;" d="M231.778,89.533c-1.099,4.935-3.772,8.923-7.349,10.97           c-1.358,0.776-2.759,1.185-4.052,1.185c-0.841,0-1.616-0.173-2.306-0.496c-0.259-0.129-0.496-0.259-0.711-0.409v-1.401           c0.345,0.345,0.711,0.625,1.164,0.841c2.09,0.991,4.461-0.129,5.367-0.647c3.319-1.896,5.798-5.647,6.832-10.259           c0.948-4.267,0.668-8.879,0.41-12.931c-0.604-9.892-1.358-22.199-7.457-31.789c-0.733-1.164-1.659-2.392-2.974-2.694           c-1.185-0.28-2.349,0.28-3.34,1.142v-1.358c1.207-0.819,2.414-1.078,3.578-0.819c1.702,0.388,2.845,1.875,3.642,3.147           c6.25,9.828,7.026,22.285,7.629,32.307C232.468,80.438,232.748,85.136,231.778,89.533z"/>
								</g>
							</g>
						</g>
					</g>
				</g>
				<g>
					<g>
						<path style="fill:#F8EEE5;" d="M184.706,127.376c0,0-9.171,45.855,4.769,67.132c13.94,21.277,63.276,21.231,77.404-6.603        c24.579-48.423,26.413-93.545,26.413-93.545l57.961-16.141c0,0-12.84,88.409-45.489,133.898        c-32.649,45.488-73.369,60.162-115.556,44.388s-44.021-41.086-47.323-65.298c-3.302-24.212,1.467-50.991,1.467-50.991        L184.706,127.376z"/>
					</g>
					<g>
						<path style="fill:#351009;" d="M219.125,263.471c-53.537,0-70.81-40.576-71.001-41.041c-0.225-0.551,0.039-1.181,0.589-1.406        c0.547-0.225,1.18,0.038,1.406,0.589c0.208,0.511,21.827,51.085,92.341,37.32c41.827-8.175,73.733-48.945,94.828-121.176        c0.777-2.656,1.336-4.574,1.757-5.784c0.196-0.564,0.815-0.857,1.371-0.665c0.563,0.196,0.86,0.81,0.664,1.372        c-0.403,1.157-0.985,3.155-1.724,5.68c-21.34,73.066-53.801,114.344-96.484,122.685        C234.264,262.73,226.362,263.471,219.125,263.471z"/>
					</g>
					<g>
						<path style="fill:#351009;" d="M215.648,222.271c-10.121,0-18.812-3.107-25.938-9.29        c-26.161-22.697-22.569-78.37-22.402-80.73c0.041-0.593,0.53-1.056,1.15-1c0.594,0.042,1.041,0.558,0.999,1.151        c-0.039,0.566-3.681,56.964,21.668,78.953c9.347,8.109,21.615,10.601,36.46,7.408        c65.063-13.979,79.357-126.698,79.494-127.835c0.072-0.591,0.612-1.031,1.199-0.941c0.591,0.069,1.012,0.606,0.942,1.198        c-0.139,1.153-14.618,115.383-81.182,129.687C223.699,221.806,219.565,222.271,215.648,222.271z"/>
					</g>
					<g>
						<path style="fill:#351009;" d="M213.16,245.16c-14.542,0-26.694-4.27-36.287-12.784        c-31.842-28.255-24.737-92.501-24.419-95.221c0.07-0.591,0.59-0.998,1.195-0.947c0.59,0.07,1.014,0.606,0.945,1.196        c-0.077,0.657-7.29,65.858,23.711,93.362c13.541,12.014,32.516,15.2,56.407,9.467c94.359-22.646,96.015-154.455,96.02-155.783        c0.002-0.594,0.484-1.073,1.078-1.073c0.001,0,0.003,0,0.004,0c0.596,0.002,1.076,0.486,1.073,1.082        c-0.001,0.337-0.278,34.02-12.368,70.084c-11.195,33.395-35.081,75.733-85.304,87.787        C227.349,244.217,219.989,245.16,213.16,245.16z"/>
					</g>
				</g>
			</g>
			<path style="fill:#351009;" d="M416.622,417.821c-37.606,47.911-96.044,78.68-161.664,78.68     c-48.87,0-93.757-17.094-129.026-45.599c30.326-9.1,62.693-11.412,93.953-6.247c4.279,0.689,8.707,1.549,12.937,0.566     c2.878-0.689,5.485-2.14,8.092-3.566c37.557-20.463,80.032-31.801,122.779-32.785c15.987-0.369,32.269,0.738,47.198,6.469     C412.834,416.075,414.753,416.911,416.622,417.821z"/>
		</g>
	</g>
</g>















</svg>
