<?xml version="1.0" encoding="UTF-8"?>
<!-- Generator: Adobe Illustrator 26.5.0, SVG Export Plug-In . SVG Version: 6.00 Build 0)  -->
<svg xmlns="http://www.w3.org/2000/svg" xmlns:xlink="http://www.w3.org/1999/xlink" version="1.1" id="Capa_1" x="0px" y="0px" viewBox="0 0 512 512" style="enable-background:new 0 0 512 512;" xml:space="preserve" width="512" height="512">
<g>
	<path style="fill:#FFFFFF;" d="M295.37,479.134c-3.261,0-6.646-0.406-10.058-1.209c-18.857-4.433-23.227-29.39-28.182-69.971   c-0.738-6.04-1.435-11.746-2.124-16.055c-0.046-0.217-0.088-0.431-0.125-0.651c-1.674-9.7-5.34-14.198-6.998-15.792   c-0.056-0.018-0.112-0.036-0.169-0.057c-7.104-2.255-25.23-8.499-45.909-19.274c-0.181,0.005-0.362,0.008-0.544,0.008   c-2.75,0-5.482-0.695-7.902-2.007l0,0c0,0-4.428-2.346-12.559-5.856c-6.055,0.716-18.936,2.725-34.885,8.034   c-5.253,1.749-10.38,3.632-15.338,5.453c-13.412,4.929-24.007,8.819-33.151,8.819c-13.759,0-19.354-8.729-21.121-12.482   c-1.749-3.71-2.295-7.742-1.659-11.684c-8.84,2.826-16.324,4.774-22.998,4.774c-14.423,0-19.978-9.15-21.697-13.082   c-2.668-6.104-2.145-12.963,1.435-18.817c2.24-3.663,5.751-6.802,10.007-9.478c-13.141-6.327-26.677-15.347-30.531-26.179   c-2.3-6.463-1.403-13.283,2.462-18.708c1.475-2.069,3.272-3.818,5.31-5.208C6.462,238.011,0,213.447,0,187.771   c0-81.392,66.218-147.61,147.61-147.61c47.385,0,91.879,23.226,119.38,60.834c1.443-2.222,2.843-4.405,4.217-6.546   c17.207-26.84,33.462-52.19,79.092-60.129c5.521-0.964,11.045-1.454,16.408-1.454c29.333,0,48.685,14.221,58.288,23.653   c0.196,0,0.395,0,0.599,0c14.894,0,44.287,1.294,73.786,9.961c6.558,1.94,11.352,7.551,12.241,14.301   c0.202,1.576,4.106,34.588-18.438,55.311c-0.975,9.344-4.693,24.572-17.72,38.021c-3.118,3.219-6.913,5.89-11.35,7.993   c-1.342,12.041-7.269,26.544-23.158,36.755c-3.759,2.415-7.594,4.425-11.478,6.016c-1.585,8.535-5.014,19.01-12.402,26.399   c-8.615,8.615-20.734,13.774-34.512,14.782c-0.81,11.715-5.705,20.951-14.382,26.505c-7.04,4.508-15.938,7.107-25.899,7.595   c-3.035,5.957-8.02,12.214-16.201,16.438c-0.09,0.046-0.182,0.093-0.274,0.139c19.882,32.237,29.763,47.437,41.811,61.144   c8.074,9.189,21.418,27.215,20.058,44.714c-0.61,7.84-3.99,14.529-9.774,19.349c-1.314,1.095-4.084,3.095-8.105,4.405   c-2.074,4.939-4.3,7.163-5.289,8.153c-4.275,4.278-13.154,9.282-24.084,9.282c-0.071,0-0.143,0-0.216,0   c-2.607,4.206-6.068,7.688-10.285,10.269c-4.818,2.945-10.408,4.503-16.171,4.503c-2.626,0-5.24-0.313-7.821-0.933   C302.958,478.519,299.44,479.134,295.37,479.134z"/>
	<g>
		
			<ellipse transform="matrix(0.7071 -0.7071 0.7071 0.7071 -89.3424 158.3257)" style="fill:#FFC576;" cx="146.445" cy="187.009" rx="131.738" ry="131.738"/>
		<g>
			<path style="fill:#F8EEE5;" d="M475.05,128.026c0,0,2.123,7.748-5.625,24.65c-7.748,16.875-24.65,14.779-24.65,14.779     s8.272,14.366-7.279,29.558c-10.092,9.871-25.091,14.09-25.091,14.09s2.564,22.058-14.807,30.964     c-17.73,9.127-35.9,4.219-35.9,4.219s6.59,22.527-3.971,30.992c-10.56,8.437-29.117,4.219-29.117,4.219     s-0.689,9.844-7.748,16.902c-7.031,7.031-22.527,2.812-22.527,2.812s10.56,28.869,33.804,59.833     c23.244,30.992,36.617,45.054,37.306,58.427c0.717,13.373-14.779,8.465-14.779,8.465s1.406,9.843-7.031,15.468     c-8.465,5.652-20.432-2.096-20.432-2.096s1.406,11.967-6.342,16.902c-7.72,4.908-15.468,0.689-15.468,0.689     s-5.653,5.625-17.619,2.812c-11.967-2.812-14.779-51.396-18.281-73.206c-0.028-0.248-0.083-0.496-0.138-0.717     c-3.667-21.259-15.358-27.435-15.358-27.435s-0.855-0.248-2.426-0.772c-14.751-4.687-92.314-31.764-115.834-85.834     c-26.056-59.833,7.031-124.602,7.031-124.602l-6.342-11.25l-1.406-16.902c0,0,15.11-22.748,43.648-18.308     c32.398,5.018,51.037,42.821,57.379,58.234c0.993,2.454,1.682,4.329,2.068,5.432l0.165,0.441     c0.138,0.441,0.221,0.662,0.221,0.662s0-0.028,0.028-0.028l10.174,25.726c0,0,35.927-22.444,64.631-56.387     c0.303-0.331,0.579-0.662,0.855-0.993c28.869-34.494,69.704-51.754,69.704-51.754s11.443-8.52,34.053-11.002     c0.055,0.083,0.083,0.11,0.083,0.11c0.524-0.11,1.048-0.193,1.599-0.276c0.276-0.055,0.551-0.083,0.827-0.138     c22.555-2.895,72.903,9.568,72.903,9.568C498.266,104.809,475.05,128.026,475.05,128.026z"/>
			<path style="fill:#FFA7BE;" d="M417.947,73.018c-22.61,2.482-34.053,11.002-34.053,11.002s-40.835,17.261-69.704,51.754     c-0.276,0.331-0.552,0.662-0.855,0.993c-28.703,33.942-64.631,56.387-64.631,56.387l-10.174-25.726     c0.827-1.103,16.709-22.637,37.278-53.491c21.121-31.654,31.681-57.021,76.046-64.741     C394.648,41.723,416.485,70.977,417.947,73.018z"/>
			<polygon style="fill:#D04D20;" points="135.022,120.988 116.014,131.9 137.134,139.292 141.358,126.62    "/>
			<circle style="fill:#351009;" cx="161.07" cy="124.508" r="5.632"/>
			
				<path style="fill:none;stroke:#351009;stroke-width:2.7573;stroke-linecap:round;stroke-linejoin:round;stroke-miterlimit:10;" d="     M214.573,198.427c0,0,23.936,7.509,56.788-21.589S362.879,77.81,418.025,73.117c0,0,37.781-1.877,75.327,9.152     c0,0,4.224,32.618-20.65,45.759c-20.27,10.709-44.117,8.917-44.117,8.917"/>
			
				<path style="fill:none;stroke:#351009;stroke-width:2.7573;stroke-linecap:round;stroke-linejoin:round;stroke-miterlimit:10;" d="     M405.588,166.982c0,0,41.77,9.387,56.319-5.632c14.549-15.018,13.141-33.322,13.141-33.322"/>
			
				<path style="fill:none;stroke:#351009;stroke-width:2.7573;stroke-linecap:round;stroke-linejoin:round;stroke-miterlimit:10;" d="     M389.631,206.875c0,0,16.827,12.146,40.831-3.285c19.712-12.672,15.018-33.322,15.018-33.322"/>
			
				<path style="fill:none;stroke:#351009;stroke-width:2.7573;stroke-linecap:round;stroke-linejoin:round;stroke-miterlimit:10;" d="     M335.189,223.301c0,0,8.448,18.304,26.517,22.997c18.069,4.693,33.557,0.469,42.005-7.979c8.448-8.448,8.682-27.221,8.682-27.221     "/>
			
				<path style="fill:none;stroke:#351009;stroke-width:2.7573;stroke-linecap:round;stroke-linejoin:round;stroke-miterlimit:10;" d="     M308.438,254.746l20.181,26.752c0,0,17.365,3.285,29.098-4.224c11.733-7.509,3.989-30.975,3.989-30.975"/>
			
				<path style="fill:none;stroke:#351009;stroke-width:2.7573;stroke-linecap:round;stroke-linejoin:round;stroke-miterlimit:10;" d="     M276.993,248.645c0,0,7.04,34.261,29.567,70.868c22.528,36.607,33.322,53.503,46.933,68.991     c13.61,15.488,20.65,32.383,12.202,39.423c0,0-4.224,3.755-11.029,0c-6.805-3.755-19.008-18.304-26.517-37.077"/>
			
				<path style="fill:none;stroke:#351009;stroke-width:2.7573;stroke-linecap:round;stroke-linejoin:round;stroke-miterlimit:10;" d="     M304.918,390.146c0,0,13.845,44.586,23.466,51.861c9.621,7.275,19.946,2.347,22.762-0.469c2.816-2.816,3.989-12.672,3.989-12.672     "/>
			
				<path style="fill:none;stroke:#351009;stroke-width:2.7573;stroke-linecap:round;stroke-linejoin:round;stroke-miterlimit:10;" d="     M284.033,402.349c0,0,11.029,51.86,21.354,56.554c10.325,4.693,21.354-0.704,22.058-15.957"/>
			<path style="fill:#351009;" d="M279.807,364.105l-10.45,23.685c-3.667-21.259-15.358-27.435-15.358-27.435     s-0.855-0.248-2.426-0.772L279.807,364.105z"/>
			
				<path style="fill:none;stroke:#351009;stroke-width:2.7573;stroke-linecap:round;stroke-linejoin:round;stroke-miterlimit:10;" d="     M296.235,300.505c0,0,9.856,5.632,20.768,0c10.912-5.632,11.616-19.008,11.616-19.008"/>
			<path style="fill:#D04D20;" d="M420.483,72.77c-0.303,0.027-0.579,0.055-0.855,0.083c0.276-0.055,0.551-0.083,0.827-0.138     L420.483,72.77z"/>
		</g>
		<g>
			
				<path style="fill:none;stroke:#C8BD8A;stroke-width:1.3925;stroke-linecap:round;stroke-linejoin:round;stroke-miterlimit:10;" d="     M200.096,338.802c0,0-48.003-25.959-122.897-36.167"/>
			<path style="fill:#C8BD8A;" d="M182.554,331.291c0,0-18.11,0.968-42.818,9.191c-24.709,8.224-46.019,19.05-50.239,10.09     c-4.22-8.96,25.678-19.345,47.636-21.307C159.092,327.303,182.554,331.291,182.554,331.291z"/>
			<path style="fill:#C8BD8A;" d="M163.655,323.087c0,0-15.091-10.058-32.164-29.721c-17.073-19.663-29.896-39.835-38.092-34.275     c-8.196,5.561,12.242,29.728,30.138,42.602C141.433,314.566,163.655,323.087,163.655,323.087z"/>
			<path style="fill:#C8BD8A;" d="M136.889,314.321c0,0-18.13,0.459-43.059,7.985c-24.93,7.526-46.536,17.751-50.502,8.676     c-3.967-9.075,26.211-18.616,48.216-19.961C113.548,309.676,136.889,314.321,136.889,314.321z"/>
			<path style="fill:#C8BD8A;" d="M113.225,308.901c0,0-17.648-4.175-40.499-16.664c-22.851-12.489-41.894-26.935-47.641-18.869     c-5.747,8.066,21.826,23.606,43.084,29.444C89.427,308.651,113.225,308.901,113.225,308.901z"/>
		</g>
	</g>
</g>















</svg>
