<?xml version="1.0" encoding="iso-8859-1"?>
<!-- Generator: Adobe Illustrator 28.0.0, SVG Export Plug-In . SVG Version: 6.00 Build 0)  -->
<svg xmlns="http://www.w3.org/2000/svg" xmlns:xlink="http://www.w3.org/1999/xlink" version="1.1" id="Layer_1" x="0px" y="0px" viewBox="0 0 512 512" style="enable-background:new 0 0 512 512;" xml:space="preserve">
<g>
	<g>
		<g>
			<path style="fill:#F7E5D5;" d="M505.565,245.185c0,0-21.448,50.76,0,101.519L272.499,498.271L26.561,416.768l-7.148-65.416     L505.565,245.185z"/>
			<path style="fill:#6DC6FC;" d="M270.336,482.891c-26.809-35.898-4.326-75.437-4.097-75.832l3.095,1.801     c-0.217,0.374-21.499,37.919,3.87,71.888L270.336,482.891z"/>
			
				<rect x="309.458" y="369.82" transform="matrix(0.8294 -0.5587 0.5587 0.8294 -143.7184 272.6484)" style="fill:#6DC6FC;" width="130.089" height="3.58"/>
			
				<rect x="276.242" y="387.367" transform="matrix(0.8661 -0.4999 0.4999 0.8661 -144.1223 240.3501)" style="fill:#6DC6FC;" width="200.549" height="3.582"/>
			
				<rect x="356.61" y="399.005" transform="matrix(0.8834 -0.4686 0.4686 0.8834 -143.3402 225.4686)" style="fill:#6DC6FC;" width="49.661" height="3.583"/>
			
				<rect x="140.836" y="388.654" transform="matrix(0.2578 -0.9662 0.9662 0.2578 -312.8569 459.4379)" style="fill:#6DC6FC;" width="3.58" height="89.417"/>
			
				<rect x="131.659" y="336.332" transform="matrix(0.2299 -0.9732 0.9732 0.2299 -306.0251 453.3367)" style="fill:#6DC6FC;" width="3.582" height="167.426"/>
			
				<rect x="121.811" y="358.503" transform="matrix(0.2741 -0.9617 0.9617 0.2741 -299.8135 412.8992)" style="fill:#6DC6FC;" width="3.582" height="93.092"/>
		</g>
		<g>
			<polygon style="fill:#FC8215;" points="312.534,198 512,238.035 508.426,254.479 262.49,429.638 26.561,355.284 26.561,416.768      274.642,491.121 505.565,335.872 508.426,352.424 274.642,504.704 21.556,422.488 13.693,345.276    "/>
			<path style="fill:#FFC83E;" d="M258.685,399.622L60.6,343.551l247.59-129.842l0.607,0.112l165.825,30.361L258.685,399.622z      M70.218,342.551l187.778,53.153l207.709-149.516l-156.944-28.734L70.218,342.551z"/>
			<polygon style="fill:#FFC83E;" points="261.979,419.77 261.138,419.526 23.723,349.99 24.73,346.552 261.304,415.843      507.074,238.642 509.169,241.548    "/>
		</g>
	</g>
	<g>
		<path style="fill:#2F3ABC;" d="M445.661,87.832L222.603,7.296L0.671,146.159l2.597,12.614l87.078,35.781l20.103,120.44    c0,0,128.617,87.816,270.451-21.869l15.57-157.53l44.779-35.085L445.661,87.832z"/>
		<polygon style="fill:#130749;" points="242.077,258.84 241.114,258.443 2.588,160.43 3.948,157.118 241.51,254.734     440.144,99.102 442.354,101.92   "/>
		<polygon style="fill:#130749;" points="238.908,244.37 0,147.819 1.343,144.5 238.38,240.296 444.591,86.397 446.731,89.268   "/>
		<path style="fill:#FFC83E;" d="M235.959,118.338c-9.147,0-16.563,4.709-16.563,10.519c0,1.2,0.383,2.333,0.965,3.406    l-104.887,59.864l6.597,67.018c-5.202,0.995-8.989,3.838-8.989,7.231c0,2.429,1.964,4.567,4.969,5.966    c-1.623,7.106-3.751,18.077-1.537,18.479c3.282,0.596,5.073-9.313,5.073-9.313s0.895,22.145,4.476,20.056s4.177-19.1,4.177-19.1    s4.775,18.801,8.804,16.414c4.029-2.387-4.328-19.397-4.328-19.397s9.549,13.427,12.534,9.25    c2.163-3.027-5.377-13.384-9.699-18.869c0.923-1.051,1.493-2.224,1.493-3.487c0-3.567-4.174-6.536-9.792-7.376l-6.197-62.952    L226.07,137.25c2.766,1.319,6.165,2.126,9.888,2.126c9.147,0,16.563-4.709,16.563-10.519S245.105,118.338,235.959,118.338z"/>
		<path style="fill:#FFC83E;" d="M229.031,340.255l-0.032-3.581c1.179-0.01,2.362-0.03,3.551-0.059l0.088,3.581    C231.431,340.226,230.227,340.245,229.031,340.255z M225.417,340.255c-1.208-0.01-2.411-0.03-3.606-0.058l0.084-3.581    c1.177,0.028,2.362,0.047,3.553,0.058L225.417,340.255z M218.202,340.079c-1.21-0.049-2.411-0.107-3.604-0.175l0.199-3.574    c1.175,0.065,2.359,0.122,3.551,0.172L218.202,340.079z M236.247,340.077l-0.147-3.578c1.175-0.049,2.359-0.107,3.55-0.173    l0.203,3.574C238.644,339.97,237.443,340.028,236.247,340.077z M210.99,339.672c-1.208-0.089-2.406-0.187-3.597-0.292l0.318-3.567    c1.173,0.105,2.353,0.199,3.545,0.289L210.99,339.672z M243.455,339.666l-0.262-3.571c1.174-0.087,2.354-0.182,3.541-0.288    l0.318,3.567C245.847,339.481,244.649,339.579,243.455,339.666z M203.799,339.03c-1.205-0.128-2.399-0.264-3.584-0.409    l0.433-3.553c1.168,0.142,2.345,0.275,3.532,0.402L203.799,339.03z M250.647,339.019l-0.381-3.56    c1.172-0.126,2.348-0.259,3.532-0.402l0.434,3.553C253.03,338.757,251.836,338.893,250.647,339.019z M196.636,338.154    c-1.201-0.164-2.392-0.339-3.574-0.523l0.549-3.539c1.161,0.18,2.335,0.352,3.515,0.516L196.636,338.154z M257.809,338.143    l-0.49-3.546c1.166-0.163,2.336-0.334,3.511-0.518l0.553,3.539C260.187,337.806,258.996,337.981,257.809,338.143z M189.499,337.05    c-1.194-0.204-2.38-0.418-3.553-0.638l0.661-3.518c1.156,0.217,2.32,0.427,3.497,0.628L189.499,337.05z M264.943,337.034    l-0.605-3.528c1.161-0.199,2.327-0.411,3.499-0.63l0.657,3.522C267.305,336.62,266.122,336.832,264.943,337.034z M182.403,335.718    c-1.189-0.243-2.366-0.493-3.53-0.75l0.773-3.497c1.147,0.254,2.306,0.5,3.474,0.74L182.403,335.718z M272.037,335.702    l-0.717-3.508c1.154-0.236,2.312-0.483,3.474-0.74l0.773,3.497C274.387,335.212,273.209,335.463,272.037,335.702z     M175.351,334.163c-1.182-0.281-2.35-0.568-3.504-0.864l0.885-3.469c1.137,0.289,2.287,0.572,3.452,0.85L175.351,334.163z     M279.087,334.148l-0.829-3.483c1.149-0.273,2.299-0.556,3.454-0.848l0.878,3.473C281.418,333.584,280.25,333.871,279.087,334.148    z M168.355,332.383c-1.173-0.318-2.333-0.644-3.476-0.972l0.993-3.441c1.126,0.325,2.268,0.644,3.424,0.958L168.355,332.383z     M286.08,332.375l-0.934-3.459c1.138-0.306,2.28-0.624,3.424-0.951l0.986,3.441C288.395,331.74,287.236,332.062,286.08,332.375z     M293.018,330.386l-1.039-3.427c1.128-0.341,2.259-0.694,3.394-1.056l1.091,3.41C295.312,329.682,294.164,330.04,293.018,330.386z     M161.418,330.381c-1.166-0.355-2.315-0.717-3.446-1.082l1.102-3.406c1.11,0.358,2.242,0.713,3.391,1.065L161.418,330.381z     M299.889,328.194l-1.14-3.396c1.117-0.374,2.236-0.759,3.357-1.156l1.196,3.375C302.16,327.421,301.023,327.812,299.889,328.194z     M154.548,328.164c-1.156-0.394-2.292-0.792-3.41-1.193l1.21-3.371c1.096,0.393,2.215,0.785,3.354,1.171L154.548,328.164z     M306.692,325.796l-1.238-3.361c1.105-0.408,2.215-0.825,3.327-1.254l1.283,3.343    C308.939,324.957,307.815,325.382,306.692,325.796z M147.75,325.725c-1.149-0.434-2.271-0.867-3.369-1.301l1.315-3.329    c1.081,0.427,2.186,0.853,3.317,1.28L147.75,325.725z M313.424,323.2l-1.336-3.322c1.095-0.439,2.191-0.888,3.287-1.348    l1.385,3.301C315.647,322.297,314.533,322.754,313.424,323.2z M141.032,323.067c-1.14-0.472-2.249-0.942-3.326-1.411l1.423-3.284    c1.06,0.458,2.151,0.921,3.273,1.387L141.032,323.067z M320.076,320.418l-1.427-3.284c1.081-0.471,2.165-0.951,3.251-1.441    l1.473,3.263C322.272,319.453,321.174,319.94,320.076,320.418z M134.403,320.19c-1.131-0.514-2.226-1.025-3.279-1.525l1.539-3.235    c1.035,0.493,2.109,0.993,3.223,1.5L134.403,320.19z M326.647,317.451l-1.518-3.242c1.068-0.502,2.139-1.011,3.212-1.53    l1.56,3.224C328.813,316.429,327.729,316.945,326.647,317.451z M127.872,317.083c-1.133-0.563-2.208-1.112-3.224-1.643    l1.658-3.176c0.998,0.521,2.053,1.06,3.161,1.612L127.872,317.083z M333.136,314.308l-1.605-3.203    c1.054-0.526,2.11-1.065,3.167-1.614l1.651,3.179C335.274,313.226,334.204,313.771,333.136,314.308z M121.455,313.729    c-1.156-0.633-2.21-1.229-3.16-1.777l1.791-3.102c0.928,0.537,1.958,1.119,3.09,1.738L121.455,313.729z M339.537,310.996    l-1.689-3.158c1.042-0.556,2.085-1.121,3.128-1.696l1.728,3.137C341.646,309.861,340.59,310.433,339.537,310.996z     M115.168,310.091c-2.046-1.257-3.109-1.999-3.109-1.999l2.046-2.941c0.025,0.018,1.03,0.715,2.941,1.89L115.168,310.091z     M345.848,307.522l-1.766-3.116c1.026-0.582,2.054-1.172,3.083-1.773l1.808,3.092    C347.931,306.333,346.889,306.933,345.848,307.522z M352.073,303.89l-1.843-3.071c1.012-0.607,2.027-1.224,3.043-1.85l1.878,3.05    C354.121,302.652,353.096,303.277,352.073,303.89z M358.205,300.11l-1.913-3.025c0.997-0.631,1.995-1.27,2.994-1.922l1.955,3.001    C360.229,298.823,359.216,299.472,358.205,300.11z M364.245,296.188l-1.983-2.98c0.983-0.654,1.967-1.318,2.953-1.99l2.014,2.959    C366.233,294.857,365.238,295.528,364.245,296.188z M370.194,292.129l-2.049-2.938c0.969-0.675,1.937-1.36,2.906-2.055    l2.085,2.913C372.154,290.751,371.173,291.444,370.194,292.129z M376.051,287.94l-2.116-2.889l2.866-2.119l2.144,2.868    C377.978,286.522,377.013,287.235,376.051,287.94z"/>
	</g>
</g>
<g>
</g>
<g>
</g>
<g>
</g>
<g>
</g>
<g>
</g>
<g>
</g>
<g>
</g>
<g>
</g>
<g>
</g>
<g>
</g>
<g>
</g>
<g>
</g>
<g>
</g>
<g>
</g>
<g>
</g>
</svg>
