<?xml version="1.0" encoding="UTF-8"?>
<!-- Generator: Adobe Illustrator 26.5.0, SVG Export Plug-In . SVG Version: 6.00 Build 0)  -->
<svg xmlns="http://www.w3.org/2000/svg" xmlns:xlink="http://www.w3.org/1999/xlink" version="1.1" id="Capa_1" x="0px" y="0px" viewBox="0 0 512 512" style="enable-background:new 0 0 512 512;" xml:space="preserve" width="512" height="512">
<g>
	<path style="fill:#FFFFFF;" d="M122.854,512c-4.854,0-9.289-0.328-13.182-0.979c-12.472-2.08-22.849-8.938-30.009-19.835   c-4.904-7.458-7.783-16.403-8.326-25.861l-2.666-46.47c-7.224-0.808-12.801-6.734-13.019-14.155   c-0.067-2.186,0.352-4.279,1.16-6.173c0.536-22.325,2.743-91.526,9.91-119.236c7.751-29.976,37.05-55.118,47.18-63.072   c7.708-8.057,16.489-16.749,23.551-23.627c-5.481-4.501-11.277-8.836-17.272-13.32c-9.17-6.857-18.653-13.949-27.449-22.065   c-8.724-8.049-20.477-20.746-21.822-38.006c-0.882-11.322,3.089-23.35,11.182-33.868c6.437-8.365,14.509-14.764,21.63-20.408   c10.452-8.288,21.262-16.619,31.716-24.677c10.38-8,21.113-16.273,31.42-24.444c2.462-1.951,5.458-2.951,8.475-2.951   c2.164,0,4.339,0.515,6.335,1.561c6.614,3.472,12.16,8.275,16.253,13.894C221.365,10.135,250.462,0,280.392,0   c74.156,0,134.486,60.331,134.486,134.487c0,74.157-60.331,134.488-134.486,134.488c-1.227,0-2.456-0.018-3.685-0.051   c1.854,4.668,3.62,9.3,5.292,13.879c7.219,5.593,10.973,14.741,10.241,25.608c-0.104,1.563-0.209,3.194-0.313,4.857   c0.209,0.73,0.413,1.454,0.613,2.169c0.072-0.08,0.143-0.158,0.214-0.237c18.505-20.592,29.896-31.204,41.27-32.713   c4.171-2.619,9.882-5.258,15.97-5.258c2.745,0,5.368,0.519,7.8,1.541c3.678,1.554,6.596,4.57,8.018,8.284   c0.538,1.421,0.849,2.903,0.937,4.39c0.063,0.062,0.127,0.127,0.189,0.191c3.932,4.038,4.974,10.079,2.624,15.202   c-1.164,2.537-3.526,7.667-6.517,14.079c16.819-10.166,38.95-23.57,38.951-23.57c2.201-1.334,4.641-1.973,7.056-1.973   c1.251,0,2.494,0.171,3.695,0.508c6.516-5.744,14.18-9.758,23.076-9.758c0.365,0,0.731,0.009,1.096,0.022   c0.685-0.124,1.363-0.217,2.033-0.282v0.002c0.469-0.044,0.979-0.071,1.415-0.071c7.421,0,13.57,5.447,14.526,12.758   c0.792,1.636,1.291,3.441,1.424,5.347c0.079,1.119,0.031,2.222-0.133,3.294c0.361,4.777-0.701,8.921-3.177,12.359   c-0.201,0.28-0.413,0.553-0.635,0.815c-0.037,3.571-1.189,7.926-4.71,12.801c-0.932,1.29-3.178,4.615-5.78,8.466   c-17.648,26.125-28.382,41.23-34.55,46.222c-5.46,4.422-65.865,49.243-101.864,73.743c-0.508,12.11-1.152,19.557-1.184,19.921   c-0.616,7.045-6.513,12.45-13.585,12.45h-91.504C177.738,504.509,146.296,512,122.854,512z"/>
	<g>
		
			<ellipse transform="matrix(0.7071 -0.7071 0.7071 0.7071 -12.362 237.9036)" style="fill:#FFC576;" cx="280.994" cy="133.874" rx="120.85" ry="120.85"/>
		<g>
			<g>
				<rect x="287.024" y="52.206" style="fill:#F8EEE5;" width="15.972" height="151.962"/>
				
					<rect x="287.936" y="40.798" transform="matrix(-1.836970e-16 1 -1 -1.836970e-16 393.9909 -197.854)" style="fill:#F8EEE5;" width="15.972" height="114.542"/>
			</g>
			<g>
				<path style="fill:#FF9181;" d="M262.866,402.231c0,0,76.775-36.61,84.239-43.719c7.464-7.109,3.199-14.218,20.26-24.525      c17.061-10.308,42.297-25.592,42.297-25.592s4.265,5.687-2.488,12.085c-6.753,6.398-16.35,12.44-14.573,18.838      c0,0,10.308-7.109,13.151-11.729c2.844-4.621,18.127-33.411,35.189-27.724l0.275,0.641c1.153,2.69,3.033,8.09,1.325,10.467      l-5.065,5.865c0,0,4.354,1.333-0.267,7.731c-4.621,6.398-30.39,46.03-37.854,52.072c-7.464,6.043-116.94,87.083-126.892,88.86      S262.866,402.231,262.866,402.231z"/>
				<path style="opacity:0.38;fill:#D04D20;" d="M262.866,402.231c0,0,76.775-36.61,84.239-43.719      c7.464-7.109,3.199-14.218,20.26-24.525c17.061-10.308,42.297-25.592,42.297-25.592s4.265,5.687-2.488,12.085      c-6.753,6.398-16.35,12.44-14.573,18.838c0,0,10.308-7.109,13.151-11.729c2.844-4.621,18.127-33.411,35.189-27.724l0.275,0.641      c1.153,2.69,3.033,8.09,1.325,10.467l-5.065,5.865c0,0,4.354,1.333-0.267,7.731c-4.621,6.398-30.39,46.03-37.854,52.072      c-7.464,6.043-116.94,87.083-126.892,88.86S262.866,402.231,262.866,402.231z"/>
				<g>
					<path style="fill:#351009;" d="M387.742,364.133c-0.242,0-0.484-0.084-0.682-0.253c-0.436-0.377-0.485-1.036-0.109-1.473       c1.771-2.053,2.844-5.018,3.189-8.814c0.159-1.732,0.172-3.525,0.185-5.257c0.012-1.6,0.025-3.255,0.149-4.893       c0.268-3.574,1.073-7.108,1.901-10.394c0.141-0.561,0.708-0.897,1.267-0.758c0.56,0.141,0.898,0.709,0.758,1.267       c-0.806,3.197-1.587,6.625-1.844,10.041c-0.118,1.568-0.13,3.186-0.143,4.752c-0.013,1.776-0.027,3.613-0.193,5.432       c-0.386,4.238-1.627,7.598-3.687,9.988C388.326,364.011,388.034,364.133,387.742,364.133z"/>
				</g>
				<g>
					<path style="fill:#351009;" d="M404.688,361.067c-0.339,0-0.673-0.165-0.874-0.47c-5.22-7.941-7.923-14.785-10.375-22.617       c-0.172-0.551,0.134-1.136,0.684-1.308c0.553-0.172,1.136,0.134,1.308,0.684c2.4,7.665,5.041,14.354,10.128,22.092       c0.316,0.482,0.183,1.13-0.299,1.447C405.083,361.012,404.885,361.067,404.688,361.067z"/>
				</g>
				<g>
					<path style="fill:#351009;" d="M396.691,343.473c-0.361,0-0.712-0.187-0.905-0.522c-0.287-0.5-0.117-1.138,0.382-1.427       c0.067-0.039,6.785-3.963,10.861-9.822l0.928-1.345c5.716-8.315,20.898-30.404,32.887-31.532       c0.581-0.072,1.084,0.368,1.137,0.941c0.055,0.574-0.367,1.083-0.941,1.137c-11.017,1.038-26.33,23.316-31.362,30.637       l-0.934,1.355c-4.35,6.25-11.241,10.27-11.532,10.438C397.048,343.428,396.868,343.473,396.691,343.473z"/>
				</g>
				<g>
					<path style="fill:#351009;" d="M401.222,351.47c-0.335,0-0.664-0.161-0.866-0.46c-0.323-0.477-0.198-1.127,0.279-1.449       c0.097-0.065,9.714-6.633,14.331-15.097c3.868-7.092,19.922-30.684,27.234-31.198c0.596-0.062,1.075,0.393,1.114,0.968       c0.041,0.575-0.392,1.075-0.968,1.115c-5.385,0.379-20.191,20.294-25.548,30.115c-4.864,8.918-14.583,15.549-14.995,15.827       C401.627,351.412,401.423,351.47,401.222,351.47z"/>
				</g>
				<g>
					<path style="fill:#351009;" d="M402.829,356.911c-0.491,0-0.929-0.349-1.025-0.848c-0.108-0.567,0.264-1.113,0.83-1.221       c2.415-0.46,4.41-2.347,6.206-4.317c2.902-3.184,5.553-6.639,7.878-10.266c0.936-1.459,1.823-2.952,2.71-4.445       c1.722-2.895,3.502-5.889,5.63-8.612c3.818-4.887,8.274-8.047,12.889-9.14c0.557-0.138,1.124,0.213,1.256,0.775       c0.133,0.561-0.214,1.124-0.775,1.256c-5.241,1.242-9.268,5.25-11.725,8.394c-2.046,2.619-3.792,5.555-5.481,8.395       c-0.899,1.512-1.8,3.025-2.748,4.505c-2.388,3.725-5.11,7.273-8.092,10.545c-2.039,2.237-4.343,4.386-7.358,4.961       C402.96,356.905,402.893,356.911,402.829,356.911z"/>
				</g>
			</g>
			<path style="fill:#5F75CB;" d="M282.771,329.011c-15.995-65.401-53.316-130.091-58.648-137.2     c-5.332-7.109-63.624-2.488-63.624-2.488s-21.041,19.866-36.824,36.425c-7.21,5.576-36.164,29.331-43.15,56.345     c-7.997,30.923-9.597,121.561-9.597,121.561l67.882,2.64l-0.348,73.424h152.839C291.302,479.717,298.766,394.412,282.771,329.011     z"/>
			<g>
				<path style="fill:#FF9181;" d="M225.541,213.305c-16.643,4.072-83.027-28.859-63.983-20.256l-5.847-31.991l53.312-0.251      l5.576,11.005l7.706,15.14l3.508,6.912C225.812,193.864,235.898,210.799,225.541,213.305z"/>
				<path style="fill:#351009;" d="M222.304,186.952c-11.276-3.592-22.95-6.348-31.616-14.221c7.977,0.605,15.996,0.292,23.91-0.919      L222.304,186.952z"/>
			</g>
			<g>
				<path style="fill:#FF9181;" d="M247.371,151.01c-1.095,3.685-7.981,9.139-16.972,14.214      c-7.391,4.148-16.193,8.023-24.385,10.402c-14.509,4.232-29.923-6.97-35.566-11.666c-14.803,1.579-30.154-2.843-42.157-13.498      c-22.553-20.047-24.574-54.602-4.527-77.155c20.047-22.553,54.602-24.595,77.155-4.527c5.686,5.054,10.086,11.034,13.14,17.52      c1.221,2.064,2.885,4.822,4.759,8.044c9.265,1.537,24.258,4.064,24.679,5.117c0.4,0.926-8.233,9.328-12.466,16.046      c0.105,0.232,0.253,0.442,0.358,0.674c0.59,1.053,1.158,2.085,1.748,3.137c0.337,0.611,0.674,1.221,1.011,1.832      c0.884,1.621,1.769,3.243,2.611,4.822c0.232,0.421,0.463,0.863,0.695,1.284C243.538,138.733,248.087,148.546,247.371,151.01z"/>
				<path style="fill:#D04D20;" d="M138.685,147.487c1.433-4.009,5.485-6.441,9.452-7.985c7.237-2.816,15.902-3.609,22.417,0.618      c2.612-4.817,3.668-10.934,2.94-16.365c-1.252-9.33-7.353-17.182-13.233-24.533c6.347-1.158,12.508-4.177,16.582-9.18      c4.074-5.003,5.768-12.117,3.492-18.155c8.876-3.159,13.45-15.038,12.105-24.363c-1.344-9.325-8.166-17.268-16.508-21.645      c-20.76,16.458-42.377,32.661-63.137,49.119c-6.918,5.485-13.91,11.044-19.294,18.04c-5.384,6.996-9.08,15.69-8.394,24.492      c0.9,11.54,8.968,21.193,17.475,29.042c19.019,17.549,42.113,30.484,59.837,49.34c4.562-7.731,5.324-16.747,2.922-25.397      c-0.637-2.295-1.545-4.564-3.076-6.39c-3.09-3.685-8.097-4.959-12.633-6.557C145.096,155.971,139.87,152.147,138.685,147.487z"/>
				<g>
					<g>
						<path style="fill:#351009;" d="M205.287,102.767c1.292,2.463,3.893,3.645,5.809,2.64c1.916-1.005,2.421-3.817,1.129-6.28        c-1.292-2.463-3.893-3.645-5.809-2.64C204.499,97.492,203.994,100.303,205.287,102.767z"/>
						<path style="fill:#D04D20;" d="M199.744,81.605c1.846-0.63,3.957-0.889,5.247,0.294c1.233,1.13,1.312,3.31,0.616,5.168        c-0.696,1.858-2.027,3.453-3.396,4.911c-1.914,2.04-4.081,3.992-6.556,4.789c-3.692,1.188-7.996-1.564-6.272-6.075        C190.956,86.577,196.092,82.851,199.744,81.605z"/>
					</g>
				</g>
				<g>
					<path style="fill:#351009;" d="M234.147,121.15c-3.138,1.664-6.654,2.569-10.213,2.569c-0.821,0-1.621-0.063-2.422-0.147       c-0.568-0.063-0.99-0.59-0.927-1.179c0.063-0.569,0.59-0.99,1.179-0.906c3.917,0.463,7.896-0.358,11.371-2.169       C233.473,119.929,233.81,120.539,234.147,121.15z"/>
				</g>
				<path style="fill:#FF9181;" d="M137.894,140.781c-1.137,5.954,0.635,12.395,4.66,16.928c4.024,4.533,10.209,7.057,16.256,6.634      c12.573-0.88,16.496-13.614,12.892-24.257c-2.556-7.547-14.389-13.944-21.966-12.284      C143.673,129.13,139.029,134.84,137.894,140.781z"/>
			</g>
			<g>
				<path style="fill:#FF9181;" d="M348.439,301.286l3.999-9.33c-7.139-2.931-13.231,4.668-13.231,4.668      c-9.519-0.977-29.509,22.473-38.552,32.243c-9.043,9.771-23.322,11.725-23.322,11.725s0.952-19.542,1.904-33.709      c0.952-14.168-9.519-16.122-9.519-16.122l-21.955,85.447l-90.995,40.773l-0.533-14.928l-74.109,2.133l3.428,59.744      c0.39,6.797,2.368,13.465,6.108,19.154c3.969,6.039,10.458,12.139,20.854,13.871c22.393,3.732,67.533-6.136,90.104-20.793      c41.053-26.658,86.372-69.311,86.372-69.311l-0.211-0.205c12.588-11.836,29.988-29.594,35.196-37.232      c6.664-9.771,33.793-68.884,33.793-68.884C355.389,298.089,348.439,301.286,348.439,301.286z"/>
				<g>
					<path style="fill:#351009;" d="M70.928,404.697c-0.562,0-1.026-0.447-1.043-1.012c-0.017-0.577,0.436-1.058,1.012-1.076       l93.557-2.813l1.755-78.272c0.013-0.576,0.45-0.99,1.067-1.021c0.576,0.013,1.033,0.491,1.021,1.068l-1.777,79.262       c-0.012,0.555-0.458,1.003-1.012,1.021l-94.547,2.844C70.949,404.697,70.939,404.697,70.928,404.697z"/>
				</g>
				<g>
					<path style="fill:#351009;" d="M150.548,422.113c-0.395,0-0.773-0.224-0.949-0.607c-0.242-0.523-0.013-1.144,0.511-1.386       l97.215-44.861c0.524-0.241,1.144-0.013,1.386,0.511c0.242,0.523,0.013,1.144-0.511,1.386l-97.215,44.861       C150.843,422.083,150.694,422.113,150.548,422.113z"/>
				</g>
				<g>
					<path style="fill:#351009;" d="M277.332,341.636c-0.52,0-0.971-0.389-1.035-0.918c-0.07-0.572,0.337-1.093,0.91-1.162       c0.116-0.014,11.691-1.49,18.291-7.328c1.665-1.473,4.624-4.766,8.049-8.577c14.762-16.428,28.625-30.937,36.045-27.997       c0.278,0.11,0.497,0.334,0.598,0.617c0.102,0.281,0.078,0.593-0.066,0.855l-23.024,41.983c-0.276,0.507-0.91,0.692-1.417,0.414       c-0.506-0.277-0.691-0.913-0.414-1.417l22.348-40.751c-7.35-0.257-23.587,17.756-32.516,27.691       c-3.611,4.018-6.463,7.193-8.219,8.745c-7.092,6.274-18.921,7.776-19.421,7.837       C277.416,341.634,277.373,341.636,277.332,341.636z"/>
				</g>
				<g>
					<path style="fill:#351009;" d="M328.444,343.917c-0.15,0-0.302-0.033-0.447-0.101c-0.521-0.247-0.743-0.87-0.496-1.391       l23.724-50.054c-3.76-0.458-9.34,3.372-11.348,5.053c-0.441,0.373-1.099,0.31-1.471-0.13c-0.37-0.443-0.312-1.101,0.129-1.471       c0.364-0.306,8.987-7.445,14.573-5.097c0.263,0.111,0.469,0.324,0.571,0.59c0.101,0.266,0.09,0.562-0.033,0.82l-24.259,51.184       C329.209,343.696,328.835,343.917,328.444,343.917z"/>
				</g>
			</g>
		</g>
	</g>
</g>















</svg>
