<?xml version="1.0" encoding="UTF-8"?>
<!-- Generator: Adobe Illustrator 25.4.1, SVG Export Plug-In . SVG Version: 6.00 Build 0)  -->
<svg xmlns="http://www.w3.org/2000/svg" xmlns:xlink="http://www.w3.org/1999/xlink" version="1.1" id="Capa_1" x="0px" y="0px" viewBox="0 0 512 512" style="enable-background:new 0 0 512 512;" xml:space="preserve" width="512" height="512">
<g>
	<path style="fill:#FFFFFF;" d="M46.87,512c-8.191,0-14.832-6.641-14.832-14.832V223.963c0-43.988,12.746-86.56,36.859-123.115   c5.369-8.169,11.438-16.162,18.023-23.738C129.499,28.107,191.128,0,256.001,0c59.818,0,116.058,23.298,158.362,65.601   c35.482,35.481,58.225,82.347,64.04,131.965c1.033,8.673,1.56,17.563,1.56,26.398v273.205c0,8.191-6.641,14.832-14.832,14.832   H46.87z"/>
	<path style="fill:#7182FF;" d="M463.944,225.891v189.355l-11.262,31.284l11.262,12.915v37.723h-29.169l-192.318-45.715   L75.025,497.168H45.682v-84.394l6.153-10.763l-6.153-13.561V223.963c0-42.469,12.657-81.971,34.41-114.948   c0,0,12.085-2.143,14.683-5.595c2.985-3.966,2.151-16.578,2.151-16.578c38.341-44.125,94.85-72.009,157.886-72.009   c57.746,0,110.029,23.41,147.875,61.256c32.383,32.383,54.186,75.322,59.798,123.205c0,0-8.95,10.503-8.723,14.882   C454.149,221.636,463.944,225.891,463.944,225.891z"/>
	<g>
		<g>
			<circle style="fill:#FFCBBE;" cx="171.013" cy="89.141" r="12.904"/>
			<circle style="fill:#FFCBBE;" cx="138.086" cy="217.289" r="12.904"/>
			<circle style="fill:#FFCBBE;" cx="373.914" cy="92.7" r="12.904"/>
			<circle style="fill:#FFCBBE;" cx="414.85" cy="369.465" r="12.904"/>
			<path style="fill:#FFCBBE;" d="M45.682,412.774c1.335,0.494,2.793,0.742,4.301,0.742c7.119,0,12.904-5.784,12.904-12.904     s-5.784-12.904-12.904-12.904c-1.508,0-2.966,0.247-4.301,0.742V412.774z"/>
		</g>
		<g>
			<path style="fill:#FFA761;" d="M268.088,29.763c-28.502,0-51.912,21.68-54.681,49.44h27.736     c2.571-12.533,13.646-21.951,26.945-21.951c13.275,0,24.349,9.418,26.92,21.951h27.736     C319.975,51.443,296.565,29.763,268.088,29.763z"/>
			<path style="fill:#FFA9DD;" d="M463.944,225.891v-1.928c0-8.355-0.494-16.587-1.458-24.67     c-13.25,3.139-25.239,11.47-32.655,24.151c-13.522,23.064-7.095,52.332,14.115,67.758l13.151-22.495     c-8.924-8.009-11.322-21.457-4.993-32.235C454.946,231.602,459.148,227.992,463.944,225.891z"/>
			<path style="fill:#F7607D;" d="M125.553,115.665c-5.414-13.67-15.994-23.731-28.626-28.823     c-6.081,6.995-11.717,14.387-16.834,22.174c9.319,0.89,17.774,6.872,21.457,16.167c4.598,11.594,0.222,24.522-9.839,31.098     l9.591,24.226C124.589,168.491,135.391,140.533,125.553,115.665z"/>
		</g>
		<g>
			<g>
				<g>
					<path style="fill:#FF8C9D;" d="M111.141,242.298c-11.44-11.767-23.158-1.527-27.903,3.748       c-4.745-5.275-16.463-15.514-27.903-3.748c-5.869,6.036-4.205,14.868-0.842,21.724c5.872,11.974,17.477,18.264,28.634,24.583       c0,0,0.017,0.008,0.017,0.008c0.654,0.291,5.091-2.901,5.893-3.37c2.119-1.24,4.221-2.514,6.268-3.87       c5.774-3.823,11.252-8.632,15.006-14.6c3.923-6.237,6.902-14.668,2.997-21.597C112.716,244.125,111.98,243.161,111.141,242.298       z"/>
				</g>
			</g>
		</g>
		<g>
			<g>
				<g>
					<path style="fill:#FF8C9D;" d="M416.383,147.966c-11.44-11.767-23.158-1.527-27.903,3.748       c-4.745-5.275-16.463-15.514-27.903-3.748c-5.869,6.036-4.205,14.868-0.842,21.724c5.872,11.974,17.477,18.264,28.634,24.583       c0,0,0.017,0.008,0.017,0.008c0.654,0.291,5.091-2.901,5.893-3.37c2.119-1.24,4.221-2.514,6.268-3.87       c5.774-3.823,11.252-8.632,15.006-14.6c3.923-6.237,6.902-14.668,2.997-21.597C417.958,149.794,417.222,148.83,416.383,147.966       z"/>
				</g>
			</g>
		</g>
		<g>
			<g>
				<g>
					<path style="fill:#FF8C9D;" d="M463.944,415.246v44.2c-1.533,1.013-3.114,1.977-4.697,2.892       c-0.791,0.445-4.845,3.387-5.809,3.387c-0.024,0-0.074,0-0.099-0.025c-9.344-5.29-18.985-10.555-25.313-19.133       c-1.261-1.681-2.373-3.485-3.337-5.438c-2.966-6.032-4.598-13.596-0.939-19.43c0.469-0.791,1.063-1.557,1.78-2.299       c11.445-11.767,23.163-1.533,27.909,3.733C455.663,420.66,459.42,417.125,463.944,415.246z"/>
				</g>
			</g>
		</g>
	</g>
	<g>
		<path style="fill:#512651;" d="M247.594,93.843c20.123-2.826,41.347-0.216,59.136,9.605c17.789,9.821,31.729,27.289,35.101,47.328    c1.359,8.072,1.036,16.351,2.315,24.436c1.279,8.085,4.521,16.383,11.202,21.112c6.484,4.589,14.94,5.015,22.436,7.645    c19.182,6.732,30.597,30.193,24.055,49.441c-2.998,8.82-9.212,16.958-8.778,26.263c0.42,9.007,7.067,16.508,14.259,21.946    c7.192,5.438,15.386,9.744,21.331,16.523c5.945,6.779,9.101,17.224,4.282,24.845c0,0.148-0.731,0.075-0.731,0.223H126.477    c-3.551-14.758-7.111-31.466-0.552-45.154c5.241-10.937,15.843-18.07,25.222-25.758c9.379-7.688,18.513-17.715,18.673-29.842    c0.117-8.816-4.573-16.902-6.697-25.46c-1.813-7.307-1.737-14.992-0.557-22.427c0.648-4.081,1.666-8.209,3.972-11.638    c2.032-3.021,4.939-5.319,7.627-7.774c10.196-9.309,17.712-21.519,21.429-34.815c1.593-5.696,2.506-11.585,4.489-17.157    C206.595,104.897,228.181,93.639,247.594,93.843z"/>
		<g>
			<polygon style="fill:#FF8C9D;" points="308.505,227.226 308.505,322.151 234.938,322.151 234.938,297.827    "/>
			<path style="fill:#512651;" d="M304.945,241.242c-6.852,15.579-16.788,30.084-30.235,40.667     c-11.335,8.946-25.353,14.929-39.771,15.917v-29.435c4.254-0.48,8.508-1.016,10.735-2.06     C264.574,257.555,286.045,250.048,304.945,241.242z"/>
		</g>
		<path style="fill:#BD6EEB;" d="M434.775,497.168h-63.975l-41.751-16.256l-36.883,16.256H156.156c0,0-79.821-21.259-77.695-35.819    c0.074-0.494,0.148-0.989,0.223-1.483c6.501-43.186,23.682-102.662,69.043-128.222c14.14-7.984,31.122-14.239,46.276-18.886    c22.025-6.749,40.194-10.036,40.194-10.036s3.881,3.757,12.533,5.958c5.389,1.384,12.657,2.151,22.001,1.013    c24.324-2.966,41.678-9.492,41.678-9.492s33.125,7.515,61.058,24.052c12.879,7.614,24.646,17.156,31.592,28.75    C420.709,382.517,431.289,465.551,434.775,497.168z"/>
		<g>
			<path style="fill:#FF8C9D;" d="M321.236,182.656c-1.286,4.87-3.14,9.492-5.364,13.893l0.939,0.247l-15.425,56.905     c-3.189,11.791-13.102,20.023-24.572,20.418l-68.005,2.324c-14.066,0.494-26.005-10.877-27.241-25.857     c-2.324-28.576-1.211-67.189-0.618-82.515c0.173-4.227,0.297-6.699,0.297-6.699l0.074,0.025     c1.557-37.97,32.778-68.252,71.119-68.252c1.483,0,2.967,0.049,4.425,0.148c1.014,0.074,2.052,0.148,3.041,0.272     c35.844,3.708,63.728,33.965,63.728,70.773C323.634,170.667,322.818,176.822,321.236,182.656z"/>
			<g>
				<circle style="fill:#512651;" cx="199.045" cy="199.046" r="7.119"/>
				<circle style="fill:#512651;" cx="254.22" cy="199.046" r="7.119"/>
				<path style="fill:#F7607D;" d="M225.298,192.594l-16.843,25.566c-1.118,1.964,0.042,4.444,2.267,4.844l17.691,3.184      L225.298,192.594z"/>
				<path style="fill:#512651;" d="M186.294,182.784c-0.295,0-0.59-0.104-0.826-0.316c-0.508-0.456-0.55-1.238-0.094-1.745      c4.987-5.545,12.219-6.981,20.367-4.029c0.642,0.232,0.974,0.939,0.742,1.581c-0.233,0.645-0.941,0.975-1.582,0.741      c-4.135-1.494-11.931-3.047-17.688,3.358C186.969,182.646,186.632,182.784,186.294,182.784z"/>
				<path style="fill:#512651;" d="M266.726,182.784c-0.338,0-0.675-0.138-0.92-0.41c-5.758-6.404-13.551-4.852-17.688-3.358      c-0.639,0.237-1.348-0.097-1.582-0.741c-0.232-0.642,0.1-1.349,0.742-1.581c8.149-2.952,15.382-1.518,20.367,4.029      c0.456,0.507,0.414,1.289-0.094,1.745C267.316,182.68,267.02,182.784,266.726,182.784z"/>
				<path style="fill:#512651;" d="M227.839,237.132c-4.169,0-8.285-2.091-10.7-5.504c-0.395-0.558-0.262-1.33,0.296-1.724      c0.555-0.398,1.329-0.261,1.722,0.295c2.115,2.989,5.834,4.724,9.486,4.43c3.649-0.302,7.039-2.624,8.636-5.917      c0.298-0.616,1.036-0.874,1.651-0.575c0.614,0.299,0.87,1.038,0.572,1.651c-1.97,4.065-6.153,6.931-10.657,7.303      C228.511,237.12,228.174,237.132,227.839,237.132z"/>
			</g>
			<path style="fill:#512651;" d="M326.748,164.339c0,6.328-0.844,12.484-2.481,18.317c-0.512,0.766-1.049,1.533-1.586,2.274     c-5.321,7.589-11.716,15.153-17.036,22.718c-2.609-6.625-2.046-15.425-8.364-19.01c-3.53-2.002-7.981-1.459-11.895-2.596     c-7.316-2.101-11.638-9.987-11.485-17.353c0.154-5.958,2.302-12.978-2.098-17.156c-1.944-1.854-4.732-2.571-7.418-3.115     c-6.881-1.434-14.069-2.348-20.208-5.661c-6.165-3.313-11.153-9.839-9.951-16.538c0.409-2.225,1.433-4.277,2.532-6.279     c5.397-9.913,12.508-18.96,20.898-26.648C296.232,95.568,326.748,126.492,326.748,164.339z"/>
			<path style="fill:#512651;" d="M259.906,93.565c-7.91,10.852-15.796,21.68-23.707,32.531     c-3.732,5.142-8.578,10.827-14.906,10.432c-4.227-0.247-7.91-3.263-12.113-3.411c-5.389-0.173-9.814,4.4-12.063,9.295     c-2.274,4.87-3.139,10.333-5.611,15.104c-2.299,4.499-6.056,8.232-10.555,10.556c0.173-4.227,0.297-6.699,0.297-6.699     l0.074,0.025c1.557-37.97,32.778-68.252,71.119-68.252c1.483,0,2.967,0.049,4.425,0.148     C257.879,93.368,258.917,93.442,259.906,93.565z"/>
			<g>
				<path style="fill:#FF8C9D;" d="M294.592,202.278c2.513-7,7.863-12.953,14.586-16.231c4.179-2.037,8.946-3.062,13.547-2.349      c4.601,0.712,8.99,3.284,11.385,7.245c1.51,2.497,2.185,5.42,2.371,8.326c0.392,6.117-1.297,12.217-3.851,17.799      c-3.012,6.584-7.652,12.938-14.457,15.529c-8.606,3.276-19.408-1.09-23.254-9.399c-2.276-4.917-2.233-10.537-2.148-15.947      L294.592,202.278z"/>
				<path style="fill:#512651;" d="M302.819,220.74c-0.081,0-0.164-0.01-0.247-0.034c-0.492-0.135-0.782-0.647-0.646-1.139      c1.503-5.439,3.55-11.694,7.331-16.833c4.139-5.62,9.859-9.077,15.696-9.482c0.509-0.039,0.954,0.35,0.989,0.859      c0.036,0.512-0.349,0.954-0.861,0.99c-5.293,0.369-10.516,3.551-14.331,8.734c-3.603,4.896-5.58,10.95-7.038,16.225      C303.599,220.47,303.226,220.74,302.819,220.74z"/>
			</g>
		</g>
		<g>
			<path style="fill:#FFCBBE;" d="M79.821,320.074v-35.597c0,0,106.189-13.349,139.145,43.606c0,0,34.786-55.175,143.722-55.175     l3.662,74.753l-157.453,45.386l-129.99-59.625L79.821,320.074z"/>
			<path style="fill:#FFA761;" d="M72.677,303.166l1.78,157.516l143.277,24.028l153.066-43.606l0.89-158.405     c0,0-98.781,0.89-153.066,42.716C218.623,325.414,137.641,274.689,72.677,303.166z"/>
			
				<rect x="138.529" y="403.826" transform="matrix(0.0059 -1 1 0.0059 -188.1552 620.8631)" style="fill:#512651;" width="159.299" height="2.472"/>
			<path style="fill:#FF8C9D;" d="M370.799,441.103v56.065h-78.634c-0.915-4.722-3.387-18.219-5.537-32.087     c-2.744-17.922-4.87-36.412-2.151-37.327c5.339-1.78,17.576,31.815,17.576,31.815s-7.787-67.411,1.112-70.081     c7.589-2.274,17.156,49.959,19.776,65.26c0.346,2.077,0.568,3.461,0.667,3.955c-0.049-0.519-0.173-1.953-0.346-4.054     c-1.211-15.104-4.796-65.434,1.261-66.942c6.674-1.656,17.057,54.335,18.342,61.355c0.049,0.247,0.074,0.42,0.099,0.544     c0-0.124,0-0.321-0.024-0.569c-0.346-7.193-3.016-64.124,1.162-65.78c4.326-1.73,12.681,58.587,13.102,61.726     c0.025,0.074,0.025,0.124,0.025,0.124L370.799,441.103z"/>
			<path style="fill:#FF8C9D;" d="M159.641,474.97c-1.038,7.515-2.299,15.351-3.486,22.199H74.382v-38.563l0.049,0.025l4.252,1.236     l9.27,2.744c0,0,8.677-63.629,13.126-61.849c3.98,1.607,1.73,53.84,1.211,64.593c-0.074,1.236-0.099,1.928-0.099,1.928     s0.124-0.692,0.346-1.903c1.953-10.605,11.742-61.775,18.119-60.168c5.636,1.409,2.892,45.336,1.533,63.481     c-0.321,4.005-0.568,6.749-0.618,7.515c0.124-0.742,0.569-3.461,1.261-7.416c3.288-18.441,12.088-63.926,19.183-61.8     c7.441,2.225,3.214,49.836,1.631,65.286c-0.321,3.016-0.519,4.796-0.519,4.796s0.667-1.805,1.755-4.573     c3.56-9.122,11.718-28.601,15.821-27.241C163.053,446.047,161.792,459.767,159.641,474.97z"/>
		</g>
	</g>
</g>















</svg>
