<?xml version="1.0" encoding="UTF-8"?>
<!-- Generator: Adobe Illustrator 26.5.1, SVG Export Plug-In . SVG Version: 6.00 Build 0)  -->
<svg xmlns="http://www.w3.org/2000/svg" xmlns:xlink="http://www.w3.org/1999/xlink" version="1.1" id="Capa_1" x="0px" y="0px" viewBox="0 0 512 512" style="enable-background:new 0 0 512 512;" xml:space="preserve" width="512" height="512">
<g>
	<path style="fill:#FFFFFF;" d="M390.439,512c-0.285,0-0.569-0.009-0.855-0.024l-0.872-0.051H28.754   c-8.192,0-14.834-6.642-14.834-14.834V242.068c0-21.568,2.836-42.94,8.43-63.524l0.701-2.544   c16.64-58.749,54.603-108.678,106.903-140.622c9.437-5.768,19.281-10.895,29.259-15.234c0.161-0.07,0.322-0.138,0.487-0.202   C190.164,6.708,222.555,0,255.987,0c63.178,0,126.579,26.203,171.202,70.91c39.171,39.171,63.891,90.977,69.599,145.865   c0.12,1.272,0.223,2.429,0.304,3.556c0.656,7.235,0.987,14.547,0.987,21.737v255.023c0,8.192-6.642,14.834-14.834,14.834h-91.32   C391.434,511.975,390.937,512,390.439,512z"/>
	<g>
		<path style="fill:#FFBEFF;" d="M480.727,241.684v34.674l-11.211,8.048l11.211,7.891v204.41h-60.605l-147.71-42.918    l-151.659,43.334l-94.518-0.416V241.684c0-6.647,0.284-13.245,0.852-19.764c0.123-1.41,15.562-7.283,15.712-8.686    c0.669-6.406-13.699-8.278-12.498-14.525c0.264-1.371,0.54-2.737,0.829-4.099c0.865-4.228,1.879-8.431,3.016-12.56    c0.222-0.816,0.445-1.632,0.667-2.423c6.774-23.957,17.381-46.282,31.152-66.308c0.618-0.915,1.236-1.829,1.879-2.72    c9.42-13.326,20.248-25.589,32.264-36.566c2.917-2.67,5.934-5.291,8.999-7.837c8.208-6.75,16.936-12.955,26.059-18.543    c0.618-0.371,1.211-0.742,1.829-1.088c4.821-2.917,9.766-5.637,14.834-8.159c3.535-1.78,7.145-3.461,10.779-5.044h0.025    c0.396-0.173,0.766-0.346,1.162-0.494c0.742-0.346,1.508-0.668,2.274-0.964c26.924-11.249,56.419-17.455,87.398-17.455    c43.439,0,84.011,12.164,118.5,33.303c0.717,0.42,1.434,0.865,2.126,1.31c14.562,9.123,28.012,19.853,40.077,31.943    c5.687,5.686,11.052,11.645,16.095,17.9c1.017,1.256,2.02,2.523,3.01,3.8c3.511,4.532-5.962,9.541-2.818,14.343    c0.919,1.389,14.636,2.447,15.525,3.858c3.509,5.571,6.779,11.312,9.798,17.21c0.396,0.742,0.791,1.508,1.137,2.275    c0,0,0,0,0.025,0c11.892,23.784,19.705,49.917,22.572,77.533c0.099,1.063,0.198,2.151,0.272,3.214    C480.406,227.913,480.727,234.762,480.727,241.684z"/>
		<g>
			<path style="fill:#FBEEE5;" d="M481.145,276.297v15.477H275.667c15.65-19.457,43.241-28.457,67.347-21.88     c14.216,3.882,27.147,12.609,41.832,13.721c14.636,1.137,28.605-5.489,42.895-8.975     C445.271,270.339,463.863,271.13,481.145,276.297z"/>
			<g>
				<path style="fill:#FBEEE5;" d="M226.985,221.906H26.651c0.816-7.813,2.027-15.526,3.634-23.092      c8.975-1.508,18.221-1.187,26.998,1.211c14.216,3.882,27.146,12.609,41.832,13.722c14.636,1.137,28.605-5.489,42.895-8.975      C170.986,197.676,202.855,204.426,226.985,221.906z"/>
				<path style="fill:#FBEEE5;" d="M445.793,120.91H277.772c15.65-19.457,43.241-28.457,67.347-21.88      c14.216,3.882,27.147,12.609,41.832,13.722c14.636,1.137,28.605-5.489,42.895-8.975c0.964-0.247,2.464-0.811,3.453-1.009      C437.922,108.479,441.763,114.754,445.793,120.91z"/>
			</g>
		</g>
		<g>
			<g>
				<path style="fill:#2F2444;" d="M166.071,31.905c-0.766,0.297-1.533,0.618-2.274,0.964c4.178,10.087,7.541,19.803,5.835,30.039      c-0.915,5.464-3.338,11.002-7.368,16.936c-4.648,6.824-9.964,12.065-15.848,15.551c-5.316,3.165-11.422,5.068-17.331,6.923      c-5.884,1.854-11.966,3.758-17.43,6.923c-3.783,2.176-7.17,4.969-10.062,8.183c-8.802-4.772-18.79-7.293-28.902-7.145      c-1.632,0.025-3.239,0.124-4.846,0.321c-0.643,0.89-1.261,1.805-1.879,2.72c2.25-0.346,4.5-0.519,6.749-0.569      c9.346-0.148,18.839,2.25,27.196,6.651c-7.368,9.222-11.076,21.386-9.444,33.154c1.409,10.161,8.208,20.792,18.518,21.435      c0.321,0,0.618,0.025,0.915,0.025c9.42,0,16.738-8.851,17.776-17.504c0.964-8.01-2.2-16.911-8.925-25.045      c-4.228-5.118-9.321-9.42-14.958-12.807c2.645-2.843,5.711-5.316,9.098-7.293c5.217-3.016,11.175-4.871,16.936-6.675      c6.032-1.904,12.288-3.857,17.85-7.17c6.181-3.684,11.793-9.148,16.639-16.293c4.228-6.23,6.774-12.09,7.763-17.9      C173.908,52.475,170.274,42.042,166.071,31.905z M116.846,133.049c3.634,4.401,9.568,13.252,8.381,23.166      c-0.915,7.64-7.788,15.798-16.095,15.304c-8.974-0.544-14.958-10.137-16.219-19.309c-1.558-11.224,2.052-22.869,9.172-31.597      C107.699,123.901,112.742,128.105,116.846,133.049z"/>
			</g>
			<g>
				<path style="fill:#2F2444;" d="M480.727,386.613c-3.437,1.904-6.577,4.376-9.222,7.343c-0.297,0.346-0.593,0.692-0.89,1.063      c-3.115-0.519-6.23-1.31-9.271-2.448c-7.145-2.645-12.906-6.379-17.109-11.126c-9.889-11.15-12.164-28.457-6.799-51.425      c0.865-3.684,1.829-7.368,2.818-11.076c3.733-14.191,7.59-28.852,5.217-43.513c-1.088-6.675-3.511-13.276-6.997-19.062      c-2.027-3.313-4.351-6.206-6.873-8.604c0-0.297,0.025-0.618,0.049-0.939c0.297-8.653-2.596-16.911-5.785-24.575      c-0.569-1.385-1.137-2.744-1.731-4.129c-2.621-6.132-5.316-12.461-6.601-19.037c-2.918-15.032,2.003-31.572,12.807-43.167      c6.997-7.491,16.367-12.881,26.578-15.526c-0.346-0.766-0.742-1.533-1.137-2.275c-10.458,2.794-20.051,8.381-27.245,16.095      c-11.348,12.164-16.49,29.545-13.425,45.368c1.335,6.799,4.079,13.277,6.75,19.531c0.569,1.36,1.162,2.72,1.73,4.079      c2.942,7.096,5.637,14.711,5.588,22.523c-4.747-3.708-10.062-5.761-15.378-5.761c-5.736,0.025-11.694,3.264-15.155,8.307      c-2.843,4.104-3.56,8.851-2.003,12.98c1.385,3.634,4.376,6.478,8.431,8.035c4.697,1.78,10.062,1.533,14.315-0.668      c6.082-3.165,10.483-9.865,11.842-17.727c1.854,1.978,3.585,4.228,5.118,6.774c3.338,5.513,5.662,11.793,6.675,18.172      c2.299,14.142-1.508,28.556-5.167,42.475c-0.989,3.733-1.953,7.442-2.819,11.175c-5.563,23.784-3.09,41.807,7.343,53.601      c4.475,5.068,10.582,9.049,18.122,11.818c2.769,1.014,5.587,1.805,8.431,2.324c-4.203,5.884-6.749,12.708-8.703,18.814      c-4.648,14.488-7.466,29.545-8.406,44.725c-0.865,14.414,0.272,26.034,3.609,35.948h2.621c-3.436-9.791-4.623-21.361-3.758-35.8      c0.915-14.983,3.709-29.817,8.282-44.132c2.003-6.255,4.648-13.301,9.098-19.111c3.041,0.395,6.057,0.519,9.049,0.395v-2.497      c-2.349,0.124-4.747,0.074-7.17-0.173c2.077-2.299,4.525-4.253,7.17-5.86V386.613z M418.251,266.408      c-3.585,1.854-8.307,2.077-12.288,0.544c-3.387-1.286-5.884-3.634-6.997-6.601c-1.31-3.412-0.692-7.194,1.706-10.68      c3.016-4.401,8.184-7.219,13.128-7.244c5.266,0,10.582,2.275,15.23,6.354C428.165,256.593,424.061,263.392,418.251,266.408z"/>
			</g>
			<g>
				<path style="fill:#2F2444;" d="M82.827,368.293c-1.088-16.886-8.975-31.226-21.064-38.321c-2.917-1.731-5.884-2.868-8.727-3.362      c0.569-4.154,0.321-7.936,0.124-9.865c-1.459-13.771-6.23-25.663-13.796-34.44c-3.733-4.351-8.258-7.862-13.128-10.384v2.769      c4.153,2.349,8.01,5.464,11.249,9.222c9.148,10.606,12.238,23.858,13.202,33.08c0.198,1.805,0.445,5.439-0.099,9.345      c-1.038-0.049-2.052-0.025-3.066,0.099c-5.538,0.717-10.161,4.376-11.546,9.148c-0.544,1.879-0.494,4.45,1.236,5.934      c1.508,1.286,3.857,1.385,6.28,0.272c5.489-2.497,8.01-7.639,9.123-12.733c3.09,0.544,5.859,1.83,7.911,3.041      c11.2,6.577,18.815,20.521,19.828,36.368c0.964,14.834-3.338,29.94-7.442,42.945l-1.508,4.697      c-3.981,12.436-8.085,25.292-9.049,38.544c-0.89,12.164,0.94,24.6,5.291,35.997c0.791,2.126,1.988,4.336,2.928,6.265h2.769      c-1.113-2.176-2.458-4.682-3.398-7.13c-4.203-11.076-5.983-23.166-5.118-34.959c0.939-12.955,5.019-25.663,8.95-37.951      l1.483-4.722C79.44,398.951,83.816,383.573,82.827,368.293z M42.453,339.54c-1.162,0.544-2.744,0.865-3.61,0.099      c-0.865-0.717-0.791-2.275-0.47-3.387c1.088-3.758,4.97-6.774,9.469-7.343c0.618-0.099,1.236-0.124,1.854-0.124h0.47      C49.153,333.186,46.978,337.488,42.453,339.54z"/>
			</g>
		</g>
		<g>
			<g>
				<path style="fill:#2F2444;" d="M233.242,23.2c-9.44,1.022-19.063-2.34-28.393-0.578c-7.465,1.409-14.216,6.231-17.971,12.835      s-4.447,14.871-1.84,22.007c0.201,0.549,0.423,1.123,0.334,1.701c-0.14,0.904-0.974,1.506-1.714,2.044      c-6.363,4.637-10.436,12.275-10.739,20.142c-0.304,7.868,3.168,15.797,9.155,20.91c-3.194,7.013-1.828,15.862,3.331,21.585      c3.145,3.488,7.435,5.762,11.866,7.319c15.784,5.546,34.383,2.157,47.197-8.6c8.053-6.761,13.756-16.089,16.952-26.106      c3.195-10.017,3.963-20.707,3.126-31.189c-0.769-9.639-3.12-19.651-9.64-26.791c-4.126-4.518-9.599-7.535-14.967-10.471      L233.242,23.2z"/>
			</g>
			<g>
				<path style="fill:#FF9393;" d="M412.663,497.123H218.682c0.346-4.253,0.717-8.826,1.113-13.598      c0.099-1.088,0.198-2.2,0.272-3.313c0.124-1.261,0.222-2.546,0.346-3.832c0-0.223,0.025-0.445,0.049-0.668      c0.099-1.211,0.198-2.423,0.297-3.659c0.025-0.198,0.025-0.42,0.049-0.643c0.099-1.211,0.222-2.423,0.321-3.659      c0.025-0.198,0.025-0.42,0.049-0.618c0.099-1.211,0.198-2.423,0.321-3.659c0-0.198,0.025-0.42,0.049-0.643      c0.074-0.989,0.173-2.003,0.247-3.016c0.025-0.198,0.049-0.42,0.074-0.643c0.099-1.285,0.222-2.571,0.346-3.882      c0-0.223,0.025-0.42,0.049-0.643v-0.025c0.099-1.187,0.198-2.374,0.321-3.56c0-0.198,0.025-0.421,0.049-0.643      c0.074-0.865,0.148-1.731,0.223-2.596c0.025-0.371,0.074-0.742,0.099-1.137c0.049-0.494,0.099-0.964,0.124-1.459      c0.049-0.445,0.099-0.865,0.124-1.31c0.049-0.643,0.124-1.261,0.173-1.904c0.247-2.546,0.47-5.118,0.717-7.689V434.3      c0.049-0.692,0.124-1.36,0.173-2.052c0.025-0.198,0.049-0.395,0.049-0.593c0.099-1.088,0.223-2.176,0.321-3.263      c0-0.198,0.025-0.396,0.049-0.593c0.099-1.088,0.198-2.176,0.321-3.263c0-0.173,0.025-0.346,0.049-0.519      c0.074-1.088,0.198-2.2,0.297-3.288c0.025-0.198,0.025-0.371,0.049-0.569c0.099-1.088,0.223-2.176,0.322-3.264      c0.025-0.198,0.025-0.371,0.049-0.569c0.049-0.42,0.074-0.865,0.124-1.31c0.074-0.643,0.124-1.31,0.198-1.978v-0.025      c0.025-0.173,0.025-0.346,0.05-0.544c0.025-0.198,0.049-0.42,0.074-0.643c0.173-1.78,0.346-3.56,0.519-5.316      c0-0.049,0-0.099,0.025-0.124c0.099-1.063,0.198-2.126,0.297-3.189c0.148-1.261,0.272-2.522,0.396-3.783      c0.025-0.223,0.049-0.445,0.074-0.643c0.124-1.211,0.247-2.423,0.371-3.634c0.025-0.198,0.025-0.42,0.074-0.643      c0.124-1.211,0.247-2.448,0.371-3.659c0.025-0.198,0.049-0.42,0.074-0.618c0.124-1.211,0.247-2.423,0.371-3.634      c0.025-0.223,0.049-0.42,0.074-0.643c0.099-1.014,0.222-2.003,0.321-3.016c0.025-0.198,0.05-0.396,0.074-0.618      c0.148-1.286,0.297-2.571,0.42-3.857c0.025-0.223,0.049-0.42,0.074-0.643c0.148-1.187,0.272-2.374,0.42-3.56      c0-0.198,0.025-0.396,0.074-0.618c0.099-0.89,0.198-1.78,0.297-2.67c0.148-1.286,0.297-2.571,0.445-3.807      c0.025-0.272,0.074-0.544,0.099-0.816c0.124-1.137,0.272-2.225,0.396-3.313c0.148-1.261,0.297-2.472,0.47-3.684      c0.025-0.222,0.049-0.42,0.074-0.643c0.148-1.211,0.297-2.398,0.445-3.585c0.025-0.198,0.074-0.42,0.099-0.618      c0.148-1.211,0.321-2.423,0.47-3.585c0.025-0.198,0.049-0.42,0.074-0.618c0.173-1.211,0.346-2.398,0.519-3.585      c0.025-0.198,0.049-0.396,0.074-0.618c0.148-1.014,0.297-2.003,0.445-2.992c0.025-0.198,0.049-0.42,0.074-0.618      c0.198-1.31,0.396-2.571,0.593-3.783c0.025-0.223,0.049-0.42,0.099-0.618c0.173-1.211,0.371-2.349,0.569-3.461      c0.025-0.222,0.049-0.42,0.099-0.618c0.148-0.915,0.297-1.805,0.47-2.67c0.223-1.286,0.445-2.497,0.692-3.659      c0-0.049,0.025-0.124,0.025-0.198c0.173-0.841,0.346-1.657,0.519-2.423c0.297-1.36,0.593-2.596,0.89-3.659      c0.049-0.198,0.099-0.371,0.148-0.544c0.148-0.47,0.272-0.89,0.396-1.286c0.173-0.569,0.371-1.162,0.568-1.755      c0.074-0.173,0.124-0.346,0.198-0.519c0.346-0.989,0.717-2.027,1.113-3.09c0.049-0.173,0.124-0.371,0.198-0.544      c0.346-0.939,0.692-1.879,1.088-2.868c0.049-0.173,0.124-0.346,0.198-0.544c0.371-0.964,0.766-1.978,1.187-2.992      c0.074-0.173,0.148-0.346,0.198-0.519c0.395-0.964,0.816-1.978,1.236-2.992c0.074-0.173,0.148-0.346,0.223-0.519      c0.395-0.989,0.816-1.978,1.261-2.992c0.049-0.173,0.124-0.321,0.198-0.495c0.371-0.865,0.742-1.731,1.113-2.621      c0.445-0.964,0.865-1.978,1.31-2.967c13.647-31.053,33.698-69.696,33.698-69.696l-3.263-15.823l-0.371-1.755l-3.14-15.279      l-5.019-24.377l31.72-17.9l20.471-11.546l2.794,11.472l9.247,38.049l1.582,6.428l1.533,6.329c0,0,21.04,25.243,34.489,56.394      C382.871,280.248,403.515,428.688,412.663,497.123z"/>
			</g>
			<g style="opacity:0.39;">
				<path style="fill:#2F2444;" d="M304.3,164.906c-2.151,16.688-11.719,32.19-25.416,41.956l-8.159-39.656l31.72-17.9      C304.745,153.854,304.993,159.664,304.3,164.906z"/>
			</g>
			<g>
				<path style="fill:#F96756;" d="M420.772,497.123H211.117c0.643-4.92,1.36-10.186,2.126-15.724      c0.148-1.088,0.297-2.176,0.445-3.263c0.173-1.236,0.346-2.497,0.519-3.758c0.025-0.223,0.049-0.396,0.099-0.618v-0.025      c0.148-1.187,0.321-2.398,0.47-3.585c0.049-0.222,0.074-0.445,0.099-0.643c0.173-1.211,0.346-2.398,0.519-3.61      c0-0.198,0.049-0.396,0.074-0.593c0.148-1.212,0.322-2.398,0.494-3.61c0.025-0.223,0.049-0.445,0.099-0.643      c0.124-0.989,0.272-1.978,0.396-2.967c0.025-0.198,0.049-0.396,0.074-0.618v-0.025c0.198-1.261,0.371-2.522,0.544-3.807      c0.025-0.198,0.074-0.42,0.099-0.643c0.148-1.162,0.321-2.324,0.495-3.511c0.025-0.223,0.049-0.42,0.074-0.643      c0.025-0.148,0.049-0.297,0.074-0.445c0.074-0.495,0.148-1.014,0.223-1.508c0.025-0.223,0.049-0.42,0.074-0.643v-0.025      c0.025-0.173,0.049-0.297,0.074-0.47c0.148-1.113,0.321-2.2,0.47-3.313c0.049-0.445,0.124-0.89,0.198-1.31      c0.198-1.533,0.42-3.041,0.643-4.574c0.074-0.594,0.148-1.187,0.247-1.78c0.025-0.198,0.049-0.371,0.074-0.569      c0.148-1.088,0.297-2.151,0.445-3.214c0.049-0.198,0.074-0.371,0.099-0.569c0.148-1.088,0.297-2.151,0.47-3.239      c0-0.173,0.049-0.371,0.074-0.569l0.445-3.189c0.025-0.173,0.049-0.371,0.074-0.544c0.173-1.063,0.321-2.151,0.47-3.214v-0.025      c0.025-0.198,0.049-0.371,0.074-0.544c0.074-0.519,0.148-1.039,0.223-1.558v-0.025c0.099-0.544,0.173-1.088,0.247-1.632      c0.025-0.198,0.049-0.396,0.074-0.569c0.173-1.088,0.322-2.176,0.47-3.264c0.049-0.173,0.074-0.346,0.074-0.544      c0.124-0.717,0.223-1.459,0.321-2.176c0.198-1.236,0.371-2.497,0.544-3.733c0.025-0.025,0.025-0.049,0.025-0.074      c0.148-1.063,0.321-2.126,0.47-3.189c0.173-1.261,0.371-2.497,0.544-3.733c0.025-0.222,0.074-0.42,0.099-0.618      c0.173-1.211,0.346-2.398,0.544-3.585c0-0.198,0.049-0.42,0.074-0.643c0.173-1.187,0.346-2.398,0.544-3.585      c0.025-0.198,0.049-0.42,0.099-0.618c0.173-1.211,0.346-2.398,0.544-3.585c0.025-0.223,0.049-0.445,0.074-0.643      c0.148-1.014,0.297-2.003,0.445-2.992c0.049-0.198,0.074-0.396,0.099-0.594c0.198-1.285,0.396-2.546,0.593-3.807      c0.025-0.223,0.049-0.445,0.099-0.643c0.173-1.187,0.346-2.349,0.519-3.511c0.025-0.198,0.074-0.396,0.099-0.618      c0.148-0.89,0.272-1.755,0.42-2.645v-0.025c0.173-1.261,0.371-2.497,0.593-3.733c0.025-0.247,0.049-0.519,0.124-0.791      c0.148-1.088,0.321-2.2,0.494-3.288c0.198-1.211,0.396-2.423,0.569-3.634v-0.025c0.049-0.222,0.074-0.396,0.099-0.618      c0.198-1.187,0.396-2.373,0.569-3.535v-0.025c0.049-0.198,0.074-0.395,0.124-0.593v-0.025c0.198-1.187,0.371-2.373,0.568-3.536      c0.025-0.198,0.074-0.395,0.099-0.618c0.198-1.211,0.396-2.398,0.594-3.56c0.025-0.198,0.074-0.42,0.099-0.618      c0.173-1.014,0.346-2.003,0.519-2.967c0.025-0.198,0.049-0.396,0.099-0.593c0.198-1.286,0.42-2.547,0.643-3.758      c0.025-0.223,0.049-0.42,0.099-0.618c0.198-1.187,0.396-2.349,0.593-3.461c0.049-0.198,0.074-0.42,0.124-0.618      c0.148-0.915,0.321-1.805,0.47-2.67c0.223-1.261,0.47-2.472,0.692-3.659c0-0.049,0-0.099,0.025-0.173      c0.148-0.841,0.297-1.656,0.47-2.448c0.247-1.31,0.494-2.547,0.742-3.709c0.025-0.198,0.074-0.371,0.099-0.544      c0.223-1.113,0.445-2.176,0.668-3.165c0.049-0.198,0.074-0.371,0.099-0.544c0.272-1.162,0.544-2.225,0.766-3.19      c0.049-0.198,0.099-0.395,0.148-0.569c0.297-1.137,0.569-2.102,0.816-2.917v-0.025c0.074-0.173,0.124-0.371,0.173-0.544      c0.321-1.014,0.668-2.027,0.989-3.041c0.074-0.198,0.124-0.371,0.173-0.544c0.346-1.038,0.692-2.052,1.038-3.066      c0.074-0.173,0.124-0.346,0.173-0.519c0.371-1.014,0.717-2.027,1.063-3.041c0.074-0.173,0.124-0.346,0.198-0.519      c0.321-0.89,0.618-1.78,0.964-2.67c0.346-1.014,0.717-2.027,1.088-3.016c11.62-31.127,25.712-57.507,25.712-57.507l2.522-25.886      l4.945-1.286l57.284-14.908l12.881-3.362l5.686,23.364c0,0,23.982,20.817,32.19,68.805      C393.304,317.581,411.427,435.982,420.772,497.123z"/>
			</g>
			<g>
				<path style="fill:#2F2444;" d="M351.275,155.709c-0.074,0.148-0.321,0.544-0.668,1.137l-0.074-0.074l-0.049-0.074l0.198-0.247      L351.275,155.709z"/>
			</g>
			<g>
				<g>
					<g>
						<path style="fill:#FF9393;" d="M338.992,115.939c-2.519-4.794-8.4-7.21-13.784-6.618c0.387-2.755,0.648-5.552,0.648-8.417        c0-32.41-25.624-58.683-57.232-58.683c-31.608,0-57.232,26.273-57.232,58.683c0,4.469,0.503,8.816,1.427,12.999        c1.149,11.082-1.847,81.078,51.177,81.499c0,0,33.791-4.843,44.68-43.855c0.52,0.172,1.068,0.328,1.646,0.465        c2.643,0.63,5.422,0.25,8.072-0.351c7.69-1.745,15.368-5.765,19.074-12.726c1.991-3.74,2.684-8.032,2.995-12.257        C340.73,123.027,340.696,119.181,338.992,115.939z"/>
					</g>
					<g>
						<g>
							<path style="fill:#2F2444;" d="M248.858,126.851c-0.002,0-0.005,0-0.008,0c-2.468-0.002-4.504-1.173-5.891-3.385         c-0.362-0.579-0.187-1.342,0.391-1.704c0.576-0.365,1.34-0.186,1.705,0.391c0.937,1.494,2.18,2.224,3.798,2.226         c0.002,0,0.005,0,0.006,0c4.173,0,9.87-4.817,11.961-8.137c0.365-0.575,1.129-0.753,1.704-0.386         c0.577,0.365,0.751,1.128,0.386,1.705C260.517,121.358,254.138,126.851,248.858,126.851z"/>
						</g>
						<g>
							<path style="fill:#2F2444;" d="M232.573,148.735c-0.281,0-0.564-0.097-0.796-0.292c-1.13-0.951-2.236-1.934-3.314-2.943         c-0.581-0.543-1.128-1.096-1.436-1.893c-0.379-0.975-0.24-1.985-0.14-2.721l3.477-25.368         c0.094-0.674,0.716-1.144,1.393-1.055c0.676,0.092,1.149,0.715,1.057,1.393l-3.477,25.366         c-0.072,0.521-0.153,1.111-0.006,1.492c0.122,0.311,0.443,0.628,0.821,0.98c1.048,0.98,2.12,1.934,3.218,2.861         c0.521,0.439,0.588,1.219,0.148,1.741C233.274,148.585,232.926,148.735,232.573,148.735z"/>
						</g>
						<g>
							<path style="fill:#2F2444;" d="M218.754,129.989c-2.033,0-4.003-1.144-5.138-3.071c-0.313-0.529-0.136-1.212,0.394-1.523         c0.527-0.319,1.21-0.138,1.523,0.394c0.857,1.453,2.414,2.226,3.879,1.905c1.47-0.314,2.839-1.649,3.57-3.484         c0.228-0.57,0.879-0.855,1.448-0.62c0.571,0.227,0.849,0.874,0.622,1.446c-1.003,2.513-2.985,4.368-5.173,4.836         C219.505,129.951,219.128,129.989,218.754,129.989z"/>
						</g>
						<g>
							<path style="fill:#2F2444;" d="M243.091,102.714c-0.334,0-0.669-0.135-0.913-0.403c-0.46-0.502-0.425-1.285,0.078-1.746         c2.336-2.134,5.361-3.421,8.518-3.624c3.177-0.198,6.325,0.688,8.913,2.508c0.559,0.394,0.693,1.164,0.301,1.721         c-0.393,0.558-1.164,0.695-1.723,0.302c-2.13-1.499-4.738-2.231-7.331-2.064c-2.598,0.167-5.087,1.227-7.009,2.982         C243.688,102.607,243.39,102.714,243.091,102.714z"/>
						</g>
						<g>
							<path style="fill:#2F2444;" d="M211.171,108.47c-0.191,0-0.385-0.044-0.566-0.138c-0.607-0.314-0.844-1.06-0.531-1.666         c2.172-4.196,7.572-6.345,12.031-4.788c0.645,0.225,0.985,0.93,0.76,1.574c-0.226,0.645-0.932,0.99-1.574,0.758         c-3.291-1.144-7.419,0.495-9.02,3.59C212.051,108.226,211.618,108.47,211.171,108.47z"/>
						</g>
						<g>
							<path style="fill:#2F2444;" d="M240.026,158.723c-1.859,0-3.695-0.659-5.125-1.854c-0.524-0.439-0.593-1.219-0.154-1.743         c0.435-0.521,1.214-0.591,1.741-0.154c1.088,0.91,2.577,1.381,3.993,1.26c3.738-0.326,6.078-4.269,6.91-5.949         c0.303-0.613,1.047-0.862,1.658-0.56c0.611,0.304,0.862,1.045,0.559,1.656c-2.152,4.344-5.402,7.011-8.914,7.316         C240.472,158.713,240.248,158.723,240.026,158.723z"/>
						</g>
					</g>
				</g>
				<g>
					<path style="fill:#2F2444;" d="M350.309,156.269c-3.186,6.564-6.828,12.862-10.112,19.386c-1.139,2.262-2.245,4.545-3.24,6.875       c-0.385,0.902-2.388,4.456-1.975,5.394c-5.217-11.867-10.809-38.286-10.809-38.286s7.154-0.947,11.993-9.363       c4.839-8.417,9.889-26.091-8.364-28.511c-13.817-1.832-17.94,23.87-17.94,23.87l-3.362-18.073c0,0-8.851,3.362-17.257-5.489       c-8.406-8.826-2.942-19.779-2.942-19.779s-20.199,8.851-28.21-2.942c-7.986-11.768,1.286-22.3,1.286-22.3       s-17.257-3.783-24.007-13.474c-5.266-7.565-3.56-19.26-2.596-23.982c0.272-1.335,0.494-2.101,0.494-2.101v-5.884       c0,0,103.097,10.087,132.988,23.562c7.228,3.264,9.302,11.628,9.707,18.862c0.611,10.92-1.715,22.013-4.375,32.539       c-2.815,11.142-6.42,22.079-10.345,32.874c-2.867,7.885-5.875,15.725-9.32,23.377       C351.402,153.98,350.863,155.129,350.309,156.269z"/>
				</g>
				<g>
					<g>
						<path style="fill:#2F2444;" d="M315.498,139.427c-0.052,0-0.104-0.003-0.156-0.01c-0.677-0.085-1.158-0.705-1.072-1.381        c0.621-4.921,2.82-9.633,6.193-13.27c3.373-3.636,7.906-6.186,12.761-7.176c0.671-0.135,1.322,0.295,1.458,0.966        c0.136,0.669-0.295,1.321-0.963,1.458c-4.354,0.886-8.419,3.173-11.443,6.432c-3.024,3.262-4.997,7.487-5.553,11.898        C316.645,138.971,316.113,139.427,315.498,139.427z"/>
					</g>
					<g>
						<path style="fill:#2F2444;" d="M330.046,138.131c-0.525,0-1.013-0.338-1.179-0.864c-1.129-3.583-3.861-6.618-7.308-8.115        c-0.556-0.244-0.765-0.241-0.835-0.212c-0.648,0.22-1.349-0.133-1.565-0.78c-0.217-0.649,0.133-1.35,0.78-1.567        c0.971-0.319,1.901-0.017,2.605,0.29c4.095,1.782,7.341,5.384,8.682,9.641c0.205,0.652-0.157,1.345-0.808,1.55        C330.294,138.111,330.169,138.131,330.046,138.131z"/>
					</g>
				</g>
			</g>
			<g>
				<g>
					<g>
						<g>
							<path style="fill:#A27CFF;" d="M53.308,407.484L53.308,407.484c3.878-9.697,14.628-14.708,24.548-11.441l170.73,56.224         l-2.017,5.415l-9.821-1.948l-14.203,22.409l14.094,6.194l-1.539,4.131L65.584,433.643         C54.692,430.12,49.058,418.113,53.308,407.484z"/>
						</g>
						<g>
							<g>
								<g>
									<path style="fill:#FBEEE5;" d="M244.219,455.06l-0.791,2.101l-0.198,0.593l-1.236,3.263l-0.223,0.593l-1.335,3.61           l-0.222,0.569l-1.014,2.744l-0.173,0.47l-1.286,3.437l-0.198,0.569l-1.261,3.362l-0.223,0.594l-1.236,3.362l-0.222,0.593           l-1.335,3.585L76.149,433.254c-3.412-1.112-6.206-3.189-8.159-5.835c-0.222-0.272-0.42-0.544-0.593-0.841           c-0.198-0.297-0.396-0.594-0.569-0.89c-0.643-1.112-1.162-2.324-1.533-3.56c-0.074-0.222-0.148-0.47-0.198-0.717           c-0.321-1.261-0.494-2.596-0.494-3.931c0-0.222,0-0.42,0.025-0.643c0.025-1.187,0.222-2.398,0.544-3.585           c0.05-0.198,0.099-0.396,0.148-0.593c0.148-0.47,0.321-0.915,0.494-1.384v-0.025c0.272-0.643,0.569-1.286,0.89-1.879           c0.124-0.198,0.223-0.395,0.346-0.569c0.668-1.113,1.459-2.102,2.324-3.016c0.173-0.173,0.346-0.321,0.519-0.495           c1.088-1.014,2.324-1.879,3.634-2.571c0.272-0.148,0.544-0.297,0.816-0.396c1.483-0.692,3.09-1.162,4.722-1.384           c2.398-0.321,4.92-0.124,7.392,0.692L244.219,455.06z"/>
								</g>
								<g>
									<g>
										<g>
											<path style="fill:#2F2444;" d="M234.824,480.327l-0.222,0.593L67.99,427.419c-0.222-0.272-0.42-0.544-0.593-0.841             L234.824,480.327z"/>
										</g>
									</g>
									<g>
										<g>
											<path style="fill:#2F2444;" d="M236.283,476.371l-0.223,0.594L65.295,422.128c-0.074-0.222-0.148-0.47-0.198-0.717             L236.283,476.371z"/>
										</g>
									</g>
									<g>
										<g>
											<path style="fill:#2F2444;" d="M237.742,472.44l-0.198,0.569L64.603,417.48c0-0.222,0-0.42,0.025-0.643L237.742,472.44z"/>
										</g>
									</g>
									<g>
										<g>
											<path style="fill:#2F2444;" d="M239.25,468.831c-0.049,0.099-0.124,0.173-0.223,0.173             c-0.025,0.025-0.049,0.025-0.074,0.025h-0.099L65.171,413.252c0.05-0.198,0.099-0.396,0.148-0.593l173.732,55.776             c0.074,0.025,0.124,0.049,0.148,0.099C239.25,468.608,239.275,468.707,239.25,468.831z"/>
										</g>
									</g>
									<g>
										<g>
											<path style="fill:#2F2444;" d="M240.436,465.221l-0.222,0.569l-173.51-56.419c0.124-0.198,0.223-0.395,0.346-0.569             L240.436,465.221z"/>
										</g>
									</g>
									<g>
										<g>
											<path style="fill:#2F2444;" d="M241.994,461.018l-0.223,0.593L69.374,405.786c0.173-0.173,0.346-0.321,0.519-0.495             L241.994,461.018z"/>
										</g>
									</g>
									<g>
										<g>
											<path style="fill:#2F2444;" d="M243.428,457.161l-0.198,0.593L73.528,402.72c0.272-0.148,0.544-0.297,0.816-0.396             L243.428,457.161z"/>
										</g>
									</g>
								</g>
							</g>
							<g>
								<path style="fill:#FFC15C;" d="M78.967,414.909c-1.978,5.291-6.7,9.593-12.139,10.779          c-2.448-4.228-2.992-9.494-1.014-14.414v-0.025c2.299-5.736,7.467-9.519,13.252-10.31          C80.5,405.514,80.624,410.434,78.967,414.909z"/>
							</g>
						</g>
					</g>
					<g>
						<g>
							<path style="fill:#A27CFF;" d="M86.995,297.956L86.995,297.956c3.413-9.774,13.352-15.003,22.696-11.94l160.824,52.719         l-1.767,5.455l-9.223-1.746l-12.786,22.694l13.31,5.905l-1.348,4.161L99.043,323.857         C88.784,320.558,83.255,308.669,86.995,297.956z"/>
						</g>
						<g>
							<g>
								<g>
									<path style="fill:#FBEEE5;" d="M266.495,341.616l-0.694,2.117l-0.172,0.597l-1.084,3.288l-0.195,0.598l-1.169,3.636           l-0.195,0.573l-0.888,2.764l-0.151,0.473l-1.127,3.462l-0.172,0.573l-1.105,3.387l-0.195,0.598l-1.082,3.387l-0.195,0.598           l-1.17,3.611L108.91,323.252c-3.214-1.042-5.871-3.062-7.754-5.667c-0.214-0.267-0.405-0.535-0.573-0.828           c-0.191-0.293-0.383-0.585-0.551-0.878c-0.625-1.099-1.137-2.3-1.511-3.528c-0.074-0.221-0.149-0.467-0.201-0.713           c-0.328-1.254-0.519-2.585-0.548-3.92c-0.005-0.222-0.009-0.42,0.009-0.643c-0.003-1.187,0.156-2.402,0.43-3.595           c0.042-0.199,0.084-0.398,0.126-0.596c0.128-0.473,0.28-0.921,0.432-1.394l-0.001-0.025           c0.24-0.648,0.503-1.297,0.791-1.897c0.111-0.2,0.199-0.4,0.311-0.576c0.6-1.126,1.318-2.131,2.106-3.063           c0.158-0.177,0.317-0.328,0.475-0.505c0.995-1.036,2.131-1.926,3.341-2.645c0.251-0.154,0.502-0.308,0.754-0.412           c1.372-0.722,2.864-1.225,4.384-1.481c2.235-0.37,4.597-0.224,6.925,0.541L266.495,341.616z"/>
								</g>
								<g>
									<g>
										<g>
											<path style="fill:#2F2444;" d="M258.266,367.069l-0.195,0.598l-156.915-50.082c-0.214-0.267-0.405-0.535-0.573-0.828             L258.266,367.069z"/>
										</g>
									</g>
									<g>
										<g>
											<path style="fill:#2F2444;" d="M259.543,363.085l-0.195,0.598L98.521,312.351c-0.074-0.221-0.149-0.467-0.201-0.713             L259.543,363.085z"/>
										</g>
									</g>
									<g>
										<g>
											<path style="fill:#2F2444;" d="M260.82,359.125l-0.172,0.573L97.772,307.718c-0.005-0.222-0.009-0.42,0.009-0.643             L260.82,359.125z"/>
										</g>
									</g>
									<g>
										<g>
											<path style="fill:#2F2444;" d="M262.151,355.485c-0.044,0.1-0.112,0.176-0.204,0.178             c-0.023,0.025-0.046,0.026-0.069,0.026l-0.092,0.002L98.211,303.48c0.042-0.199,0.084-0.398,0.126-0.596l163.621,52.21             c0.07,0.023,0.117,0.047,0.141,0.096C262.146,355.263,262.172,355.361,262.151,355.485z"/>
										</g>
									</g>
									<g>
										<g>
											<path style="fill:#2F2444;" d="M263.182,351.852l-0.195,0.573L99.559,299.568c0.111-0.2,0.199-0.4,0.311-0.576             L263.182,351.852z"/>
										</g>
									</g>
									<g>
										<g>
											<path style="fill:#2F2444;" d="M264.546,347.618l-0.195,0.598l-162.374-52.287c0.158-0.177,0.317-0.328,0.475-0.505             L264.546,347.618z"/>
										</g>
									</g>
									<g>
										<g>
											<path style="fill:#2F2444;" d="M265.802,343.733l-0.172,0.597l-159.837-51.551c0.251-0.154,0.502-0.308,0.754-0.412             L265.802,343.733z"/>
										</g>
									</g>
								</g>
							</g>
							<g>
								<path style="fill:#FFC15C;" d="M111.143,304.854c-1.733,5.33-6.053,9.727-11.112,11.025          c-2.381-4.177-3.004-9.43-1.263-14.389l-0.001-0.025c2.024-5.781,6.771-9.669,12.162-10.578          C112.371,295.43,112.594,300.346,111.143,304.854z"/>
							</g>
						</g>
					</g>
					<g>
						<g>
							<path style="fill:#6ADEEB;" d="M68.037,332.998L68.037,332.998c3.878-9.697,14.628-14.708,24.548-11.441l169.905,55.613         l-1.915,6.085l-9.099-2.006l-14.203,22.409l14.094,6.194l-1.539,4.131L80.313,359.156         C69.421,355.634,63.786,343.627,68.037,332.998z"/>
						</g>
						<g>
							<g>
								<g>
									<path style="fill:#FBEEE5;" d="M258.948,380.574l-0.791,2.102l-0.198,0.593l-1.236,3.264l-0.223,0.593l-1.335,3.61           l-0.222,0.569l-1.014,2.744l-0.173,0.47l-1.286,3.437l-0.198,0.569l-1.261,3.362l-0.223,0.593l-1.236,3.362l-0.222,0.593           l-1.335,3.585L90.878,358.767c-3.412-1.112-6.206-3.189-8.159-5.835c-0.222-0.272-0.42-0.544-0.593-0.841           c-0.198-0.297-0.396-0.594-0.569-0.89c-0.643-1.112-1.162-2.324-1.533-3.56c-0.074-0.223-0.148-0.47-0.198-0.717           c-0.321-1.261-0.494-2.596-0.494-3.931c0-0.222,0-0.42,0.025-0.643c0.025-1.187,0.223-2.398,0.544-3.585           c0.049-0.198,0.099-0.396,0.148-0.593c0.148-0.47,0.321-0.915,0.494-1.385v-0.025c0.272-0.643,0.569-1.286,0.89-1.879           c0.124-0.198,0.223-0.396,0.346-0.569c0.668-1.113,1.459-2.102,2.324-3.016c0.173-0.173,0.346-0.321,0.519-0.495           c1.088-1.014,2.324-1.879,3.634-2.571c0.272-0.148,0.544-0.297,0.816-0.396c1.483-0.692,3.09-1.162,4.722-1.384           c2.398-0.322,4.92-0.124,7.392,0.692L258.948,380.574z"/>
								</g>
								<g>
									<g>
										<g>
											<path style="fill:#2F2444;" d="M249.553,405.841l-0.222,0.593L82.719,352.933c-0.222-0.272-0.42-0.544-0.593-0.841             L249.553,405.841z"/>
										</g>
									</g>
									<g>
										<g>
											<path style="fill:#2F2444;" d="M251.012,401.885l-0.223,0.593L80.024,347.642c-0.074-0.223-0.148-0.47-0.198-0.717             L251.012,401.885z"/>
										</g>
									</g>
									<g>
										<g>
											<path style="fill:#2F2444;" d="M252.471,397.954l-0.198,0.569L79.332,342.994c0-0.222,0-0.42,0.025-0.643             L252.471,397.954z"/>
										</g>
									</g>
									<g>
										<g>
											<path style="fill:#2F2444;" d="M253.979,394.345c-0.049,0.099-0.124,0.173-0.223,0.173             c-0.025,0.025-0.049,0.025-0.074,0.025h-0.099L79.9,338.766c0.049-0.198,0.099-0.396,0.148-0.593l173.732,55.776             c0.074,0.025,0.124,0.049,0.148,0.099C253.979,394.122,254.003,394.221,253.979,394.345z"/>
										</g>
									</g>
									<g>
										<g>
											<path style="fill:#2F2444;" d="M255.165,390.735l-0.222,0.569l-173.51-56.419c0.124-0.198,0.223-0.396,0.346-0.569             L255.165,390.735z"/>
										</g>
									</g>
									<g>
										<g>
											<path style="fill:#2F2444;" d="M256.723,386.532l-0.223,0.593L84.103,331.3c0.173-0.173,0.346-0.321,0.519-0.495             L256.723,386.532z"/>
										</g>
									</g>
									<g>
										<g>
											<path style="fill:#2F2444;" d="M258.157,382.675l-0.198,0.593L88.257,328.234c0.272-0.148,0.544-0.297,0.816-0.396             L258.157,382.675z"/>
										</g>
									</g>
								</g>
							</g>
							<g>
								<path style="fill:#FFC15C;" d="M93.696,340.423c-1.978,5.291-6.7,9.593-12.139,10.779          c-2.448-4.228-2.992-9.494-1.014-14.414v-0.025c2.299-5.736,7.467-9.519,13.252-10.31          C95.229,331.028,95.353,335.948,93.696,340.423z"/>
							</g>
						</g>
					</g>
					<g>
						<g>
							<path style="fill:#FFC15C;" d="M240.022,430.372L240.022,430.372c-3.08,8.841-12.155,13.612-20.721,10.893L71.863,394.483         l1.594-4.934l8.45,1.53l11.603-20.552L81.3,365.265l1.216-3.763l146.364,45.549         C238.285,409.977,243.399,420.682,240.022,430.372z"/>
						</g>
						<g>
							<g>
								<g>
									<path style="fill:#FBEEE5;" d="M75.53,391.863l0.625-1.915l0.155-0.54l0.978-2.974l0.176-0.541l1.054-3.288l0.176-0.518           l0.8-2.5l0.137-0.428l1.016-3.131l0.155-0.518l0.996-3.064l0.176-0.541l0.975-3.063l0.176-0.541l1.055-3.266l135.671,42.61           c2.946,0.925,5.387,2.734,7.123,5.076c0.197,0.24,0.373,0.481,0.528,0.745c0.177,0.263,0.353,0.526,0.508,0.79           c0.577,0.989,1.051,2.07,1.398,3.177c0.069,0.199,0.138,0.421,0.187,0.642c0.306,1.13,0.487,2.331,0.519,3.536           c0.005,0.201,0.01,0.379-0.005,0.581c0.008,1.072-0.132,2.169-0.378,3.248c-0.037,0.18-0.075,0.359-0.112,0.539           c-0.115,0.427-0.253,0.833-0.389,1.261l0.001,0.022c-0.217,0.586-0.455,1.173-0.715,1.716           c-0.101,0.181-0.181,0.362-0.282,0.521c-0.544,1.02-1.197,1.93-1.915,2.776c-0.144,0.16-0.288,0.298-0.432,0.458           c-0.906,0.94-1.942,1.749-3.046,2.405c-0.229,0.14-0.458,0.28-0.688,0.376c-1.252,0.659-2.616,1.12-4.006,1.359           c-2.044,0.346-4.206,0.226-6.341-0.453L75.53,391.863z"/>
								</g>
								<g>
									<g>
										<g>
											<path style="fill:#2F2444;" d="M82.95,368.843l0.176-0.541l143.849,44.421c0.197,0.24,0.373,0.481,0.528,0.745             L82.95,368.843z"/>
										</g>
									</g>
									<g>
										<g>
											<path style="fill:#2F2444;" d="M81.798,372.447l0.176-0.541l147.435,45.529c0.069,0.199,0.138,0.421,0.187,0.642             L81.798,372.447z"/>
										</g>
									</g>
									<g>
										<g>
											<path style="fill:#2F2444;" d="M80.646,376.028l0.155-0.518l149.313,46.103c0.005,0.201,0.01,0.379-0.005,0.581             L80.646,376.028z"/>
										</g>
									</g>
									<g>
										<g>
											<path style="fill:#2F2444;" d="M79.444,379.32c0.04-0.09,0.102-0.159,0.186-0.161c0.021-0.023,0.042-0.023,0.063-0.024             l0.085-0.002l149.954,46.309c-0.037,0.18-0.075,0.359-0.112,0.539L79.623,379.673c-0.064-0.021-0.107-0.042-0.129-0.086             C79.45,379.521,79.426,379.432,79.444,379.32z"/>
										</g>
									</g>
									<g>
										<g>
											<path style="fill:#2F2444;" d="M78.517,382.605l0.176-0.518l149.821,46.893c-0.101,0.181-0.181,0.362-0.282,0.521             L78.517,382.605z"/>
										</g>
									</g>
									<g>
										<g>
											<path style="fill:#2F2444;" d="M77.288,386.434l0.176-0.541l148.855,46.384c-0.144,0.16-0.288,0.298-0.432,0.458             L77.288,386.434z"/>
										</g>
									</g>
									<g>
										<g>
											<path style="fill:#2F2444;" d="M76.155,389.948l0.155-0.54l146.53,45.732c-0.229,0.14-0.458,0.28-0.688,0.376             L76.155,389.948z"/>
										</g>
									</g>
								</g>
							</g>
							<g>
								<path style="fill:#A27CFF;" d="M217.889,424.267c1.563-4.82,5.498-8.812,10.122-10.009c2.197,3.758,2.791,8.498,1.22,12.984          l0.001,0.022c-1.827,5.23-6.155,8.763-11.085,9.611C216.807,432.78,216.581,428.343,217.889,424.267z"/>
							</g>
						</g>
					</g>
					<g>
						<g>
							<path style="fill:#FFC15C;" d="M277.897,323.062L277.897,323.062c-3.081,8.841-12.155,13.611-20.721,10.893l-147.438-46.782         l1.594-4.933l8.45,1.53l11.603-20.552l-12.209-5.263l1.216-3.763l146.364,45.549         C276.159,302.667,281.273,313.371,277.897,323.062z"/>
						</g>
						<g>
							<g>
								<g>
									<path style="fill:#FBEEE5;" d="M113.404,284.552l0.625-1.915l0.155-0.54l0.978-2.974l0.176-0.541l1.054-3.288l0.176-0.518           l0.8-2.5l0.137-0.428l1.016-3.131l0.155-0.518l0.997-3.064l0.176-0.541l0.975-3.063l0.176-0.541l1.055-3.266l135.671,42.61           c2.946,0.925,5.387,2.734,7.123,5.076c0.197,0.24,0.373,0.481,0.528,0.745c0.177,0.263,0.353,0.526,0.508,0.79           c0.577,0.989,1.051,2.07,1.398,3.177c0.069,0.199,0.138,0.421,0.187,0.642c0.306,1.13,0.486,2.331,0.519,3.536           c0.005,0.201,0.01,0.379-0.006,0.581c0.008,1.072-0.132,2.169-0.378,3.248c-0.038,0.18-0.075,0.359-0.112,0.539           c-0.115,0.427-0.253,0.833-0.389,1.261l0.001,0.022c-0.217,0.586-0.455,1.173-0.715,1.716           c-0.101,0.181-0.181,0.362-0.282,0.521c-0.544,1.02-1.197,1.93-1.915,2.776c-0.144,0.16-0.288,0.298-0.432,0.458           c-0.906,0.94-1.942,1.749-3.046,2.405c-0.229,0.14-0.458,0.28-0.688,0.376c-1.252,0.659-2.615,1.12-4.006,1.359           c-2.044,0.346-4.206,0.226-6.341-0.453L113.404,284.552z"/>
								</g>
								<g>
									<g>
										<g>
											<path style="fill:#2F2444;" d="M120.824,261.532l0.176-0.541l143.849,44.421c0.197,0.24,0.373,0.481,0.528,0.745             L120.824,261.532z"/>
										</g>
									</g>
									<g>
										<g>
											<path style="fill:#2F2444;" d="M119.673,265.136l0.176-0.541l147.435,45.529c0.069,0.199,0.138,0.421,0.187,0.642             L119.673,265.136z"/>
										</g>
									</g>
									<g>
										<g>
											<path style="fill:#2F2444;" d="M118.521,268.717l0.155-0.518l149.313,46.103c0.005,0.201,0.01,0.379-0.006,0.581             L118.521,268.717z"/>
										</g>
									</g>
									<g>
										<g>
											<path style="fill:#2F2444;" d="M117.319,272.01c0.04-0.091,0.101-0.159,0.186-0.161c0.021-0.023,0.042-0.023,0.063-0.024             l0.085-0.002l149.954,46.309c-0.038,0.18-0.075,0.359-0.112,0.539l-149.996-46.308c-0.064-0.021-0.107-0.042-0.129-0.086             C117.324,272.21,117.301,272.122,117.319,272.01z"/>
										</g>
									</g>
									<g>
										<g>
											<path style="fill:#2F2444;" d="M116.392,275.294l0.176-0.518L266.39,321.67c-0.101,0.181-0.181,0.362-0.282,0.521             L116.392,275.294z"/>
										</g>
									</g>
									<g>
										<g>
											<path style="fill:#2F2444;" d="M115.162,279.124l0.176-0.541l148.855,46.384c-0.144,0.16-0.288,0.298-0.432,0.458             L115.162,279.124z"/>
										</g>
									</g>
									<g>
										<g>
											<path style="fill:#2F2444;" d="M114.029,282.637l0.155-0.54l146.53,45.732c-0.229,0.14-0.458,0.28-0.688,0.376             L114.029,282.637z"/>
										</g>
									</g>
								</g>
							</g>
							<g>
								<path style="fill:#6ADEEB;" d="M255.763,316.956c1.563-4.82,5.498-8.812,10.122-10.009c2.197,3.758,2.791,8.498,1.22,12.984          l0.001,0.022c-1.827,5.229-6.155,8.763-11.085,9.611C254.681,325.47,254.455,321.033,255.763,316.956z"/>
							</g>
						</g>
					</g>
				</g>
				<g>
					<g>
						<path style="fill:#FF9393;" d="M176.257,497.123h-55.504c-1.731-2.102-4.747-5.859-6.997-9.247        c-3.362-5.043-0.841-17.257-0.841-17.257s0,0-5.044-4.623c-5.044-4.623-8.01-21.04-8.01-21.04l16.738,5.167l50.634,15.675        l0.445,0.124l2.497,0.791l5.859,1.805v0.841L176.257,497.123z"/>
					</g>
					<g>
						<path style="fill:#F96756;" d="M383.712,426.018c0,0-10.26,40.744-23.116,71.105H169.511l-0.596-28.094v-1.986l-0.085-2.128        l10.369-0.402c0,0,0.395-0.371,1.137-1.014c0.173-0.148,0.346-0.321,0.544-0.47c0.42-0.396,1.083,0.228,1.652-0.242        c0.544-0.445,1.74,0.409,2.383-0.085c0.173-0.173,0.994-1.529,1.191-1.702c1.063-0.816,2.289-1.614,3.574-2.553        c0.198-0.148,0.157-0.569,0.354-0.692c0.519-0.396,0.208-0.469,0.752-0.84c0.692-0.495,1.216-0.296,1.957-0.766        c0.223-0.148,0.434-0.472,0.681-0.596c0.148-0.124,0.788-1.092,0.936-1.191c0.124-0.074-0.124,0.099,0,0        c0.865-0.519,1.663-0.118,2.553-0.612c0.247-0.148,0.774-1.197,1.021-1.345c0.841-0.445,1.542-0.03,2.383-0.426        c0.791-0.371,1.515-0.554,2.553-0.851c0.346-0.099,1.608,0.241,2.004,0.142c0.742-0.173,0.815-1.185,1.656-1.334        c1.582-0.321,3.642-1.504,5.447-1.702c0.494-0.074,1.608,0.049,2.128,0c1.681-0.148,2.203-1.25,3.933-1.349        c0.593-0.025,1.162-0.074,1.755-0.099c1.063-0.025,2.102-0.074,3.165-0.099c2.942-0.074,5.835-0.074,8.48-0.049        c7.269,0.074,12.782,0.421,12.782,0.421s6.156-22.523,14.265-51.87c0.099-0.346,0.198-0.717,0.297-1.088        c1.459-5.241,2.967-10.681,4.5-16.268c0.025,0,0.025-0.025,0.025-0.049c6.626-23.858,13.944-49.941,20.1-71.401        c0.173-0.593,0.346-1.162,0.519-1.731c3.437-11.991,6.527-22.449,8.9-30.138c0.494-1.582,1.014-3.115,1.533-4.574        c13.919-38.173,42.005-35.824,42.005-35.824l8.628,8.381l1.78,1.706l9.79,9.494L383.712,426.018z"/>
					</g>
					<g>
						<path style="fill:#2F2444;" d="M346.849,243.979c0,0.074-0.025,0.148-0.074,0.222c-0.148,0.544-0.692,0.915-1.31,0.816        c-1.607-0.222-39.582-5.167-55.059,39.582c-1.978,5.711-4.153,12.535-6.477,20.051c-0.173,0.569-0.346,1.137-0.519,1.731        c-6.379,20.965-13.697,47.222-20.224,71.352c-0.124,0.47-0.247,0.915-0.371,1.384c-0.025,0.025-0.025,0.049-0.025,0.099        c-1.384,5.068-2.72,10.062-4.005,14.884c-0.099,0.371-0.198,0.742-0.297,1.088c-7.664,28.853-13.375,51.252-13.499,51.746        c-0.148,0.618-0.742,1.014-1.335,0.939c-0.124-0.025-4.055-0.445-9.914-0.494c-3.165-0.025-6.873,0.074-10.878,0.445        c-0.025-0.025-0.025,0-0.049,0c-1.632,0.124-3.288,0.321-4.994,0.569c-0.346,0.025-0.692,0.074-1.038,0.124        c-0.445,0.074-0.89,0.148-1.335,0.223c-2.275,0.395-4.598,0.865-6.873,1.459c-0.371,0.099-0.742,0.198-1.112,0.297        c-2.052,0.569-4.079,1.236-6.057,2.027c-0.297,0.124-0.593,0.247-0.89,0.371h-0.025c-1.36,0.569-2.695,1.211-3.98,1.904        c-0.247,0.124-0.519,0.272-0.766,0.396c-1.36,0.767-2.67,1.607-3.906,2.522c-0.198,0.148-0.395,0.272-0.569,0.445        c-1.113,0.841-2.176,1.755-3.165,2.744c-0.173,0.173-0.346,0.346-0.494,0.519c-0.618,0.618-1.212,1.285-1.755,1.978        c-0.198,0.247-0.47,0.396-0.791,0.445l-1.113,0.148l-1.409,0.223l-7.986,1.137l-4.401,0.643l0.025,0.717v0.766l0.618,29.644        h-2.472l-0.643-30.459v-0.742l-0.025-0.964c0-0.148,0.025-0.322,0.074-0.445c0.148-0.42,0.544-0.742,0.989-0.791l0.568-0.074        l7.912-1.162l1.409-0.198l3.758-0.544l1.854-0.272c0.247-0.297,0.494-0.593,0.766-0.89c0.148-0.173,0.297-0.346,0.47-0.519        c0.939-1.014,1.928-1.953,2.967-2.818c0.173-0.148,0.371-0.321,0.544-0.47c0.495-0.396,0.989-0.766,1.483-1.162        c0.692-0.494,1.409-0.964,2.151-1.434c0.223-0.148,0.445-0.297,0.668-0.445c0.148-0.074,0.742-0.42,0.865-0.519        c0.915-0.519,1.854-1.014,2.819-1.483c0.272-0.124,0.544-0.272,0.816-0.396c1.78-0.816,3.609-1.558,5.464-2.201        c0.346-0.124,0.692-0.222,1.038-0.321c0.643-0.222,1.31-0.445,1.978-0.618c1.385-0.42,2.769-0.766,4.154-1.088        c0.396-0.074,0.791-0.173,1.211-0.247c1.854-0.396,3.684-0.717,5.513-0.964c0.346-0.074,0.717-0.124,1.063-0.148        c1.656-0.222,3.313-0.396,4.895-0.519c1.137-0.099,2.25-0.173,3.338-0.247c7.738-0.395,13.969,0.074,16.441,0.321        c1.384-5.488,8.085-31.72,16.367-62.526c0.519-1.928,1.038-3.857,1.582-5.81c4.228-15.601,8.777-32.116,13.202-47.494        c1.558-5.439,3.115-10.73,4.623-15.798c3.412-11.472,6.651-21.781,9.444-29.891c1.805-5.241,3.931-9.84,6.28-13.845        c16.96-28.926,45.491-27.888,50.634-27.443c0.495,0.049,0.791,0.074,0.816,0.074        C346.478,242.669,346.948,243.311,346.849,243.979z"/>
					</g>
					<g>
						<path style="fill:#2F2444;" d="M375.429,389.749c-1.038,3.634-19.853,69.3-34.835,107.374h-2.621        c15.081-38.247,34.835-107.152,35.083-108.067c0.198-0.643,0.89-1.038,1.533-0.841        C375.256,388.389,375.627,389.081,375.429,389.749z"/>
					</g>
				</g>
			</g>
		</g>
	</g>
</g>















</svg>
