<?xml version="1.0" encoding="iso-8859-1"?>
<!-- Generator: Adobe Illustrator 29.2.1, SVG Export Plug-In . SVG Version: 9.03 Build 55982)  -->
<svg version="1.1" id="Capa_1" xmlns="http://www.w3.org/2000/svg" xmlns:xlink="http://www.w3.org/1999/xlink" x="0px" y="0px"
	 viewBox="0 0 512 512" style="enable-background:new 0 0 512 512;" xml:space="preserve">
<g>
	<g>
		<g>
			<g>
				<rect x="10" y="130.513" style="fill:#F7B073;" width="245.729" height="307.859"/>
				<path style="fill:#D46B5C;" d="M103.868,252.761c0-44.006,10.54-85.547,29.224-122.248H10v307.859h167.858
					C132.003,390.005,103.868,324.671,103.868,252.761z"/>
				<rect x="255.729" y="130.513" style="fill:#F7B073;" width="246.271" height="307.859"/>
				<polygon style="fill:#FD7DA0;" points="387.293,458.264 355.83,440.466 324.367,458.264 324.367,357.924 387.293,357.924 				
					"/>
			</g>
			<g>
				<path style="fill:#FFFFFF;" d="M255.729,398.457L255.729,398.457c-64.793-22.761-135.409-22.761-200.203,0l0,0V130.513l0,0
					c64.793-22.761,135.409-22.761,200.202,0l0,0V398.457z"/>
				<path style="fill:#D2DCFD;" d="M103.868,252.761c0-50.856,14.078-98.42,38.536-139.025
					c-29.422,1.289-58.701,6.878-86.878,16.776h0v267.944l0,0c26.378-9.266,53.721-14.758,81.243-16.48
					C115.796,343.602,103.868,299.576,103.868,252.761z"/>
				<path style="fill:#FFFFFF;" d="M255.729,398.457L255.729,398.457c64.793-22.761,135.409-22.761,200.203,0l0,0V130.513l0,0
					c-64.793-22.761-135.409-22.761-200.202,0l0,0V398.457z"/>
			</g>
		</g>
		<polygon style="fill:#FDCB50;" points="318.973,94.593 279.938,94.593 279.938,53.735 233.1,53.735 233.1,94.593 193.027,94.593 
			193.027,140.392 233.1,140.392 233.1,223.184 279.938,223.184 279.938,140.392 318.973,140.392 		"/>
	</g>
	<g>
		<g>
			<path style="fill:#93B2F4;" d="M197.312,245.949h-83.369c-5.523,0-10,4.477-10,10c0,5.523,4.477,10,10,10h83.369
				c5.523,0,10-4.477,10-10C207.312,250.426,202.835,245.949,197.312,245.949z"/>
			<path style="fill:#93B2F4;" d="M197.312,296.154h-83.369c-5.523,0-10,4.477-10,10s4.477,10,10,10h83.369c5.523,0,10-4.477,10-10
				S202.835,296.154,197.312,296.154z"/>
			<path style="fill:#93B2F4;" d="M197.312,195.745h-83.369c-5.523,0-10,4.477-10,10s4.477,10,10,10h83.369c5.523,0,10-4.477,10-10
				S202.835,195.745,197.312,195.745z"/>
			<path style="fill:#93B2F4;" d="M397.515,245.949h-83.369c-5.523,0-10,4.477-10,10c0,5.523,4.477,10,10,10h83.369
				c5.523,0,10-4.477,10-10C407.515,250.426,403.038,245.949,397.515,245.949z"/>
			<path style="fill:#93B2F4;" d="M397.515,296.154h-83.369c-5.523,0-10,4.477-10,10s4.477,10,10,10h83.369c5.523,0,10-4.477,10-10
				S403.038,296.154,397.515,296.154z"/>
			<path style="fill:#93B2F4;" d="M314.146,215.745h83.369c5.523,0,10-4.477,10-10s-4.477-10-10-10h-83.369c-5.523,0-10,4.477-10,10
				S308.623,215.745,314.146,215.745z"/>
		</g>
		<path style="fill:#052A75;" d="M502,120.513h-44.4c-41.046-14.156-85.355-19.626-128.627-15.906V94.593c0-5.523-4.477-10-10-10
			h-29.036V53.735c0-5.523-4.477-10-10-10H233.1c-5.523,0-10,4.477-10,10v30.857h-30.073c-5.523,0-10,4.477-10,10v10.058
			c-43.488-3.81-87.916,1.633-129.168,15.862H10c-5.523,0-10,4.477-10,10v307.859c0,5.523,4.477,10,10,10h304.367v9.893
			c0,3.557,1.89,6.846,4.962,8.638c3.074,1.793,6.866,1.817,9.962,0.066l26.539-15.013l26.539,15.013
			c1.528,0.864,3.226,1.296,4.924,1.296c1.741,0,3.482-0.455,5.038-1.362c3.072-1.792,4.962-5.081,4.962-8.638v-9.893H502
			c5.523,0,10-4.477,10-10V130.513C512,124.99,507.523,120.513,502,120.513z M445.932,137.692l0,246.99
			c-58.597-17.643-121.607-17.63-180.203,0.013v-151.51h14.209c5.523,0,10-4.477,10-10v-72.792h29.036c5.523,0,10-4.477,10-10
			v-15.687C368.219,121.093,408.425,125.547,445.932,137.692z M203.027,104.593H233.1c5.523,0,10-4.477,10-10V63.735h26.837v30.857
			c0,5.523,4.477,10,10,10h29.036v25.8h-29.036c-5.523,0-10,4.477-10,10v72.792H243.1v-72.792c0-5.523-4.477-10-10-10h-30.073
			V104.593z M183.027,124.745v15.647c0,5.523,4.477,10,10,10H223.1v72.792c0,5.523,4.477,10,10,10h12.628v151.498
			c-58.597-17.643-121.605-17.643-180.203,0l0-246.991C103.228,125.482,143.57,121.045,183.027,124.745z M20,140.513h25.526
			l0,257.944c0,3.243,1.572,6.284,4.218,8.159c2.646,1.875,6.034,2.352,9.096,1.275c60.194-21.146,126.275-21.89,186.888-2.249
			v22.729H20V140.513z M265.729,428.372v-22.729c15.905-5.154,32.186-8.9,48.639-11.245v33.975H265.729z M360.754,431.762
			c-3.056-1.728-6.792-1.728-9.848,0l-16.539,9.356v-48.871c14.287-1.046,28.638-1.045,42.926,0v48.871L360.754,431.762z
			 M492,428.372h-94.707v-33.975c18.765,2.675,37.309,7.166,55.324,13.494c3.042,1.072,6.445,0.605,9.096-1.275
			c2.646-1.875,4.218-4.917,4.218-8.159l0-257.944H492V428.372z"/>
	</g>
</g>
<g>
</g>
<g>
</g>
<g>
</g>
<g>
</g>
<g>
</g>
<g>
</g>
<g>
</g>
<g>
</g>
<g>
</g>
<g>
</g>
<g>
</g>
<g>
</g>
<g>
</g>
<g>
</g>
<g>
</g>
</svg>
